<svg width="104" height="95" viewBox="0 0 104 95" fill="none" xmlns="http://www.w3.org/2000/svg">
<path d="M0.860795 12V3.27273H6.4517V4.59801H2.44176V6.96733H6.06818V8.29261H2.44176V12H0.860795ZM7.73011 12V5.45455H9.22585V6.54545H9.29403C9.41335 6.16761 9.6179 5.87642 9.90767 5.67188C10.2003 5.46449 10.5341 5.3608 10.9091 5.3608C10.9943 5.3608 11.0895 5.36506 11.1946 5.37358C11.3026 5.37926 11.392 5.3892 11.4631 5.40341V6.82244C11.3977 6.79972 11.294 6.77983 11.152 6.76278C11.0128 6.7429 10.8778 6.73295 10.7472 6.73295C10.4659 6.73295 10.2131 6.79403 9.98864 6.91619C9.76705 7.03551 9.59233 7.2017 9.46449 7.41477C9.33665 7.62784 9.27273 7.87358 9.27273 8.15199V12H7.73011ZM15.1161 12.1278C14.4599 12.1278 13.8931 11.9915 13.4158 11.7188C12.9414 11.4432 12.5763 11.054 12.3207 10.5511C12.065 10.0455 11.9371 9.45028 11.9371 8.76562C11.9371 8.09233 12.065 7.50142 12.3207 6.9929C12.5792 6.48153 12.94 6.08381 13.4031 5.79972C13.8661 5.51278 14.4102 5.36932 15.0352 5.36932C15.4386 5.36932 15.8192 5.43466 16.1772 5.56534C16.538 5.69318 16.8562 5.89205 17.1317 6.16193C17.4102 6.43182 17.6289 6.77557 17.788 7.19318C17.9471 7.60795 18.0266 8.10227 18.0266 8.67614V9.14915H12.6616V8.10938H16.5479C16.5451 7.81392 16.4812 7.55114 16.3562 7.32102C16.2312 7.08807 16.0565 6.90483 15.832 6.77131C15.6104 6.63778 15.3519 6.57102 15.0565 6.57102C14.7411 6.57102 14.4641 6.64773 14.2255 6.80114C13.9869 6.9517 13.8008 7.15057 13.6673 7.39773C13.5366 7.64205 13.4698 7.91051 13.467 8.20312V9.1108C13.467 9.49148 13.5366 9.81818 13.6758 10.0909C13.815 10.3608 14.0096 10.5682 14.2596 10.7131C14.5096 10.8551 14.8022 10.9261 15.1374 10.9261C15.3619 10.9261 15.565 10.8949 15.7468 10.8324C15.9286 10.767 16.0863 10.6719 16.2198 10.5469C16.3533 10.4219 16.4542 10.267 16.5224 10.0824L17.9627 10.2443C17.8718 10.625 17.6985 10.9574 17.4428 11.2415C17.19 11.5227 16.8661 11.7415 16.4712 11.8977C16.0763 12.0511 15.6246 12.1278 15.1161 12.1278ZM22.2294 12.1278C21.5732 12.1278 21.0064 11.9915 20.5291 11.7188C20.0547 11.4432 19.6896 11.054 19.4339 10.5511C19.1783 10.0455 19.0504 9.45028 19.0504 8.76562C19.0504 8.09233 19.1783 7.50142 19.4339 6.9929C19.6925 6.48153 20.0533 6.08381 20.5163 5.79972C20.9794 5.51278 21.5234 5.36932 22.1484 5.36932C22.5518 5.36932 22.9325 5.43466 23.2905 5.56534C23.6513 5.69318 23.9695 5.89205 24.245 6.16193C24.5234 6.43182 24.7422 6.77557 24.9013 7.19318C25.0604 7.60795 25.1399 8.10227 25.1399 8.67614V9.14915H19.7749V8.10938H23.6612C23.6584 7.81392 23.5945 7.55114 23.4695 7.32102C23.3445 7.08807 23.1697 6.90483 22.9453 6.77131C22.7237 6.63778 22.4652 6.57102 22.1697 6.57102C21.8544 6.57102 21.5774 6.64773 21.3388 6.80114C21.1001 6.9517 20.9141 7.15057 20.7805 7.39773C20.6499 7.64205 20.5831 7.91051 20.5803 8.20312V9.1108C20.5803 9.49148 20.6499 9.81818 20.7891 10.0909C20.9283 10.3608 21.1229 10.5682 21.3729 10.7131C21.6229 10.8551 21.9155 10.9261 22.2507 10.9261C22.4751 10.9261 22.6783 10.8949 22.8601 10.8324C23.0419 10.767 23.1996 10.6719 23.3331 10.5469C23.4666 10.4219 23.5675 10.267 23.6357 10.0824L25.076 10.2443C24.9851 10.625 24.8118 10.9574 24.5561 11.2415C24.3033 11.5227 23.9794 11.7415 23.5845 11.8977C23.1896 12.0511 22.7379 12.1278 22.2294 12.1278ZM32.4471 12H29.4897V3.27273H32.5067C33.3732 3.27273 34.1175 3.44744 34.7397 3.79688C35.3647 4.14347 35.8448 4.64205 36.18 5.29261C36.5153 5.94318 36.6829 6.72159 36.6829 7.62784C36.6829 8.53693 36.5138 9.31818 36.1758 9.97159C35.8406 10.625 35.3562 11.1264 34.7227 11.4759C34.092 11.8253 33.3335 12 32.4471 12ZM31.0707 10.6321H32.3704C32.9783 10.6321 33.4854 10.5213 33.8917 10.2997C34.2979 10.0753 34.6033 9.74148 34.8079 9.2983C35.0124 8.85227 35.1147 8.29545 35.1147 7.62784C35.1147 6.96023 35.0124 6.40625 34.8079 5.96591C34.6033 5.52273 34.3008 5.19176 33.9002 4.97301C33.5025 4.75142 33.0082 4.64062 32.4173 4.64062H31.0707V10.6321ZM41.0146 12.1278C40.3583 12.1278 39.7915 11.9915 39.3143 11.7188C38.8398 11.4432 38.4748 11.054 38.2191 10.5511C37.9634 10.0455 37.8356 9.45028 37.8356 8.76562C37.8356 8.09233 37.9634 7.50142 38.2191 6.9929C38.4776 6.48153 38.8384 6.08381 39.3015 5.79972C39.7646 5.51278 40.3086 5.36932 40.9336 5.36932C41.337 5.36932 41.7177 5.43466 42.0756 5.56534C42.4364 5.69318 42.7546 5.89205 43.0302 6.16193C43.3086 6.43182 43.5273 6.77557 43.6864 7.19318C43.8455 7.60795 43.9251 8.10227 43.9251 8.67614V9.14915H38.56V8.10938H42.4464C42.4435 7.81392 42.3796 7.55114 42.2546 7.32102C42.1296 7.08807 41.9549 6.90483 41.7305 6.77131C41.5089 6.63778 41.2504 6.57102 40.9549 6.57102C40.6396 6.57102 40.3626 6.64773 40.1239 6.80114C39.8853 6.9517 39.6992 7.15057 39.5657 7.39773C39.435 7.64205 39.3683 7.91051 39.3654 8.20312V9.1108C39.3654 9.49148 39.435 9.81818 39.5742 10.0909C39.7134 10.3608 39.908 10.5682 40.158 10.7131C40.408 10.8551 40.7006 10.9261 41.0359 10.9261C41.2603 10.9261 41.4634 10.8949 41.6452 10.8324C41.8271 10.767 41.9847 10.6719 42.1183 10.5469C42.2518 10.4219 42.3526 10.267 42.4208 10.0824L43.8612 10.2443C43.7702 10.625 43.5969 10.9574 43.3413 11.2415C43.0884 11.5227 42.7646 11.7415 42.3697 11.8977C41.9748 12.0511 41.5231 12.1278 41.0146 12.1278ZM46.7727 3.27273V12H45.2301V3.27273H46.7727ZM48.359 12V5.45455H49.9016V12H48.359ZM49.1346 4.52557C48.8903 4.52557 48.68 4.4446 48.5039 4.28267C48.3278 4.1179 48.2397 3.92045 48.2397 3.69034C48.2397 3.45739 48.3278 3.25994 48.5039 3.09801C48.68 2.93324 48.8903 2.85085 49.1346 2.85085C49.3817 2.85085 49.592 2.93324 49.7653 3.09801C49.9414 3.25994 50.0295 3.45739 50.0295 3.69034C50.0295 3.92045 49.9414 4.1179 49.7653 4.28267C49.592 4.4446 49.3817 4.52557 49.1346 4.52557ZM57.3345 5.45455L55.0036 12H53.299L50.968 5.45455H52.6129L54.1172 10.3168H54.1854L55.6939 5.45455H57.3345ZM61.0771 12.1278C60.4208 12.1278 59.854 11.9915 59.3768 11.7188C58.9023 11.4432 58.5373 11.054 58.2816 10.5511C58.0259 10.0455 57.8981 9.45028 57.8981 8.76562C57.8981 8.09233 58.0259 7.50142 58.2816 6.9929C58.5401 6.48153 58.9009 6.08381 59.364 5.79972C59.8271 5.51278 60.3711 5.36932 60.9961 5.36932C61.3995 5.36932 61.7802 5.43466 62.1381 5.56534C62.4989 5.69318 62.8171 5.89205 63.0927 6.16193C63.3711 6.43182 63.5898 6.77557 63.7489 7.19318C63.908 7.60795 63.9876 8.10227 63.9876 8.67614V9.14915H58.6225V8.10938H62.5089C62.506 7.81392 62.4421 7.55114 62.3171 7.32102C62.1921 7.08807 62.0174 6.90483 61.793 6.77131C61.5714 6.63778 61.3129 6.57102 61.0174 6.57102C60.7021 6.57102 60.4251 6.64773 60.1864 6.80114C59.9478 6.9517 59.7617 7.15057 59.6282 7.39773C59.4975 7.64205 59.4308 7.91051 59.4279 8.20312V9.1108C59.4279 9.49148 59.4975 9.81818 59.6367 10.0909C59.7759 10.3608 59.9705 10.5682 60.2205 10.7131C60.4705 10.8551 60.7631 10.9261 61.0984 10.9261C61.3228 10.9261 61.5259 10.8949 61.7077 10.8324C61.8896 10.767 62.0472 10.6719 62.1808 10.5469C62.3143 10.4219 62.4151 10.267 62.4833 10.0824L63.9237 10.2443C63.8327 10.625 63.6594 10.9574 63.4038 11.2415C63.1509 11.5227 62.8271 11.7415 62.4322 11.8977C62.0373 12.0511 61.5856 12.1278 61.0771 12.1278ZM65.2926 12V5.45455H66.7884V6.54545H66.8565C66.9759 6.16761 67.1804 5.87642 67.4702 5.67188C67.7628 5.46449 68.0966 5.3608 68.4716 5.3608C68.5568 5.3608 68.652 5.36506 68.7571 5.37358C68.8651 5.37926 68.9545 5.3892 69.0256 5.40341V6.82244C68.9602 6.79972 68.8565 6.77983 68.7145 6.76278C68.5753 6.7429 68.4403 6.73295 68.3097 6.73295C68.0284 6.73295 67.7756 6.79403 67.5511 6.91619C67.3295 7.03551 67.1548 7.2017 67.027 7.41477C66.8991 7.62784 66.8352 7.87358 66.8352 8.15199V12H65.2926ZM70.0504 12V5.45455H71.593V12H70.0504ZM70.826 4.52557C70.5817 4.52557 70.3714 4.4446 70.1953 4.28267C70.0192 4.1179 69.9311 3.92045 69.9311 3.69034C69.9311 3.45739 70.0192 3.25994 70.1953 3.09801C70.3714 2.93324 70.5817 2.85085 70.826 2.85085C71.0732 2.85085 71.2834 2.93324 71.4567 3.09801C71.6328 3.25994 71.7209 3.45739 71.7209 3.69034C71.7209 3.92045 71.6328 4.1179 71.4567 4.28267C71.2834 4.4446 71.0732 4.52557 70.826 4.52557ZM76.0771 12.1278C75.4208 12.1278 74.854 11.9915 74.3768 11.7188C73.9023 11.4432 73.5373 11.054 73.2816 10.5511C73.0259 10.0455 72.8981 9.45028 72.8981 8.76562C72.8981 8.09233 73.0259 7.50142 73.2816 6.9929C73.5401 6.48153 73.9009 6.08381 74.364 5.79972C74.8271 5.51278 75.3711 5.36932 75.9961 5.36932C76.3995 5.36932 76.7802 5.43466 77.1381 5.56534C77.4989 5.69318 77.8171 5.89205 78.0927 6.16193C78.3711 6.43182 78.5898 6.77557 78.7489 7.19318C78.908 7.60795 78.9876 8.10227 78.9876 8.67614V9.14915H73.6225V8.10938H77.5089C77.506 7.81392 77.4421 7.55114 77.3171 7.32102C77.1921 7.08807 77.0174 6.90483 76.793 6.77131C76.5714 6.63778 76.3129 6.57102 76.0174 6.57102C75.7021 6.57102 75.4251 6.64773 75.1864 6.80114C74.9478 6.9517 74.7617 7.15057 74.6282 7.39773C74.4975 7.64205 74.4308 7.91051 74.4279 8.20312V9.1108C74.4279 9.49148 74.4975 9.81818 74.6367 10.0909C74.7759 10.3608 74.9705 10.5682 75.2205 10.7131C75.4705 10.8551 75.7631 10.9261 76.0984 10.9261C76.3228 10.9261 76.5259 10.8949 76.7077 10.8324C76.8896 10.767 77.0472 10.6719 77.1808 10.5469C77.3143 10.4219 77.4151 10.267 77.4833 10.0824L78.9237 10.2443C78.8327 10.625 78.6594 10.9574 78.4038 11.2415C78.1509 11.5227 77.8271 11.7415 77.4322 11.8977C77.0373 12.0511 76.5856 12.1278 76.0771 12.1278ZM85.4659 7.18466L84.0597 7.33807C84.0199 7.19602 83.9503 7.0625 83.8509 6.9375C83.7543 6.8125 83.6236 6.71165 83.4588 6.63494C83.294 6.55824 83.0923 6.51989 82.8537 6.51989C82.5327 6.51989 82.2628 6.58949 82.044 6.72869C81.8281 6.8679 81.7216 7.0483 81.7244 7.26989C81.7216 7.46023 81.7912 7.61506 81.9332 7.73438C82.0781 7.85369 82.3168 7.9517 82.6491 8.02841L83.7656 8.26705C84.3849 8.40057 84.8452 8.61222 85.1463 8.90199C85.4503 9.19176 85.6037 9.57102 85.6065 10.0398C85.6037 10.4517 85.483 10.8153 85.2443 11.1307C85.0085 11.4432 84.6804 11.6875 84.2599 11.8636C83.8395 12.0398 83.3565 12.1278 82.8111 12.1278C82.0099 12.1278 81.3651 11.9602 80.8764 11.625C80.3878 11.2869 80.0966 10.8168 80.0028 10.2145L81.5071 10.0696C81.5753 10.3651 81.7202 10.5881 81.9418 10.7386C82.1634 10.8892 82.4517 10.9645 82.8068 10.9645C83.1733 10.9645 83.4673 10.8892 83.6889 10.7386C83.9134 10.5881 84.0256 10.402 84.0256 10.1804C84.0256 9.9929 83.9531 9.83807 83.8082 9.71591C83.6662 9.59375 83.4446 9.5 83.1435 9.43466L82.027 9.20028C81.3991 9.0696 80.9347 8.84943 80.6335 8.53977C80.3324 8.22727 80.1832 7.83239 80.1861 7.35511C80.1832 6.9517 80.2926 6.60227 80.5142 6.30682C80.7386 6.00852 81.0497 5.77841 81.4474 5.61648C81.848 5.4517 82.3097 5.36932 82.8324 5.36932C83.5994 5.36932 84.2031 5.53267 84.6435 5.85938C85.0866 6.18608 85.3608 6.62784 85.4659 7.18466Z" fill="black"/>
<path d="M16.6974 94L14.2344 85.2727H15.9347L17.5071 91.6861H17.5881L19.267 85.2727H20.8139L22.4972 91.6903H22.5739L24.1463 85.2727H25.8466L23.3835 94H21.8239L20.0767 87.8764H20.0085L18.2571 94H16.6974ZM26.8746 94V87.4545H28.4173V94H26.8746ZM27.6502 86.5256C27.4059 86.5256 27.1957 86.4446 27.0195 86.2827C26.8434 86.1179 26.7553 85.9205 26.7553 85.6903C26.7553 85.4574 26.8434 85.2599 27.0195 85.098C27.1957 84.9332 27.4059 84.8509 27.6502 84.8509C27.8974 84.8509 28.1076 84.9332 28.2809 85.098C28.457 85.2599 28.5451 85.4574 28.5451 85.6903C28.5451 85.9205 28.457 86.1179 28.2809 86.2827C28.1076 86.4446 27.8974 86.5256 27.6502 86.5256ZM33.272 87.4545V88.6477H29.5092V87.4545H33.272ZM30.4382 85.8864H31.9808V92.0312C31.9808 92.2386 32.0121 92.3977 32.0746 92.5085C32.1399 92.6165 32.2251 92.6903 32.3303 92.7301C32.4354 92.7699 32.5518 92.7898 32.6797 92.7898C32.7763 92.7898 32.8643 92.7827 32.9439 92.7685C33.0263 92.7543 33.0888 92.7415 33.1314 92.7301L33.3913 93.9361C33.3089 93.9645 33.1911 93.9957 33.0376 94.0298C32.8871 94.0639 32.7024 94.0838 32.4837 94.0895C32.0973 94.1009 31.7493 94.0426 31.4396 93.9148C31.13 93.7841 30.8842 93.5824 30.7024 93.3097C30.5234 93.0369 30.4354 92.696 30.4382 92.2869V85.8864ZM36.2454 90.1648V94H34.7028V85.2727H36.2113V88.5668H36.288C36.4414 88.1974 36.6786 87.9062 36.9996 87.6932C37.3235 87.4773 37.7354 87.3693 38.2354 87.3693C38.69 87.3693 39.0863 87.4645 39.4244 87.6548C39.7624 87.8452 40.0238 88.1236 40.2085 88.4901C40.396 88.8565 40.4897 89.304 40.4897 89.8324V94H38.9471V90.071C38.9471 89.6307 38.8335 89.2884 38.6062 89.044C38.3817 88.7969 38.0664 88.6733 37.6602 88.6733C37.3874 88.6733 37.1431 88.733 36.9272 88.8523C36.7141 88.9687 36.5465 89.1378 36.4244 89.3594C36.305 89.581 36.2454 89.8494 36.2454 90.1648ZM42.0621 94V87.4545H43.6048V94H42.0621ZM42.8377 86.5256C42.5934 86.5256 42.3832 86.4446 42.207 86.2827C42.0309 86.1179 41.9428 85.9205 41.9428 85.6903C41.9428 85.4574 42.0309 85.2599 42.207 85.098C42.3832 84.9332 42.5934 84.8509 42.8377 84.8509C43.0849 84.8509 43.2951 84.9332 43.4684 85.098C43.6445 85.2599 43.7326 85.4574 43.7326 85.6903C43.7326 85.9205 43.6445 86.1179 43.4684 86.2827C43.2951 86.4446 43.0849 86.5256 42.8377 86.5256ZM46.7337 90.1648V94H45.1911V87.4545H46.6655V88.5668H46.7422C46.8928 88.2003 47.1328 87.9091 47.4624 87.6932C47.7947 87.4773 48.2053 87.3693 48.6939 87.3693C49.1456 87.3693 49.5391 87.4659 49.8743 87.6591C50.2124 87.8523 50.4737 88.1321 50.6584 88.4986C50.8459 88.8651 50.9382 89.3097 50.9354 89.8324V94H49.3928V90.071C49.3928 89.6335 49.2791 89.2912 49.0518 89.044C48.8274 88.7969 48.5163 88.6733 48.1186 88.6733C47.8487 88.6733 47.6087 88.733 47.3984 88.8523C47.1911 88.9687 47.0277 89.1378 46.9084 89.3594C46.7919 89.581 46.7337 89.8494 46.7337 90.1648ZM55.5483 94V85.2727H61.2244V86.598H57.1293V88.9673H60.9304V90.2926H57.1293V92.6747H61.2585V94H55.5483ZM68.3388 85.2727H69.9197V90.9744C69.9197 91.5994 69.772 92.1491 69.4766 92.6236C69.1839 93.098 68.772 93.4687 68.2408 93.7358C67.7095 94 67.0888 94.1321 66.3786 94.1321C65.6655 94.1321 65.0433 94 64.5121 93.7358C63.9808 93.4687 63.5689 93.098 63.2763 92.6236C62.9837 92.1491 62.8374 91.5994 62.8374 90.9744V85.2727H64.4183V90.8423C64.4183 91.206 64.4979 91.5298 64.657 91.8139C64.8189 92.098 65.0462 92.321 65.3388 92.483C65.6314 92.642 65.978 92.7216 66.3786 92.7216C66.7791 92.7216 67.1257 92.642 67.4183 92.483C67.7138 92.321 67.9411 92.098 68.1001 91.8139C68.2592 91.5298 68.3388 91.206 68.3388 90.8423V85.2727Z" fill="black"/>
<mask id="path-3-inside-1_460_125" fill="white">
<path d="M40.0001 20L38.7006 22.5442L35.7946 22.9523L37.8973 24.9328L37.401 27.7295L40.0001 26.4093L42.5993 27.7296L42.1028 24.9329L44.2055 22.9524L41.2995 22.5442L40.0001 20ZM27.78 23.5151L26.4806 26.0596L23.5746 26.4677L25.6775 28.4481L25.1811 31.245L27.78 29.9244L30.3793 31.245L29.8828 28.4481L31.9855 26.4677L29.0795 26.0596L27.78 23.5151ZM52.2201 23.5151L50.9205 26.0596L48.0146 26.4677L50.1174 28.4481L49.621 31.245L52.2202 29.9244L54.819 31.245L54.3227 28.4481L56.4254 26.4677L53.5194 26.0596L52.2201 23.5151ZM18.5218 32.5182L17.2224 35.0624L14.3164 35.4705L16.4192 37.4509L15.9229 40.2477L18.5218 38.9274L21.121 40.2477L20.6245 37.4509L22.7273 35.4706L19.8213 35.0624L18.5218 32.5182ZM61.4783 32.5182L60.1787 35.0624L57.2727 35.4705L59.3755 37.4509L58.8791 40.2477L61.4783 38.9274L64.0771 40.2477L63.5808 37.4509L65.6835 35.4705L62.7775 35.0623L61.4783 32.5182ZM15.2054 44.3347L13.906 46.8789L11 47.287L13.1029 49.2674L12.6065 52.0642L15.2054 50.7439L17.8047 52.064L17.3082 49.2673L19.4109 47.287L16.5049 46.8789L15.2054 44.3347ZM64.7947 44.3347L63.4951 46.8789L60.5892 47.287L62.692 49.2674L62.1956 52.0642L64.7948 50.7439L67.3936 52.064L66.8973 49.2673L69 47.2868L66.094 46.8788L64.7947 44.3347ZM18.5218 56.3384L17.2224 58.8827L14.3164 59.2909L16.4192 61.2711L15.9229 64.068L18.5218 62.7474L21.121 64.068L20.6245 61.2713L22.7273 59.2911L19.8213 58.8827L18.5218 56.3384ZM61.4783 56.3384L60.1787 58.8827L57.2729 59.2911L59.3756 61.2713L58.8792 64.0681L61.4785 62.7476L64.0773 64.0681L63.5809 61.2714L65.6836 59.2912L62.7776 58.8829L61.4783 56.3384ZM27.78 65.1173L26.4806 67.6616L23.5746 68.0698L25.6775 70.0503L25.1811 72.847L27.78 71.5264L30.3793 72.847L29.8828 70.0503L31.9855 68.0698L29.0795 67.6616L27.78 65.1173ZM52.2201 65.1173L50.9205 67.6616L48.0145 68.0698L50.1172 70.0503L49.6209 72.847L52.2201 71.5264L54.8189 72.847L54.3225 70.0503L56.4253 68.0698L53.5193 67.6616L52.2201 65.1173ZM39.9757 68.2704L38.6763 70.8149L35.7703 71.2228L37.873 73.2035L37.3769 76L37.4301 75.9729L37.4253 76L40.0001 74.6918L42.5748 76L42.57 75.9729L42.6233 76L42.1272 73.2035L44.2297 71.2228L41.3237 70.8149L40.0242 68.2704L39.9999 68.3178L39.9757 68.2704Z"/>
</mask>
<path d="M40.0001 20L38.7006 22.5442L35.7946 22.9523L37.8973 24.9328L37.401 27.7295L40.0001 26.4093L42.5993 27.7296L42.1028 24.9329L44.2055 22.9524L41.2995 22.5442L40.0001 20ZM27.78 23.5151L26.4806 26.0596L23.5746 26.4677L25.6775 28.4481L25.1811 31.245L27.78 29.9244L30.3793 31.245L29.8828 28.4481L31.9855 26.4677L29.0795 26.0596L27.78 23.5151ZM52.2201 23.5151L50.9205 26.0596L48.0146 26.4677L50.1174 28.4481L49.621 31.245L52.2202 29.9244L54.819 31.245L54.3227 28.4481L56.4254 26.4677L53.5194 26.0596L52.2201 23.5151ZM18.5218 32.5182L17.2224 35.0624L14.3164 35.4705L16.4192 37.4509L15.9229 40.2477L18.5218 38.9274L21.121 40.2477L20.6245 37.4509L22.7273 35.4706L19.8213 35.0624L18.5218 32.5182ZM61.4783 32.5182L60.1787 35.0624L57.2727 35.4705L59.3755 37.4509L58.8791 40.2477L61.4783 38.9274L64.0771 40.2477L63.5808 37.4509L65.6835 35.4705L62.7775 35.0623L61.4783 32.5182ZM15.2054 44.3347L13.906 46.8789L11 47.287L13.1029 49.2674L12.6065 52.0642L15.2054 50.7439L17.8047 52.064L17.3082 49.2673L19.4109 47.287L16.5049 46.8789L15.2054 44.3347ZM64.7947 44.3347L63.4951 46.8789L60.5892 47.287L62.692 49.2674L62.1956 52.0642L64.7948 50.7439L67.3936 52.064L66.8973 49.2673L69 47.2868L66.094 46.8788L64.7947 44.3347ZM18.5218 56.3384L17.2224 58.8827L14.3164 59.2909L16.4192 61.2711L15.9229 64.068L18.5218 62.7474L21.121 64.068L20.6245 61.2713L22.7273 59.2911L19.8213 58.8827L18.5218 56.3384ZM61.4783 56.3384L60.1787 58.8827L57.2729 59.2911L59.3756 61.2713L58.8792 64.0681L61.4785 62.7476L64.0773 64.0681L63.5809 61.2714L65.6836 59.2912L62.7776 58.8829L61.4783 56.3384ZM27.78 65.1173L26.4806 67.6616L23.5746 68.0698L25.6775 70.0503L25.1811 72.847L27.78 71.5264L30.3793 72.847L29.8828 70.0503L31.9855 68.0698L29.0795 67.6616L27.78 65.1173ZM52.2201 65.1173L50.9205 67.6616L48.0145 68.0698L50.1172 70.0503L49.6209 72.847L52.2201 71.5264L54.8189 72.847L54.3225 70.0503L56.4253 68.0698L53.5193 67.6616L52.2201 65.1173ZM39.9757 68.2704L38.6763 70.8149L35.7703 71.2228L37.873 73.2035L37.3769 76L37.4301 75.9729L37.4253 76L40.0001 74.6918L42.5748 76L42.57 75.9729L42.6233 76L42.1272 73.2035L44.2297 71.2228L41.3237 70.8149L40.0242 68.2704L39.9999 68.3178L39.9757 68.2704Z" stroke="#283BA2" stroke-width="2" mask="url(#path-3-inside-1_460_125)"/>
</svg>
