<svg width="90" height="97" viewBox="0 0 90 97" fill="none" xmlns="http://www.w3.org/2000/svg">
<path d="M0.860795 12V3.27273H6.4517V4.59801H2.44176V6.96733H6.06818V8.29261H2.44176V12H0.860795ZM7.73011 12V5.45455H9.22585V6.54545H9.29403C9.41335 6.16761 9.6179 5.87642 9.90767 5.67188C10.2003 5.46449 10.5341 5.3608 10.9091 5.3608C10.9943 5.3608 11.0895 5.36506 11.1946 5.37358C11.3026 5.37926 11.392 5.3892 11.4631 5.40341V6.82244C11.3977 6.79972 11.294 6.77983 11.152 6.76278C11.0128 6.7429 10.8778 6.73295 10.7472 6.73295C10.4659 6.73295 10.2131 6.79403 9.98864 6.91619C9.76705 7.03551 9.59233 7.2017 9.46449 7.41477C9.33665 7.62784 9.27273 7.87358 9.27273 8.15199V12H7.73011ZM15.1161 12.1278C14.4599 12.1278 13.8931 11.9915 13.4158 11.7188C12.9414 11.4432 12.5763 11.054 12.3207 10.5511C12.065 10.0455 11.9371 9.45028 11.9371 8.76562C11.9371 8.09233 12.065 7.50142 12.3207 6.9929C12.5792 6.48153 12.94 6.08381 13.4031 5.79972C13.8661 5.51278 14.4102 5.36932 15.0352 5.36932C15.4386 5.36932 15.8192 5.43466 16.1772 5.56534C16.538 5.69318 16.8562 5.89205 17.1317 6.16193C17.4102 6.43182 17.6289 6.77557 17.788 7.19318C17.9471 7.60795 18.0266 8.10227 18.0266 8.67614V9.14915H12.6616V8.10938H16.5479C16.5451 7.81392 16.4812 7.55114 16.3562 7.32102C16.2312 7.08807 16.0565 6.90483 15.832 6.77131C15.6104 6.63778 15.3519 6.57102 15.0565 6.57102C14.7411 6.57102 14.4641 6.64773 14.2255 6.80114C13.9869 6.9517 13.8008 7.15057 13.6673 7.39773C13.5366 7.64205 13.4698 7.91051 13.467 8.20312V9.1108C13.467 9.49148 13.5366 9.81818 13.6758 10.0909C13.815 10.3608 14.0096 10.5682 14.2596 10.7131C14.5096 10.8551 14.8022 10.9261 15.1374 10.9261C15.3619 10.9261 15.565 10.8949 15.7468 10.8324C15.9286 10.767 16.0863 10.6719 16.2198 10.5469C16.3533 10.4219 16.4542 10.267 16.5224 10.0824L17.9627 10.2443C17.8718 10.625 17.6985 10.9574 17.4428 11.2415C17.19 11.5227 16.8661 11.7415 16.4712 11.8977C16.0763 12.0511 15.6246 12.1278 15.1161 12.1278ZM22.2294 12.1278C21.5732 12.1278 21.0064 11.9915 20.5291 11.7188C20.0547 11.4432 19.6896 11.054 19.4339 10.5511C19.1783 10.0455 19.0504 9.45028 19.0504 8.76562C19.0504 8.09233 19.1783 7.50142 19.4339 6.9929C19.6925 6.48153 20.0533 6.08381 20.5163 5.79972C20.9794 5.51278 21.5234 5.36932 22.1484 5.36932C22.5518 5.36932 22.9325 5.43466 23.2905 5.56534C23.6513 5.69318 23.9695 5.89205 24.245 6.16193C24.5234 6.43182 24.7422 6.77557 24.9013 7.19318C25.0604 7.60795 25.1399 8.10227 25.1399 8.67614V9.14915H19.7749V8.10938H23.6612C23.6584 7.81392 23.5945 7.55114 23.4695 7.32102C23.3445 7.08807 23.1697 6.90483 22.9453 6.77131C22.7237 6.63778 22.4652 6.57102 22.1697 6.57102C21.8544 6.57102 21.5774 6.64773 21.3388 6.80114C21.1001 6.9517 20.9141 7.15057 20.7805 7.39773C20.6499 7.64205 20.5831 7.91051 20.5803 8.20312V9.1108C20.5803 9.49148 20.6499 9.81818 20.7891 10.0909C20.9283 10.3608 21.1229 10.5682 21.3729 10.7131C21.6229 10.8551 21.9155 10.9261 22.2507 10.9261C22.4751 10.9261 22.6783 10.8949 22.8601 10.8324C23.0419 10.767 23.1996 10.6719 23.3331 10.5469C23.4666 10.4219 23.5675 10.267 23.6357 10.0824L25.076 10.2443C24.9851 10.625 24.8118 10.9574 24.5561 11.2415C24.3033 11.5227 23.9794 11.7415 23.5845 11.8977C23.1896 12.0511 22.7379 12.1278 22.2294 12.1278ZM29.4215 12V5.45455H30.9173V6.54545H30.9854C31.1048 6.16761 31.3093 5.87642 31.5991 5.67188C31.8917 5.46449 32.2255 5.3608 32.6005 5.3608C32.6857 5.3608 32.7809 5.36506 32.886 5.37358C32.994 5.37926 33.0835 5.3892 33.1545 5.40341V6.82244C33.0891 6.79972 32.9854 6.77983 32.8434 6.76278C32.7042 6.7429 32.5692 6.73295 32.4386 6.73295C32.1573 6.73295 31.9045 6.79403 31.68 6.91619C31.4585 7.03551 31.2837 7.2017 31.1559 7.41477C31.0281 7.62784 30.9641 7.87358 30.9641 8.15199V12H29.4215ZM36.8075 12.1278C36.1513 12.1278 35.5845 11.9915 35.1072 11.7188C34.6328 11.4432 34.2678 11.054 34.0121 10.5511C33.7564 10.0455 33.6286 9.45028 33.6286 8.76562C33.6286 8.09233 33.7564 7.50142 34.0121 6.9929C34.2706 6.48153 34.6314 6.08381 35.0945 5.79972C35.5575 5.51278 36.1016 5.36932 36.7266 5.36932C37.13 5.36932 37.5107 5.43466 37.8686 5.56534C38.2294 5.69318 38.5476 5.89205 38.8232 6.16193C39.1016 6.43182 39.3203 6.77557 39.4794 7.19318C39.6385 7.60795 39.718 8.10227 39.718 8.67614V9.14915H34.353V8.10938H38.2393C38.2365 7.81392 38.1726 7.55114 38.0476 7.32102C37.9226 7.08807 37.7479 6.90483 37.5234 6.77131C37.3018 6.63778 37.0433 6.57102 36.7479 6.57102C36.4325 6.57102 36.1555 6.64773 35.9169 6.80114C35.6783 6.9517 35.4922 7.15057 35.3587 7.39773C35.228 7.64205 35.1612 7.91051 35.1584 8.20312V9.1108C35.1584 9.49148 35.228 9.81818 35.3672 10.0909C35.5064 10.3608 35.701 10.5682 35.951 10.7131C36.201 10.8551 36.4936 10.9261 36.8288 10.9261C37.0533 10.9261 37.2564 10.8949 37.4382 10.8324C37.62 10.767 37.7777 10.6719 37.9112 10.5469C38.0447 10.4219 38.1456 10.267 38.2138 10.0824L39.6541 10.2443C39.5632 10.625 39.3899 10.9574 39.1342 11.2415C38.8814 11.5227 38.5575 11.7415 38.1626 11.8977C37.7678 12.0511 37.3161 12.1278 36.8075 12.1278ZM44.2915 5.45455V6.64773H40.5288V5.45455H44.2915ZM41.4577 3.88636H43.0004V10.0312C43.0004 10.2386 43.0316 10.3977 43.0941 10.5085C43.1594 10.6165 43.2447 10.6903 43.3498 10.7301C43.4549 10.7699 43.5714 10.7898 43.6992 10.7898C43.7958 10.7898 43.8839 10.7827 43.9634 10.7685C44.0458 10.7543 44.1083 10.7415 44.1509 10.7301L44.4109 11.9361C44.3285 11.9645 44.2106 11.9957 44.0572 12.0298C43.9066 12.0639 43.7219 12.0838 43.5032 12.0895C43.1168 12.1009 42.7688 12.0426 42.4592 11.9148C42.1495 11.7841 41.9038 11.5824 41.7219 11.3097C41.543 11.0369 41.4549 10.696 41.4577 10.2869V3.88636ZM49.7536 9.24716V5.45455H51.2962V12H49.8004V10.8366H49.7322C49.5845 11.2031 49.3416 11.5028 49.0036 11.7358C48.6683 11.9687 48.255 12.0852 47.7635 12.0852C47.3345 12.0852 46.9553 11.9901 46.6257 11.7997C46.299 11.6065 46.0433 11.3267 45.8587 10.9602C45.674 10.5909 45.5817 10.1449 45.5817 9.62216V5.45455H47.1243V9.38352C47.1243 9.7983 47.2379 10.1278 47.4652 10.3722C47.6925 10.6165 47.9908 10.7386 48.3601 10.7386C48.5874 10.7386 48.8075 10.6832 49.0206 10.5724C49.2337 10.4616 49.4084 10.2969 49.5447 10.0781C49.6839 9.85653 49.7536 9.57955 49.7536 9.24716ZM52.8825 12V5.45455H54.3782V6.54545H54.4464C54.5657 6.16761 54.7702 5.87642 55.06 5.67188C55.3526 5.46449 55.6864 5.3608 56.0614 5.3608C56.1467 5.3608 56.2418 5.36506 56.3469 5.37358C56.4549 5.37926 56.5444 5.3892 56.6154 5.40341V6.82244C56.5501 6.79972 56.4464 6.77983 56.3043 6.76278C56.1651 6.7429 56.0302 6.73295 55.8995 6.73295C55.6183 6.73295 55.3654 6.79403 55.141 6.91619C54.9194 7.03551 54.7447 7.2017 54.6168 7.41477C54.489 7.62784 54.4251 7.87358 54.4251 8.15199V12H52.8825ZM59.1829 8.16477V12H57.6403V5.45455H59.1147V6.56676H59.1914C59.342 6.20028 59.582 5.90909 59.9116 5.69318C60.244 5.47727 60.6545 5.36932 61.1431 5.36932C61.5948 5.36932 61.9883 5.46591 62.3235 5.65909C62.6616 5.85227 62.9229 6.1321 63.1076 6.49858C63.2951 6.86506 63.3874 7.30966 63.3846 7.83239V12H61.842V8.07102C61.842 7.63352 61.7283 7.29119 61.5011 7.04403C61.2766 6.79687 60.9656 6.6733 60.5678 6.6733C60.2979 6.6733 60.0579 6.73295 59.8477 6.85227C59.6403 6.96875 59.4769 7.13778 59.3576 7.35938C59.2411 7.58097 59.1829 7.84943 59.1829 8.16477ZM70.1261 7.18466L68.7198 7.33807C68.68 7.19602 68.6104 7.0625 68.511 6.9375C68.4144 6.8125 68.2837 6.71165 68.119 6.63494C67.9542 6.55824 67.7525 6.51989 67.5138 6.51989C67.1928 6.51989 66.9229 6.58949 66.7042 6.72869C66.4883 6.8679 66.3817 7.0483 66.3846 7.26989C66.3817 7.46023 66.4513 7.61506 66.5934 7.73438C66.7383 7.85369 66.9769 7.9517 67.3093 8.02841L68.4258 8.26705C69.0451 8.40057 69.5053 8.61222 69.8065 8.90199C70.1104 9.19176 70.2638 9.57102 70.2667 10.0398C70.2638 10.4517 70.1431 10.8153 69.9045 11.1307C69.6687 11.4432 69.3406 11.6875 68.9201 11.8636C68.4996 12.0398 68.0167 12.1278 67.4712 12.1278C66.6701 12.1278 66.0252 11.9602 65.5366 11.625C65.0479 11.2869 64.7567 10.8168 64.663 10.2145L66.1673 10.0696C66.2354 10.3651 66.3803 10.5881 66.6019 10.7386C66.8235 10.8892 67.1119 10.9645 67.467 10.9645C67.8335 10.9645 68.1275 10.8892 68.3491 10.7386C68.5735 10.5881 68.6857 10.402 68.6857 10.1804C68.6857 9.9929 68.6133 9.83807 68.4684 9.71591C68.3263 9.59375 68.1048 9.5 67.8036 9.43466L66.6871 9.20028C66.0593 9.0696 65.5948 8.84943 65.2937 8.53977C64.9925 8.22727 64.8434 7.83239 64.8462 7.35511C64.8434 6.9517 64.9528 6.60227 65.1744 6.30682C65.3988 6.00852 65.7099 5.77841 66.1076 5.61648C66.5082 5.4517 66.9698 5.36932 67.4925 5.36932C68.2596 5.36932 68.8633 5.53267 69.3036 5.85938C69.7468 6.18608 70.021 6.62784 70.1261 7.18466Z" fill="black"/>
<path d="M2.69744 94L0.234375 85.2727H1.93466L3.5071 91.6861H3.58807L5.26705 85.2727H6.81392L8.49716 91.6903H8.57386L10.1463 85.2727H11.8466L9.38352 94H7.82386L6.0767 87.8764H6.00852L4.2571 94H2.69744ZM12.8746 94V87.4545H14.4173V94H12.8746ZM13.6502 86.5256C13.4059 86.5256 13.1957 86.4446 13.0195 86.2827C12.8434 86.1179 12.7553 85.9205 12.7553 85.6903C12.7553 85.4574 12.8434 85.2599 13.0195 85.098C13.1957 84.9332 13.4059 84.8509 13.6502 84.8509C13.8974 84.8509 14.1076 84.9332 14.2809 85.098C14.457 85.2599 14.5451 85.4574 14.5451 85.6903C14.5451 85.9205 14.457 86.1179 14.2809 86.2827C14.1076 86.4446 13.8974 86.5256 13.6502 86.5256ZM19.272 87.4545V88.6477H15.5092V87.4545H19.272ZM16.4382 85.8864H17.9808V92.0312C17.9808 92.2386 18.0121 92.3977 18.0746 92.5085C18.1399 92.6165 18.2251 92.6903 18.3303 92.7301C18.4354 92.7699 18.5518 92.7898 18.6797 92.7898C18.7763 92.7898 18.8643 92.7827 18.9439 92.7685C19.0263 92.7543 19.0888 92.7415 19.1314 92.7301L19.3913 93.9361C19.3089 93.9645 19.1911 93.9957 19.0376 94.0298C18.8871 94.0639 18.7024 94.0838 18.4837 94.0895C18.0973 94.1009 17.7493 94.0426 17.4396 93.9148C17.13 93.7841 16.8842 93.5824 16.7024 93.3097C16.5234 93.0369 16.4354 92.696 16.4382 92.2869V85.8864ZM22.2454 90.1648V94H20.7028V85.2727H22.2113V88.5668H22.288C22.4414 88.1974 22.6786 87.9062 22.9996 87.6932C23.3235 87.4773 23.7354 87.3693 24.2354 87.3693C24.69 87.3693 25.0863 87.4645 25.4244 87.6548C25.7624 87.8452 26.0238 88.1236 26.2085 88.4901C26.396 88.8565 26.4897 89.304 26.4897 89.8324V94H24.9471V90.071C24.9471 89.6307 24.8335 89.2884 24.6062 89.044C24.3817 88.7969 24.0664 88.6733 23.6602 88.6733C23.3874 88.6733 23.1431 88.733 22.9272 88.8523C22.7141 88.9687 22.5465 89.1378 22.4244 89.3594C22.305 89.581 22.2454 89.8494 22.2454 90.1648ZM28.0621 94V87.4545H29.6048V94H28.0621ZM28.8377 86.5256C28.5934 86.5256 28.3832 86.4446 28.207 86.2827C28.0309 86.1179 27.9428 85.9205 27.9428 85.6903C27.9428 85.4574 28.0309 85.2599 28.207 85.098C28.3832 84.9332 28.5934 84.8509 28.8377 84.8509C29.0849 84.8509 29.2951 84.9332 29.4684 85.098C29.6445 85.2599 29.7326 85.4574 29.7326 85.6903C29.7326 85.9205 29.6445 86.1179 29.4684 86.2827C29.2951 86.4446 29.0849 86.5256 28.8377 86.5256ZM32.7337 90.1648V94H31.1911V87.4545H32.6655V88.5668H32.7422C32.8928 88.2003 33.1328 87.9091 33.4624 87.6932C33.7947 87.4773 34.2053 87.3693 34.6939 87.3693C35.1456 87.3693 35.5391 87.4659 35.8743 87.6591C36.2124 87.8523 36.4737 88.1321 36.6584 88.4986C36.8459 88.8651 36.9382 89.3097 36.9354 89.8324V94H35.3928V90.071C35.3928 89.6335 35.2791 89.2912 35.0518 89.044C34.8274 88.7969 34.5163 88.6733 34.1186 88.6733C33.8487 88.6733 33.6087 88.733 33.3984 88.8523C33.1911 88.9687 33.0277 89.1378 32.9084 89.3594C32.7919 89.581 32.7337 89.8494 32.7337 90.1648ZM44.5952 94.1193C43.9815 94.1193 43.4361 94.0142 42.9588 93.804C42.4844 93.5937 42.1094 93.3011 41.8338 92.9261C41.5582 92.5511 41.4119 92.1179 41.3949 91.6264H42.9972C43.0114 91.8622 43.0895 92.0682 43.2315 92.2443C43.3736 92.4176 43.5625 92.5526 43.7983 92.6491C44.0341 92.7457 44.2983 92.794 44.5909 92.794C44.9034 92.794 45.1804 92.7401 45.4219 92.6321C45.6634 92.5213 45.8523 92.3679 45.9886 92.1719C46.125 91.9759 46.1918 91.75 46.1889 91.4943C46.1918 91.2301 46.1236 90.9972 45.9844 90.7955C45.8452 90.5937 45.6435 90.4361 45.3793 90.3224C45.1179 90.2088 44.8026 90.152 44.4332 90.152H43.6619V88.9332H44.4332C44.7372 88.9332 45.0028 88.8807 45.2301 88.7756C45.4602 88.6705 45.6406 88.5227 45.7713 88.3324C45.902 88.1392 45.9659 87.9162 45.9631 87.6634C45.9659 87.4162 45.9105 87.2017 45.7969 87.0199C45.6861 86.8352 45.5284 86.6918 45.3239 86.5895C45.1222 86.4872 44.8849 86.4361 44.6122 86.4361C44.3452 86.4361 44.098 86.4844 43.8707 86.581C43.6435 86.6776 43.4602 86.8153 43.321 86.9943C43.1818 87.1705 43.108 87.3807 43.0994 87.625H41.5781C41.5895 87.1364 41.7301 86.7074 42 86.3381C42.2727 85.9659 42.6364 85.6761 43.0909 85.4688C43.5455 85.2585 44.0554 85.1534 44.6207 85.1534C45.2031 85.1534 45.7088 85.2628 46.1378 85.4815C46.5696 85.6974 46.9034 85.9886 47.1392 86.3551C47.375 86.7216 47.4929 87.1264 47.4929 87.5696C47.4957 88.0611 47.3509 88.473 47.0582 88.8054C46.7685 89.1378 46.3878 89.3551 45.9162 89.4574V89.5256C46.5298 89.6108 47 89.8381 47.3267 90.2074C47.6563 90.5739 47.8196 91.0298 47.8168 91.5753C47.8168 92.0639 47.6776 92.5014 47.3991 92.8878C47.1236 93.2713 46.7429 93.5724 46.2571 93.7912C45.7741 94.0099 45.2202 94.1193 44.5952 94.1193ZM52.5053 94.1662C51.8036 94.1662 51.2013 93.9886 50.6985 93.6335C50.1985 93.2756 49.8136 92.7599 49.5437 92.0866C49.2766 91.4105 49.1431 90.5966 49.1431 89.6449C49.146 88.6932 49.2809 87.8835 49.5479 87.2159C49.8178 86.5455 50.2028 86.0341 50.7028 85.6818C51.2056 85.3295 51.8065 85.1534 52.5053 85.1534C53.2042 85.1534 53.805 85.3295 54.3079 85.6818C54.8107 86.0341 55.1957 86.5455 55.4627 87.2159C55.7326 87.8864 55.8675 88.696 55.8675 89.6449C55.8675 90.5994 55.7326 91.4148 55.4627 92.0909C55.1957 92.7642 54.8107 93.2784 54.3079 93.6335C53.8079 93.9886 53.207 94.1662 52.5053 94.1662ZM52.5053 92.8324C53.0508 92.8324 53.4812 92.5639 53.7965 92.027C54.1147 91.4872 54.2738 90.6932 54.2738 89.6449C54.2738 88.9517 54.2013 88.3693 54.0565 87.8977C53.9116 87.4261 53.707 87.071 53.4428 86.8324C53.1786 86.5909 52.8661 86.4702 52.5053 86.4702C51.9627 86.4702 51.5337 86.7401 51.2184 87.2798C50.9031 87.8168 50.744 88.6051 50.7411 89.6449C50.7383 90.3409 50.8079 90.9261 50.9499 91.4006C51.0948 91.875 51.2994 92.233 51.5636 92.4744C51.8278 92.7131 52.1417 92.8324 52.5053 92.8324ZM62.706 94.1151C62.1918 94.1151 61.7315 93.983 61.3253 93.7188C60.919 93.4545 60.598 93.071 60.3622 92.5682C60.1264 92.0653 60.0085 91.4545 60.0085 90.7358C60.0085 90.0085 60.1278 89.3949 60.3665 88.8949C60.608 88.392 60.9332 88.0128 61.3423 87.7571C61.7514 87.4986 62.2074 87.3693 62.7102 87.3693C63.0938 87.3693 63.4091 87.4347 63.6562 87.5653C63.9034 87.6932 64.0994 87.848 64.2443 88.0298C64.3892 88.2088 64.5014 88.3778 64.581 88.5369H64.6449V85.2727H66.1918V94H64.6747V92.9688H64.581C64.5014 93.1278 64.3864 93.2969 64.2358 93.4759C64.0852 93.652 63.8864 93.8026 63.6392 93.9276C63.392 94.0526 63.081 94.1151 62.706 94.1151ZM63.1364 92.8494C63.4631 92.8494 63.7415 92.7614 63.9716 92.5852C64.2017 92.4062 64.3764 92.1577 64.4957 91.8395C64.6151 91.5213 64.6747 91.1506 64.6747 90.7273C64.6747 90.304 64.6151 89.9361 64.4957 89.6236C64.3793 89.3111 64.206 89.0682 63.9759 88.8949C63.7486 88.7216 63.4688 88.6349 63.1364 88.6349C62.7926 88.6349 62.5057 88.7244 62.2756 88.9034C62.0455 89.0824 61.8722 89.3295 61.7557 89.6449C61.6392 89.9602 61.581 90.321 61.581 90.7273C61.581 91.1364 61.6392 91.5014 61.7557 91.8224C61.875 92.1406 62.0497 92.392 62.2798 92.5767C62.5128 92.7585 62.7983 92.8494 63.1364 92.8494ZM69.7191 94.1321C69.3043 94.1321 68.9308 94.0582 68.5984 93.9105C68.2688 93.7599 68.0075 93.5384 67.8143 93.2457C67.6239 92.9531 67.5288 92.5923 67.5288 92.1634C67.5288 91.794 67.5969 91.4886 67.7333 91.2472C67.8697 91.0057 68.0558 90.8125 68.2915 90.6676C68.5273 90.5227 68.793 90.4134 69.0884 90.3395C69.3867 90.2628 69.695 90.2074 70.0131 90.1733C70.3967 90.1335 70.7077 90.098 70.9464 90.0668C71.185 90.0327 71.3583 89.9815 71.4663 89.9134C71.5771 89.8423 71.6325 89.733 71.6325 89.5852V89.5597C71.6325 89.2386 71.5373 88.9901 71.3469 88.8139C71.1566 88.6378 70.8825 88.5497 70.5245 88.5497C70.1467 88.5497 69.8469 88.6321 69.6254 88.7969C69.4066 88.9616 69.2589 89.1562 69.1822 89.3807L67.7418 89.1761C67.8555 88.7784 68.043 88.446 68.3043 88.179C68.5657 87.9091 68.8853 87.7074 69.2631 87.5739C69.641 87.4375 70.0586 87.3693 70.516 87.3693C70.8313 87.3693 71.1452 87.4062 71.4577 87.4801C71.7702 87.554 72.0558 87.6761 72.3143 87.8466C72.5728 88.0142 72.7802 88.2429 72.9364 88.5327C73.0955 88.8224 73.1751 89.1847 73.1751 89.6193V94H71.6921V93.1009H71.641C71.5472 93.2827 71.4151 93.4531 71.2447 93.6122C71.0771 93.7685 70.8654 93.8949 70.6097 93.9915C70.3569 94.0852 70.06 94.1321 69.7191 94.1321ZM70.1197 92.9986C70.4293 92.9986 70.6978 92.9375 70.9251 92.8153C71.1523 92.6903 71.3271 92.5256 71.4492 92.321C71.5742 92.1165 71.6367 91.8935 71.6367 91.652V90.8807C71.5884 90.9205 71.506 90.9574 71.3896 90.9915C71.2759 91.0256 71.1481 91.0554 71.006 91.081C70.864 91.1065 70.7234 91.1293 70.5842 91.1491C70.445 91.169 70.3242 91.1861 70.2219 91.2003C69.9918 91.2315 69.7859 91.2827 69.604 91.3537C69.4222 91.4247 69.2788 91.5241 69.1737 91.652C69.0685 91.777 69.016 91.9389 69.016 92.1378C69.016 92.4219 69.1197 92.6364 69.3271 92.7812C69.5344 92.9261 69.7987 92.9986 70.1197 92.9986ZM75.4506 96.4545C75.2404 96.4545 75.0458 96.4375 74.8668 96.4034C74.6907 96.3722 74.5501 96.3352 74.445 96.2926L74.8029 95.0909C75.0273 95.1563 75.2276 95.1875 75.4038 95.1847C75.5799 95.1818 75.7347 95.1264 75.8683 95.0185C76.0046 94.9134 76.1197 94.7372 76.2134 94.4901L76.3455 94.1364L73.9719 87.4545H75.6083L77.1168 92.3977H77.185L78.6978 87.4545H80.3384L77.7177 94.7926C77.5955 95.1392 77.4336 95.4361 77.2319 95.6832C77.0302 95.9332 76.783 96.1236 76.4904 96.2543C76.2006 96.3878 75.854 96.4545 75.4506 96.4545ZM86.5792 89.1847L85.1729 89.3381C85.1332 89.196 85.0636 89.0625 84.9641 88.9375C84.8675 88.8125 84.7369 88.7116 84.5721 88.6349C84.4073 88.5582 84.2056 88.5199 83.967 88.5199C83.646 88.5199 83.3761 88.5895 83.1573 88.7287C82.9414 88.8679 82.8349 89.0483 82.8377 89.2699C82.8349 89.4602 82.9045 89.6151 83.0465 89.7344C83.1914 89.8537 83.43 89.9517 83.7624 90.0284L84.8789 90.267C85.4982 90.4006 85.9585 90.6122 86.2596 90.902C86.5636 91.1918 86.717 91.571 86.7198 92.0398C86.717 92.4517 86.5962 92.8153 86.3576 93.1307C86.1218 93.4432 85.7937 93.6875 85.3732 93.8636C84.9528 94.0398 84.4698 94.1278 83.9244 94.1278C83.1232 94.1278 82.4783 93.9602 81.9897 93.625C81.5011 93.2869 81.2099 92.8168 81.1161 92.2145L82.6204 92.0696C82.6886 92.3651 82.8335 92.5881 83.055 92.7386C83.2766 92.8892 83.565 92.9645 83.9201 92.9645C84.2866 92.9645 84.5806 92.8892 84.8022 92.7386C85.0266 92.5881 85.1388 92.402 85.1388 92.1804C85.1388 91.9929 85.0664 91.8381 84.9215 91.7159C84.7795 91.5937 84.5579 91.5 84.2567 91.4347L83.1403 91.2003C82.5124 91.0696 82.0479 90.8494 81.7468 90.5398C81.4457 90.2273 81.2965 89.8324 81.2994 89.3551C81.2965 88.9517 81.4059 88.6023 81.6275 88.3068C81.8519 88.0085 82.163 87.7784 82.5607 87.6165C82.9613 87.4517 83.4229 87.3693 83.9457 87.3693C84.7127 87.3693 85.3164 87.5327 85.7567 87.8594C86.1999 88.1861 86.4741 88.6278 86.5792 89.1847Z" fill="black"/>
<path d="M9 51.875L23.4178 68L62 25" stroke="#283BA2" stroke-linecap="round" stroke-linejoin="round"/>
</svg>
