<svg width="264" height="82" viewBox="0 0 264 82" fill="none" xmlns="http://www.w3.org/2000/svg">
<path d="M56.4839 11.4683C56.4839 11.8492 56.3521 12.0396 56.0884 12.0396C55.854 12.0396 55.6587 11.8052 55.5025 11.3365C55.356 10.858 55.0728 10.4088 54.6528 9.98883C54.2329 9.56891 53.73 9.21735 53.1441 8.93415C51.9234 8.33844 50.6099 8.04059 49.2036 8.04059C47.8071 8.04059 46.5962 8.23102 45.5708 8.61188C44.5552 8.98297 43.6812 9.52008 42.9487 10.2232C41.4253 11.7173 40.6636 13.7339 40.6636 16.273C40.6636 19.0855 41.523 21.4048 43.2417 23.231C44.9507 25.0474 47.1382 25.9556 49.8042 25.9556C52.773 25.9556 55.0679 24.5933 56.689 21.8687C56.7964 21.6929 56.9087 21.5953 57.0259 21.5757C57.1333 21.5757 57.2407 21.6929 57.3482 21.9273C57.4556 22.1617 57.5093 22.4254 57.5093 22.7183C57.5093 23.2066 57.0943 23.8414 56.2642 24.6226C55.4341 25.4039 54.4234 26.0338 53.2319 26.5123C52.0503 26.9908 50.6685 27.23 49.0864 27.23C47.5142 27.23 46.02 26.9761 44.604 26.4683C43.1978 25.9507 42.0015 25.2476 41.0152 24.3589C38.9448 22.5035 37.9097 20.1841 37.9097 17.4009C37.9097 14.2564 38.9546 11.7173 41.0444 9.78375C43.1343 7.8404 45.8833 6.86872 49.2915 6.86872C51.7525 6.86872 53.7886 7.19586 55.3999 7.85016C55.7124 7.98688 55.9175 8.11872 56.0151 8.24567C56.2105 8.51911 56.3228 8.92926 56.3521 9.47614C56.3911 10.0132 56.4155 10.3843 56.4253 10.5894C56.4644 11.0679 56.4839 11.3609 56.4839 11.4683ZM59.9556 27.0836C59.3013 27.0836 58.9741 26.9029 58.9741 26.5416C58.9741 26.2584 59.1548 26.1168 59.5161 26.1168L60.2485 26.19C60.4732 26.19 60.6587 26.1509 60.8052 26.0728C60.9517 25.9849 61.064 25.8043 61.1421 25.5308C61.2984 25.0328 61.3765 23.9293 61.3765 22.2203V17.8404C61.3765 16.8443 61.313 16.2242 61.186 15.98C61.0689 15.7261 60.9224 15.5552 60.7466 15.4673C60.5806 15.3697 60.3023 15.2916 59.9116 15.233C59.5308 15.1744 59.3403 15.023 59.3403 14.7789C59.3403 14.5543 59.5894 14.3931 60.0874 14.2955C61.2495 14.0513 62.0503 13.8072 62.4898 13.5631C63.0855 13.2213 63.4907 13.0504 63.7056 13.0504C63.9302 13.0504 64.0425 13.1627 64.0425 13.3873C64.0425 13.4947 64.0181 13.607 63.9693 13.7242C63.9302 13.8414 63.8862 13.983 63.8374 14.149C63.7593 14.481 63.7007 15.106 63.6616 16.024C64.5112 14.5982 65.5366 13.7095 66.7378 13.358C67.0894 13.2506 67.48 13.1968 67.9097 13.1968C68.3491 13.1968 68.7349 13.3531 69.0669 13.6656C69.4087 13.9781 69.5796 14.3101 69.5796 14.6617C69.5796 15.0132 69.5405 15.272 69.4624 15.4381C69.3843 15.6041 69.2866 15.7457 69.1694 15.8629C68.9155 16.1168 68.686 16.2437 68.481 16.2437C68.2857 16.2437 68.1343 16.1949 68.0269 16.0972C67.9194 15.9898 67.7974 15.7994 67.6607 15.5259C67.4165 15.0377 67.1431 14.7935 66.8403 14.7935C66.5376 14.7935 66.2495 14.8619 65.9761 14.9986C65.7026 15.1256 65.4292 15.3209 65.1558 15.5845C64.5601 16.1412 64.0571 16.898 63.647 17.855V22.2203C63.647 24.0757 63.6958 25.1695 63.7935 25.5015C63.9009 25.8238 64.0278 26.0191 64.1743 26.0875C64.3306 26.1461 64.5405 26.1754 64.8042 26.1754L66.1079 26.0582C66.3032 26.0582 66.4595 26.107 66.5767 26.2047C66.6939 26.2925 66.7525 26.4048 66.7525 26.5416C66.7525 26.9029 66.396 27.0836 65.6831 27.0836L62.5923 26.8638C62.0943 26.8638 61.6206 26.898 61.1714 26.9664C60.7319 27.0445 60.3267 27.0836 59.9556 27.0836ZM72.8316 25.2232C72.2651 24.5884 71.8257 23.8414 71.5132 22.982C71.2105 22.1226 71.0591 21.1705 71.0591 20.1256C71.0591 19.0709 71.2398 18.1041 71.6011 17.2252C71.9624 16.3463 72.4605 15.5943 73.0952 14.9693C74.4136 13.6705 76.0396 13.0211 77.9732 13.0211C79.5747 13.0211 80.8687 13.5484 81.855 14.6031C82.7925 15.6187 83.2612 16.8736 83.2612 18.3677C83.2612 18.856 83.1929 19.1929 83.0562 19.3785C82.9292 19.5543 82.7681 19.6617 82.5728 19.7007C82.3775 19.73 82.1089 19.7593 81.7671 19.7886C81.4253 19.8082 81.0103 19.8326 80.522 19.8619C80.0337 19.8912 79.4868 19.9205 78.8814 19.9498C78.2857 19.9791 77.6753 20.0132 77.0503 20.0523C75.6148 20.1402 74.4624 20.2281 73.5933 20.316C73.8081 22.9429 74.814 24.647 76.6109 25.4283C77.1968 25.6822 77.8218 25.8091 78.4859 25.8091C79.8921 25.8091 81.0054 25.399 81.8257 24.5787C82.1773 24.2271 82.4458 24.0513 82.6314 24.0513C82.9829 24.0513 83.1587 24.2613 83.1587 24.6812C83.1587 24.8961 83.0122 25.1548 82.7192 25.4576C82.4263 25.7603 82.0064 26.0728 81.4595 26.3951C80.4927 26.9517 79.3648 27.23 78.0757 27.23C76.7866 27.23 75.7319 27.0543 74.9116 26.7027C74.1011 26.3414 73.4077 25.8482 72.8316 25.2232ZM73.564 19.232C78.1441 18.9976 80.5562 18.7486 80.8003 18.4849C80.8882 18.3873 80.9321 18.0992 80.9321 17.6207C80.9321 17.1422 80.8394 16.6783 80.6538 16.2291C80.4683 15.7701 80.2192 15.3795 79.9067 15.0572C79.2622 14.4029 78.4614 14.0757 77.5044 14.0757C76.4204 14.0757 75.5073 14.5298 74.7651 15.4381C73.9839 16.3853 73.5835 17.65 73.564 19.232ZM98.8472 24.9009C99.1304 24.9009 99.272 25.0328 99.272 25.2964C99.272 25.5504 98.9888 25.7945 98.4224 26.0289C97.856 26.2632 97.4605 26.4781 97.2358 26.6734C97.0112 26.8589 96.8452 26.9957 96.7378 27.0836C96.6304 27.1812 96.5034 27.23 96.3569 27.23C96.064 27.23 95.8198 27.108 95.6245 26.8638C95.4292 26.6197 95.1655 26.0972 94.8335 25.2964C94.2769 25.9312 93.5982 26.4146 92.7974 26.7466C92.0064 27.0689 91.2202 27.23 90.439 27.23C88.9644 27.23 87.8218 26.8541 87.0112 26.1021C86.2007 25.3502 85.7954 24.3199 85.7954 23.0113C85.7954 21.7027 86.4058 20.6431 87.6265 19.8326C88.8569 19.0123 90.4243 18.6021 92.3286 18.6021C92.895 18.6021 93.6421 18.6998 94.5698 18.8951V17.7525C94.5698 15.2427 93.5103 13.9879 91.3911 13.9879C90.2681 13.9879 89.4429 14.5054 88.9155 15.5406C88.4566 16.4683 88.0073 16.9322 87.5679 16.9322C87.2456 16.9322 86.9624 16.8394 86.7183 16.6539C86.4839 16.4683 86.3667 16.2339 86.3667 15.9507C86.3667 15.6675 86.5132 15.355 86.8062 15.0132C87.0991 14.6617 87.4898 14.3443 87.978 14.0611C89.1304 13.3873 90.395 13.0504 91.772 13.0504C94.2134 13.0504 95.7905 13.8463 96.5034 15.4381C96.7671 16.0045 96.8989 16.6978 96.8989 17.5181V23.3629C96.8989 24.1148 96.9722 24.5982 97.1187 24.813C97.2651 25.0279 97.4702 25.1353 97.7339 25.1353C97.9976 25.1353 98.2124 25.0963 98.3784 25.0181C98.5444 24.94 98.7007 24.9009 98.8472 24.9009ZM94.5698 20.2574C93.8667 19.857 92.978 19.6568 91.9038 19.6568C90.8296 19.6568 89.9653 19.9254 89.311 20.4625C88.6665 20.9996 88.3442 21.7222 88.3442 22.6304C88.3442 23.5289 88.5933 24.2808 89.0913 24.8863C89.5894 25.482 90.229 25.7798 91.0103 25.7798C92.6802 25.7798 93.8814 25.233 94.6138 24.1392C94.5845 23.8658 94.5698 23.563 94.5698 23.231V20.2574ZM108.867 14.5006C108.867 14.7642 108.71 14.8961 108.398 14.8961L104.238 14.8521V22.9673C104.238 24.481 104.604 25.3795 105.336 25.6627C105.561 25.7505 105.825 25.7945 106.127 25.7945C106.43 25.7945 106.704 25.7457 106.948 25.648C107.202 25.5406 107.426 25.4283 107.622 25.3111C107.817 25.1939 107.983 25.0865 108.12 24.9888C108.256 24.8814 108.383 24.8277 108.5 24.8277C108.627 24.8277 108.74 24.8961 108.837 25.0328C108.935 25.1695 108.984 25.3062 108.984 25.4429C108.984 25.7847 108.549 26.1949 107.68 26.6734C107.016 27.0445 106.181 27.23 105.175 27.23C104.169 27.23 103.383 26.8736 102.817 26.1607C102.25 25.438 101.967 24.442 101.967 23.1724V14.8082H101.074C100.371 14.8082 100.019 14.6275 100.019 14.2662C100.019 14.0025 100.214 13.8218 100.605 13.7242C100.996 13.6265 101.333 13.4556 101.616 13.2115C101.899 12.9576 102.128 12.6744 102.304 12.3619C102.49 12.0396 102.636 11.7076 102.744 11.3658C102.851 11.024 102.949 10.7115 103.037 10.4283C103.251 9.78375 103.496 9.46149 103.769 9.46149C104.082 9.46149 104.238 9.73981 104.238 10.2964V13.607L108.354 13.5191C108.559 13.5191 108.72 13.7632 108.837 14.2515C108.857 14.3589 108.867 14.442 108.867 14.5006ZM115.502 8.68512C115.502 9.09528 115.361 9.44684 115.078 9.73981C114.804 10.023 114.428 10.1646 113.95 10.1646C113.481 10.1646 113.115 10.0279 112.851 9.75446C112.597 9.47125 112.47 9.16852 112.47 8.84625C112.47 8.51422 112.514 8.26032 112.602 8.08454C112.69 7.90875 112.802 7.75739 112.939 7.63043C113.242 7.36676 113.608 7.23493 114.038 7.23493C114.477 7.23493 114.829 7.37165 115.092 7.64508C115.366 7.91852 115.502 8.2652 115.502 8.68512ZM111.474 27.0836C110.82 27.0836 110.493 26.9029 110.493 26.5416C110.493 26.2584 110.673 26.1168 111.035 26.1168L111.767 26.19C111.992 26.19 112.177 26.1509 112.324 26.0728C112.47 25.9849 112.587 25.8043 112.675 25.5308C112.832 25.0425 112.91 23.939 112.91 22.2203V17.8111C112.91 16.8443 112.841 16.2339 112.705 15.98C112.578 15.7164 112.431 15.5406 112.265 15.4527C112.099 15.355 111.821 15.2818 111.43 15.233C111.049 15.1744 110.859 15.0181 110.859 14.7642C110.859 14.5396 111.113 14.3736 111.621 14.2662C112.783 14.0318 113.584 13.7925 114.023 13.5484C114.628 13.2066 115.043 13.0357 115.268 13.0357C115.493 13.0357 115.605 13.148 115.605 13.3726C115.605 13.48 115.585 13.5923 115.546 13.7095C115.322 14.3834 115.209 15.7115 115.209 17.6939V22.2203C115.209 23.939 115.268 24.9888 115.385 25.3697C115.512 25.7505 115.649 25.9849 115.795 26.0728C115.942 26.1509 116.127 26.19 116.352 26.19L117.084 26.1168C117.446 26.1168 117.626 26.2584 117.626 26.5416C117.626 26.9029 117.299 27.0836 116.645 27.0836C116.274 27.0836 115.874 27.0445 115.444 26.9664C115.024 26.898 114.57 26.8638 114.082 26.8638C113.593 26.8638 113.129 26.898 112.69 26.9664C112.25 27.0445 111.845 27.0836 111.474 27.0836ZM132.714 13.1675C133.115 13.1675 133.315 13.2896 133.315 13.5338C133.315 13.7388 133.129 13.9097 132.758 14.0464C132.387 14.1734 132.109 14.2955 131.923 14.4127C131.748 14.5201 131.572 14.6812 131.396 14.8961C131.103 15.2672 130.717 15.9898 130.239 17.064L125.8 26.8052C125.664 27.0884 125.532 27.23 125.405 27.23C125.209 27.23 125.053 27.0884 124.936 26.8052L120.014 15.9214C119.721 15.2964 119.501 14.8863 119.355 14.691C119.101 14.3882 118.759 14.1832 118.33 14.0757C117.9 13.9683 117.685 13.7828 117.685 13.5191C117.685 13.4312 117.739 13.3531 117.846 13.2847C117.944 13.2066 118.09 13.1675 118.286 13.1675L120.556 13.3287C121.171 13.3287 121.635 13.3091 121.948 13.2701C122.495 13.2017 122.944 13.1675 123.295 13.1675C123.999 13.1675 124.35 13.3091 124.35 13.5923C124.35 13.8853 123.94 14.0513 123.12 14.0904C122.514 14.1197 122.211 14.3199 122.211 14.691C122.211 15.0132 122.319 15.399 122.534 15.8482L126.02 23.524L129.052 16.4927C129.423 15.6236 129.609 15.0523 129.609 14.7789C129.609 14.5054 129.541 14.3297 129.404 14.2515C129.267 14.1734 129.003 14.1197 128.613 14.0904C128.232 14.0513 127.954 13.9976 127.778 13.9293C127.612 13.8609 127.529 13.7486 127.529 13.5923C127.529 13.3091 127.861 13.1675 128.525 13.1675L131.015 13.314L132.714 13.1675ZM135.673 25.2232C135.107 24.5884 134.667 23.8414 134.355 22.982C134.052 22.1226 133.901 21.1705 133.901 20.1256C133.901 19.0709 134.082 18.1041 134.443 17.2252C134.804 16.3463 135.302 15.5943 135.937 14.9693C137.255 13.6705 138.881 13.0211 140.815 13.0211C142.417 13.0211 143.71 13.5484 144.697 14.6031C145.634 15.6187 146.103 16.8736 146.103 18.3677C146.103 18.856 146.035 19.1929 145.898 19.3785C145.771 19.5543 145.61 19.6617 145.415 19.7007C145.219 19.73 144.951 19.7593 144.609 19.7886C144.267 19.8082 143.852 19.8326 143.364 19.8619C142.875 19.8912 142.329 19.9205 141.723 19.9498C141.127 19.9791 140.517 20.0132 139.892 20.0523C138.457 20.1402 137.304 20.2281 136.435 20.316C136.65 22.9429 137.656 24.647 139.453 25.4283C140.039 25.6822 140.664 25.8091 141.328 25.8091C142.734 25.8091 143.847 25.399 144.667 24.5787C145.019 24.2271 145.288 24.0513 145.473 24.0513C145.825 24.0513 146 24.2613 146 24.6812C146 24.8961 145.854 25.1548 145.561 25.4576C145.268 25.7603 144.848 26.0728 144.301 26.3951C143.334 26.9517 142.207 27.23 140.917 27.23C139.628 27.23 138.574 27.0543 137.753 26.7027C136.943 26.3414 136.25 25.8482 135.673 25.2232ZM136.406 19.232C140.986 18.9976 143.398 18.7486 143.642 18.4849C143.73 18.3873 143.774 18.0992 143.774 17.6207C143.774 17.1422 143.681 16.6783 143.496 16.2291C143.31 15.7701 143.061 15.3795 142.749 15.0572C142.104 14.4029 141.303 14.0757 140.346 14.0757C139.262 14.0757 138.349 14.5298 137.607 15.4381C136.826 16.3853 136.425 17.65 136.406 19.232ZM156.811 27.0836C156.176 27.0836 155.859 26.9029 155.859 26.5416C155.859 26.2584 156.035 26.1168 156.386 26.1168L157.104 26.19C157.69 26.19 158.085 25.8629 158.291 25.2086C158.457 24.6519 158.54 23.6558 158.54 22.2203V11.8785C158.54 10.4429 158.471 9.50543 158.334 9.06598C158.198 8.61676 158.032 8.31403 157.836 8.15778C157.651 7.99176 157.407 7.90875 157.104 7.90875L156.386 7.96735C156.035 7.96735 155.859 7.82575 155.859 7.54254C155.859 7.18122 156.127 7.00055 156.665 7.00055C157.202 7.00055 157.709 7.03961 158.188 7.11774C158.676 7.19586 159.213 7.23493 159.799 7.23493C160.395 7.23493 160.917 7.19586 161.367 7.11774C161.826 7.03961 162.226 7.00055 162.568 7.00055C164.658 7.00055 166.347 7.63532 167.636 8.90485C168.808 10.067 169.394 11.4683 169.394 13.1089C169.394 14.6226 168.808 15.941 167.636 17.064C166.484 18.1578 165.166 18.7047 163.681 18.7047C162.539 18.7047 161.757 18.48 161.337 18.0308C161.21 17.8941 161.147 17.7476 161.147 17.5914C161.147 17.4254 161.191 17.3033 161.279 17.2252C161.376 17.1373 161.494 17.0933 161.63 17.0933C161.767 17.0933 161.958 17.1861 162.202 17.3716C162.583 17.6451 163.056 17.7818 163.623 17.7818C164.189 17.7818 164.667 17.6744 165.058 17.4595C165.458 17.2349 165.795 16.9224 166.069 16.522C166.635 15.692 166.918 14.5738 166.918 13.1675C166.918 11.5855 166.479 10.3257 165.6 9.38825C164.75 8.48004 163.647 8.02594 162.29 8.02594C161.792 8.02594 161.425 8.0943 161.191 8.23102C160.957 8.36774 160.839 8.60211 160.839 8.93415V22.2203C160.839 23.6949 160.903 24.647 161.03 25.0767C161.167 25.4966 161.328 25.7896 161.513 25.9556C161.708 26.1119 161.962 26.19 162.275 26.19L162.978 26.1168C163.33 26.1168 163.505 26.2584 163.505 26.5416C163.505 26.9029 163.193 27.0836 162.568 27.0836C162.246 27.0836 161.904 27.0543 161.542 26.9957C160.371 26.8101 159.365 26.7759 158.525 26.8931C157.695 27.0201 157.124 27.0836 156.811 27.0836ZM185.097 24.9009C185.38 24.9009 185.522 25.0328 185.522 25.2964C185.522 25.5504 185.239 25.7945 184.672 26.0289C184.106 26.2632 183.71 26.4781 183.486 26.6734C183.261 26.8589 183.095 26.9957 182.988 27.0836C182.88 27.1812 182.753 27.23 182.607 27.23C182.314 27.23 182.07 27.108 181.875 26.8638C181.679 26.6197 181.416 26.0972 181.083 25.2964C180.527 25.9312 179.848 26.4146 179.047 26.7466C178.256 27.0689 177.47 27.23 176.689 27.23C175.214 27.23 174.072 26.8541 173.261 26.1021C172.451 25.3502 172.045 24.3199 172.045 23.0113C172.045 21.7027 172.656 20.6431 173.876 19.8326C175.107 19.0123 176.674 18.6021 178.579 18.6021C179.145 18.6021 179.892 18.6998 180.82 18.8951V17.7525C180.82 15.2427 179.76 13.9879 177.641 13.9879C176.518 13.9879 175.693 14.5054 175.166 15.5406C174.707 16.4683 174.257 16.9322 173.818 16.9322C173.496 16.9322 173.212 16.8394 172.968 16.6539C172.734 16.4683 172.617 16.2339 172.617 15.9507C172.617 15.6675 172.763 15.355 173.056 15.0132C173.349 14.6617 173.74 14.3443 174.228 14.0611C175.38 13.3873 176.645 13.0504 178.022 13.0504C180.463 13.0504 182.041 13.8463 182.753 15.4381C183.017 16.0045 183.149 16.6978 183.149 17.5181V23.3629C183.149 24.1148 183.222 24.5982 183.369 24.813C183.515 25.0279 183.72 25.1353 183.984 25.1353C184.248 25.1353 184.462 25.0963 184.628 25.0181C184.794 24.94 184.951 24.9009 185.097 24.9009ZM180.82 20.2574C180.117 19.857 179.228 19.6568 178.154 19.6568C177.08 19.6568 176.215 19.9254 175.561 20.4625C174.917 20.9996 174.594 21.7222 174.594 22.6304C174.594 23.5289 174.843 24.2808 175.341 24.8863C175.839 25.482 176.479 25.7798 177.26 25.7798C178.93 25.7798 180.131 25.233 180.864 24.1392C180.834 23.8658 180.82 23.563 180.82 23.231V20.2574ZM186.987 32.0054L188.217 32.108C188.344 32.108 188.447 32.0787 188.525 32.0201C188.603 31.9615 188.667 31.8248 188.715 31.6099C188.803 31.2193 188.847 30.3599 188.847 29.0318V17.8257C188.847 16.9078 188.774 16.3121 188.627 16.0386C188.481 15.7554 188.325 15.565 188.159 15.4673C187.993 15.3697 187.724 15.2916 187.353 15.233C186.992 15.1744 186.811 15.023 186.811 14.7789C186.811 14.5543 187.06 14.3931 187.558 14.2955C188.73 14.0513 189.536 13.8023 189.975 13.5484C190.571 13.2164 190.971 13.0504 191.176 13.0504C191.401 13.0504 191.513 13.1627 191.513 13.3873C191.513 13.4947 191.489 13.607 191.44 13.7242C191.401 13.8414 191.357 13.9781 191.308 14.1343C191.24 14.3882 191.186 14.8716 191.147 15.5845C192.338 13.8951 193.842 13.0504 195.659 13.0504C197.504 13.0504 198.974 13.7095 200.068 15.0279C201.123 16.3072 201.65 17.9673 201.65 20.0084C201.65 22.0103 200.996 23.7095 199.687 25.106C198.369 26.522 196.738 27.23 194.794 27.23C193.388 27.23 192.163 26.8589 191.118 26.1168V29.0318C191.118 30.8775 191.196 31.8736 191.352 32.0201C191.42 32.0787 191.508 32.108 191.616 32.108L193.579 31.9468C193.774 31.9468 193.93 32.0054 194.047 32.1226C194.165 32.2496 194.223 32.3814 194.223 32.5181C194.223 32.938 193.867 33.148 193.154 33.148L190.063 32.9283C189.565 32.9283 189.091 32.9625 188.642 33.0308C188.203 33.1089 187.797 33.148 187.426 33.148C187.055 33.148 186.796 33.0797 186.65 32.9429C186.513 32.816 186.445 32.6793 186.445 32.5328C186.445 32.3863 186.494 32.2593 186.591 32.1519C186.689 32.0543 186.821 32.0054 186.987 32.0054ZM191.118 23.6265C191.694 24.8179 192.646 25.5992 193.974 25.9703C194.394 26.0875 194.843 26.1461 195.322 26.1461C195.8 26.1461 196.279 26.0435 196.757 25.8384C197.246 25.6236 197.67 25.2964 198.032 24.857C198.823 23.8902 199.218 22.5425 199.218 20.814C199.218 18.8902 198.803 17.3521 197.973 16.1998C197.192 15.106 196.21 14.5591 195.029 14.5591C193.818 14.5591 192.753 15.0865 191.835 16.1412C191.552 16.4732 191.313 16.8443 191.118 17.2545V23.6265ZM205.81 25.2232C205.244 24.5884 204.804 23.8414 204.492 22.982C204.189 22.1226 204.038 21.1705 204.038 20.1256C204.038 19.0709 204.218 18.1041 204.58 17.2252C204.941 16.3463 205.439 15.5943 206.074 14.9693C207.392 13.6705 209.018 13.0211 210.952 13.0211C212.553 13.0211 213.847 13.5484 214.833 14.6031C215.771 15.6187 216.24 16.8736 216.24 18.3677C216.24 18.856 216.171 19.1929 216.035 19.3785C215.908 19.5543 215.747 19.6617 215.551 19.7007C215.356 19.73 215.087 19.7593 214.746 19.7886C214.404 19.8082 213.989 19.8326 213.5 19.8619C213.012 19.8912 212.465 19.9205 211.86 19.9498C211.264 19.9791 210.654 20.0132 210.029 20.0523C208.593 20.1402 207.441 20.2281 206.572 20.316C206.787 22.9429 207.792 24.647 209.589 25.4283C210.175 25.6822 210.8 25.8091 211.464 25.8091C212.871 25.8091 213.984 25.399 214.804 24.5787C215.156 24.2271 215.424 24.0513 215.61 24.0513C215.961 24.0513 216.137 24.2613 216.137 24.6812C216.137 24.8961 215.991 25.1548 215.698 25.4576C215.405 25.7603 214.985 26.0728 214.438 26.3951C213.471 26.9517 212.343 27.23 211.054 27.23C209.765 27.23 208.71 27.0543 207.89 26.7027C207.08 26.3414 206.386 25.8482 205.81 25.2232ZM206.542 19.232C211.123 18.9976 213.535 18.7486 213.779 18.4849C213.867 18.3873 213.911 18.0992 213.911 17.6207C213.911 17.1422 213.818 16.6783 213.632 16.2291C213.447 15.7701 213.198 15.3795 212.885 15.0572C212.241 14.4029 211.44 14.0757 210.483 14.0757C209.399 14.0757 208.486 14.5298 207.744 15.4381C206.962 16.3853 206.562 17.65 206.542 19.232ZM219.008 27.0836C218.354 27.0836 218.027 26.9029 218.027 26.5416C218.027 26.2584 218.208 26.1168 218.569 26.1168L219.301 26.19C219.526 26.19 219.711 26.1509 219.858 26.0728C220.004 25.9849 220.117 25.8043 220.195 25.5308C220.351 25.0328 220.429 23.9293 220.429 22.2203V17.8404C220.429 16.8443 220.366 16.2242 220.239 15.98C220.122 15.7261 219.975 15.5552 219.799 15.4673C219.633 15.3697 219.355 15.2916 218.964 15.233C218.583 15.1744 218.393 15.023 218.393 14.7789C218.393 14.5543 218.642 14.3931 219.14 14.2955C220.302 14.0513 221.103 13.8072 221.542 13.5631C222.138 13.2213 222.543 13.0504 222.758 13.0504C222.983 13.0504 223.095 13.1627 223.095 13.3873C223.095 13.4947 223.071 13.607 223.022 13.7242C222.983 13.8414 222.939 13.983 222.89 14.149C222.812 14.481 222.753 15.106 222.714 16.024C223.564 14.5982 224.589 13.7095 225.791 13.358C226.142 13.2506 226.533 13.1968 226.962 13.1968C227.402 13.1968 227.788 13.3531 228.12 13.6656C228.461 13.9781 228.632 14.3101 228.632 14.6617C228.632 15.0132 228.593 15.272 228.515 15.4381C228.437 15.6041 228.339 15.7457 228.222 15.8629C227.968 16.1168 227.739 16.2437 227.534 16.2437C227.338 16.2437 227.187 16.1949 227.08 16.0972C226.972 15.9898 226.85 15.7994 226.713 15.5259C226.469 15.0377 226.196 14.7935 225.893 14.7935C225.59 14.7935 225.302 14.8619 225.029 14.9986C224.755 15.1256 224.482 15.3209 224.208 15.5845C223.613 16.1412 223.11 16.898 222.7 17.855V22.2203C222.7 24.0757 222.749 25.1695 222.846 25.5015C222.954 25.8238 223.081 26.0191 223.227 26.0875C223.383 26.1461 223.593 26.1754 223.857 26.1754L225.161 26.0582C225.356 26.0582 225.512 26.107 225.629 26.2047C225.747 26.2925 225.805 26.4048 225.805 26.5416C225.805 26.9029 225.449 27.0836 224.736 27.0836L221.645 26.8638C221.147 26.8638 220.673 26.898 220.224 26.9664C219.785 27.0445 219.379 27.0836 219.008 27.0836Z" fill="black"/>
<path d="M191.453 58.1048C191.618 58.2877 192.059 58.251 192.261 58.2598C193.649 58.3205 195.059 58.3194 196.433 58.0888C201.009 57.3206 205.491 56.3922 209.784 54.5742C216.749 51.6244 223.095 47.0612 228.452 41.7466C230.841 39.3759 232.902 36.7017 235.008 34.0844C236.197 32.6071 237.25 31.0393 238.208 29.4067" stroke="black" stroke-width="1.125" stroke-linecap="round"/>
<path d="M238.222 29.3263C238.288 29.2788 238.343 29.2447 238.425 29.2222C238.941 29.0813 239.453 29.0223 239.931 28.7805C240.73 28.3758 241.501 27.9214 242.287 27.4894C244.097 26.4935 245.196 24.7517 245.681 22.7769C245.993 21.5037 246.019 20.1812 246.037 18.8752C246.052 17.8091 246.139 16.7388 246.29 15.6831C246.399 14.9188 246.505 14.1552 246.795 13.4351C246.862 13.2689 246.889 13.0788 246.973 12.92C247.016 12.8386 246.928 12.9469 246.912 12.9666C246.747 13.1739 246.601 13.397 246.433 13.6019C246.231 13.8485 245.981 14.0503 245.741 14.2579C245.04 14.8638 244.217 15.2623 243.382 15.6513C242.692 15.9729 242.061 16.4431 241.449 16.8902C241.068 17.1689 240.734 17.4977 240.409 17.838C239.986 18.2792 239.553 18.7329 239.228 19.2524C238.688 20.1169 238.293 21.1612 238.058 22.1494C237.795 23.2572 237.706 24.441 237.704 25.5784C237.703 26.5343 237.765 27.4844 237.867 28.4349C237.911 28.8481 237.918 29.2638 237.96 29.6752" stroke="black" stroke-width="1.125" stroke-linecap="round"/>
<path d="M228.881 41.2389C228.961 41.3502 229.051 41.415 229.157 41.506C229.933 42.1687 230.73 42.7504 231.643 43.2092C232.442 43.6104 233.394 43.8417 234.281 43.9414C235.182 44.0428 236.075 44.0961 236.957 43.8476C239.053 43.2576 240.75 41.7714 242.559 40.6359C243.586 39.9915 244.742 39.5249 245.881 39.1174C246.355 38.9477 246.832 38.7667 247.313 38.6178C247.586 38.5335 246.95 38.5053 246.875 38.4929C246.12 38.3683 245.352 38.3277 244.599 38.1812C242.498 37.7716 240.455 37.0019 238.283 37.1283C237.776 37.1578 237.272 37.2593 236.768 37.3249C236.261 37.391 235.753 37.5068 235.266 37.6638C234.303 37.9741 233.422 38.467 232.529 38.9365C231.263 39.6022 230.23 40.5932 229.006 41.3188" stroke="black" stroke-width="1.125" stroke-linecap="round"/>
<path d="M219.927 48.3368C220.276 48.0868 220.543 47.7271 220.808 47.3958C221.559 46.4562 222.235 45.4457 222.594 44.2891C222.966 43.0878 223.101 41.8339 223.001 40.579C222.808 38.136 221.537 36.0288 220.813 33.7356C220.463 32.6268 220.326 31.5172 220.252 30.3621C220.234 30.072 220.239 30.0364 220.045 30.2468C219.292 31.0643 218.435 31.8312 217.753 32.7081C217.3 33.2906 216.838 33.9049 216.523 34.5741C216.084 35.5041 215.822 36.5448 215.693 37.5617C215.416 39.7373 215.74 41.9909 216.766 43.9374C217.602 45.5231 218.666 46.9695 219.486 48.5661" stroke="black" stroke-width="1.125" stroke-linecap="round"/>
<path d="M210.902 54.3539C210.857 54.3958 210.876 54.5123 210.893 54.562C211.125 55.2403 211.659 55.8348 212.09 56.3935C212.607 57.064 213.103 57.7515 213.636 58.4102C214.304 59.2366 215.169 59.9488 216.055 60.5283C216.909 61.0866 217.743 61.4875 218.748 61.698C219.918 61.9429 221.099 61.7778 222.249 61.5281C223.262 61.3082 224.251 61.0986 225.282 60.9569C226.06 60.85 226.847 60.7051 227.635 60.7573C228.018 60.7827 228.46 60.7712 228.801 60.9731C229.156 61.1831 228.583 60.9275 228.49 60.8838C227.733 60.5251 227.042 60.1116 226.407 59.5641C224.935 58.295 223.677 56.7286 221.955 55.7755C220.127 54.7637 218.024 54.2697 215.946 54.1453C214.449 54.0557 212.995 54.2549 211.518 54.4556" stroke="black" stroke-width="1.125" stroke-linecap="round"/>
<path d="M200.008 57.0662C200.499 56.7143 201.028 56.425 201.539 56.1078C203.231 55.0591 203.924 53.2042 204.183 51.3086C204.773 47.0046 202.879 42.8284 203.622 38.5229C203.649 38.3673 203.734 38.0182 203.566 38.4066C203.251 39.1356 202.961 39.8486 202.559 40.5391C202.052 41.4099 201.311 42.0668 200.653 42.819C200.304 43.2188 199.965 43.6134 199.676 44.0603C199.003 45.0994 198.641 46.3494 198.265 47.5191C197.572 49.672 197.496 51.9433 198.232 54.0948C198.472 54.7962 198.793 55.4498 199.085 56.1283C199.249 56.5105 199.409 56.9306 199.653 57.2706" stroke="black" stroke-width="1.125" stroke-linecap="round"/>
<path d="M238.345 28.1219C238.604 27.9366 238.893 27.7921 239.153 27.605C240.235 26.8239 241.195 25.8233 241.993 24.7546C242.257 24.4011 242.47 24.0109 242.678 23.6232C243.046 22.9385 243.376 22.238 243.612 21.496C244.004 20.2632 244.114 18.9917 244.077 17.7057" stroke="black" stroke-width="0.75" stroke-linecap="round"/>
<path d="M229.467 41.3457C229.812 41.0985 230.218 40.9208 230.602 40.7459C231.004 40.5629 231.424 40.4359 231.841 40.2949C232.373 40.1154 232.903 39.9336 233.446 39.7918C234.695 39.466 236 39.2818 237.281 39.1358C238.087 39.0439 238.864 39.1424 239.664 39.2485" stroke="black" stroke-width="0.75" stroke-linecap="round"/>
<path d="M219.348 48.0679C220.087 46.5571 220.087 44.7409 220.081 43.1041C220.072 40.8841 219.42 38.7046 219.055 36.5247" stroke="black" stroke-width="0.75" stroke-linecap="round"/>
<path d="M211.197 54.5301C211.286 54.4821 211.554 54.7588 211.592 54.7888C212.228 55.291 212.938 55.7614 213.661 56.1247C214.729 56.6609 215.944 56.8568 217.087 57.1729C217.743 57.3545 218.419 57.5207 219.035 57.8185C219.698 58.1396 220.253 58.5477 220.817 59.0158" stroke="black" stroke-width="0.75" stroke-linecap="round"/>
<path d="M199.233 56.8214C199.265 56.8039 199.282 56.8254 199.317 56.7943C199.88 56.299 200.176 55.6349 200.362 54.926C200.502 54.3901 200.563 53.9224 200.548 53.3765C200.535 52.8827 200.516 52.3891 200.502 51.8954C200.471 50.7184 200.47 49.5613 200.748 48.4087C200.875 47.88 201.095 47.3567 201.322 46.8627" stroke="black" stroke-width="0.75" stroke-linecap="round"/>
<path d="M73.1392 58.1048C72.9746 58.2877 72.5329 58.251 72.331 58.2598C70.9429 58.3205 69.5331 58.3194 68.1593 58.0888C63.5832 57.3206 59.1014 56.3922 54.8086 54.5742C47.8436 51.6244 41.4973 47.0612 36.1408 41.7466C33.7515 39.3759 31.6908 36.7017 29.5844 34.0844C28.3955 32.6071 27.342 31.0393 26.384 29.4067" stroke="black" stroke-width="1.125" stroke-linecap="round"/>
<path d="M26.3704 29.3263C26.3042 29.2788 26.2491 29.2447 26.1668 29.2222C25.6516 29.0813 25.1397 29.0223 24.6618 28.7805C23.8621 28.3758 23.0912 27.9214 22.3057 27.4894C20.4948 26.4935 19.3961 24.7517 18.9114 22.7769C18.5989 21.5037 18.5737 20.1812 18.5553 18.8752C18.5403 17.8091 18.4535 16.7388 18.3024 15.6831C18.1929 14.9188 18.0876 14.1552 17.7974 13.4351C17.7304 13.2689 17.7029 13.0788 17.6192 12.92C17.5763 12.8386 17.6643 12.9469 17.6801 12.9666C17.8454 13.1739 17.9914 13.397 18.1595 13.6019C18.3617 13.8485 18.6111 14.0503 18.8513 14.2579C19.5526 14.8638 20.3753 15.2623 21.2103 15.6513C21.9007 15.9729 22.5313 16.4431 23.1431 16.8902C23.5246 17.1689 23.8579 17.4977 24.1837 17.838C24.6061 18.2792 25.0396 18.7329 25.364 19.2524C25.9039 20.1169 26.2997 21.1612 26.5344 22.1494C26.7974 23.2572 26.8867 24.441 26.8883 25.5784C26.8896 26.5343 26.827 27.4844 26.7252 28.4349C26.681 28.8481 26.6743 29.2638 26.6319 29.6752" stroke="black" stroke-width="1.125" stroke-linecap="round"/>
<path d="M35.7112 41.2389C35.6314 41.3502 35.5416 41.415 35.435 41.506C34.6593 42.1687 33.8621 42.7504 32.9489 43.2092C32.1502 43.6104 31.1983 43.8417 30.3113 43.9414C29.4102 44.0428 28.5176 44.0961 27.6352 43.8476C25.5394 43.2576 23.8428 41.7714 22.033 40.6359C21.0061 39.9915 19.8504 39.5249 18.7116 39.1174C18.2373 38.9477 17.7602 38.7667 17.2791 38.6178C17.0067 38.5335 17.6421 38.5053 17.717 38.4929C18.4726 38.3683 19.2407 38.3277 19.9928 38.1812C22.0946 37.7716 24.1374 37.0019 26.3097 37.1283C26.8165 37.1578 27.3206 37.2593 27.8238 37.3249C28.3312 37.391 28.8392 37.5068 29.3263 37.6638C30.2892 37.9741 31.1706 38.467 32.0631 38.9365C33.3288 39.6022 34.3625 40.5932 35.5862 41.3188" stroke="black" stroke-width="1.125" stroke-linecap="round"/>
<path d="M44.6654 48.3368C44.3167 48.0868 44.0495 47.7271 43.7847 47.3958C43.0334 46.4562 42.357 45.4457 41.9987 44.2891C41.6265 43.0878 41.4915 41.8339 41.5908 40.579C41.7842 38.136 43.0549 36.0288 43.7795 33.7356C44.1298 32.6268 44.2658 31.5172 44.34 30.3621C44.3586 30.072 44.3536 30.0364 44.5475 30.2468C45.3005 31.0643 46.1577 31.8312 46.8393 32.7081C47.2922 33.2906 47.754 33.9049 48.0698 34.5741C48.5086 35.5041 48.7702 36.5448 48.8995 37.5617C49.1761 39.7373 48.8519 41.9909 47.8262 43.9374C46.9906 45.5231 45.9266 46.9695 45.1059 48.5661" stroke="black" stroke-width="1.125" stroke-linecap="round"/>
<path d="M53.6904 54.3539C53.7357 54.3958 53.7168 54.5123 53.6997 54.562C53.467 55.2403 52.9335 55.8348 52.5026 56.3935C51.9854 57.064 51.4891 57.7515 50.9563 58.4102C50.2879 59.2366 49.4234 59.9488 48.5372 60.5283C47.6836 61.0866 46.8496 61.4875 45.8444 61.698C44.6747 61.9429 43.4932 61.7778 42.343 61.5281C41.3303 61.3082 40.3415 61.0986 39.3103 60.9569C38.5322 60.85 37.7456 60.7051 36.9574 60.7573C36.5744 60.7827 36.1325 60.7712 35.7912 60.9731C35.4364 61.1831 36.0096 60.9275 36.1018 60.8838C36.8589 60.5251 37.5499 60.1116 38.1851 59.5641C39.6574 58.295 40.915 56.7286 42.637 55.7755C44.4652 54.7637 46.568 54.2697 48.6466 54.1453C50.1437 54.0557 51.597 54.2549 53.074 54.4556" stroke="black" stroke-width="1.125" stroke-linecap="round"/>
<path d="M64.5842 57.0662C64.0933 56.7143 63.5646 56.425 63.0528 56.1078C61.3608 55.0591 60.6686 53.2042 60.4089 51.3086C59.8193 47.0046 61.7134 42.8284 60.9705 38.5229C60.9436 38.3673 60.8579 38.0182 61.026 38.4066C61.3415 39.1356 61.6314 39.8486 62.0335 40.5391C62.5406 41.4099 63.2809 42.0668 63.9388 42.819C64.2885 43.2188 64.6268 43.6134 64.9163 44.0603C65.5891 45.0994 65.9515 46.3494 66.3276 47.5191C67.0201 49.672 67.0964 51.9433 66.3603 54.0948C66.1203 54.7962 65.7995 55.4498 65.5074 56.1283C65.3428 56.5105 65.1831 56.9306 64.9394 57.2706" stroke="black" stroke-width="1.125" stroke-linecap="round"/>
<path d="M26.2471 28.1219C25.9886 27.9366 25.699 27.7921 25.4397 27.605C24.3571 26.8239 23.3968 25.8233 22.5991 24.7546C22.3353 24.4011 22.1225 24.0109 21.9143 23.6232C21.5465 22.9385 21.2164 22.238 20.9802 21.496C20.5879 20.2632 20.4787 18.9917 20.5154 17.7057" stroke="black" stroke-width="0.75" stroke-linecap="round"/>
<path d="M35.1255 41.3457C34.7807 41.0985 34.374 40.9208 33.99 40.7459C33.5884 40.5629 33.168 40.4359 32.7508 40.2949C32.2193 40.1154 31.6896 39.9336 31.1463 39.7918C29.8974 39.466 28.592 39.2818 27.3108 39.1358C26.5051 39.0439 25.7278 39.1424 24.9286 39.2485" stroke="black" stroke-width="0.75" stroke-linecap="round"/>
<path d="M45.2446 48.0679C44.5056 46.5571 44.5054 44.7409 44.5116 43.1041C44.5201 40.8841 45.1719 38.7046 45.5368 36.5247" stroke="black" stroke-width="0.75" stroke-linecap="round"/>
<path d="M53.3948 54.5301C53.3065 54.4821 53.0385 54.7588 53.0005 54.7888C52.3638 55.291 51.6544 55.7614 50.9311 56.1247C49.8634 56.6609 48.6482 56.8568 47.5055 57.1729C46.8489 57.3545 46.1734 57.5207 45.5577 57.8185C44.8939 58.1396 44.3389 58.5477 43.7752 59.0158" stroke="black" stroke-width="0.75" stroke-linecap="round"/>
<path d="M65.3593 56.8214C65.3272 56.8039 65.3104 56.8254 65.2751 56.7943C64.7122 56.299 64.4166 55.6349 64.2307 54.926C64.0902 54.3901 64.0295 53.9224 64.0441 53.3765C64.0573 52.8827 64.0765 52.3891 64.0898 51.8954C64.1216 50.7184 64.1221 49.5613 63.8445 48.4087C63.7172 47.88 63.4969 47.3567 63.2705 46.8627" stroke="black" stroke-width="0.75" stroke-linecap="round"/>
<path d="M135.332 60.7513C135.332 59.4679 134.576 58.377 133.527 57.7091C132.886 57.3017 131.768 57.4762 131.049 57.4762C130.414 57.4762 129.743 58.0051 129.32 58.4442C128.692 59.0952 128.64 60.161 128.651 60.9987C128.67 62.5165 129.897 63.264 131.212 63.4695C132.159 63.6175 133.409 63.2727 134.12 62.6144C134.77 62.0122 135.004 61.6307 135.004 60.7513" stroke="black" stroke-width="1.125" stroke-linecap="round"/>
<path d="M134.952 59.0071C135.739 59.0071 136.529 58.745 137.275 58.5083C138.824 58.0166 140.406 57.9176 142.019 57.778C143.4 57.6585 144.77 57.529 146.156 57.4752C146.837 57.4487 147.499 57.4282 148.168 57.59C148.806 57.744 149.501 57.9315 149.997 58.3856C150.765 59.0886 151.549 60.3154 151.181 61.39C150.813 62.4621 149.884 63.1877 149.475 64.236C149.113 65.1615 149.271 66.1824 149.451 67.1335C149.651 68.1918 149.673 69.2989 149.15 70.2606C148.758 70.9827 148.129 71.0342 147.478 71.4065C146.545 71.9395 146.29 73.3158 145.932 74.2387C145.576 75.1567 144.684 75.9194 143.668 75.9289C142.26 75.9421 141.137 75.3189 140.046 74.4703C137.647 72.6041 135.887 70.1196 134.686 67.3473C134.47 66.8474 134.262 66.349 134.025 65.8589C133.811 65.4144 133.494 64.9293 133.386 64.4438C133.356 64.31 133.303 64.1535 133.242 64.0302C133.188 63.9228 133.062 63.8484 133.028 63.7452" stroke="black" stroke-width="1.125" stroke-linecap="round"/>
<path d="M135.158 58.876C135.287 58.876 135.343 58.8419 135.455 58.7803C135.816 58.5818 136.189 58.4854 136.54 58.2983C137.379 57.8509 138.41 57.8038 139.292 57.4364C140.353 56.9944 141.339 56.3597 142.41 55.933C143.364 55.5534 144.396 55.0515 145.181 54.3817C146.07 53.6229 147.338 52.7334 147.278 51.4131C147.236 50.4944 146.358 49.252 145.5 48.9361C144.766 48.6655 144.074 48.9935 143.33 48.9935C142.758 48.9935 141.982 49.001 141.504 48.6615C141.205 48.4489 140.972 48.1653 140.731 47.8891C140.107 47.1722 139.773 46.3256 138.953 45.7791C138.315 45.3538 137.544 45.2805 136.808 45.4951C136.057 45.7142 135.242 45.9307 134.456 45.7185C134.064 45.6127 133.608 45.5383 133.262 45.3163C132.926 45.1008 132.621 44.8465 132.298 44.6141C131.629 44.1334 130.856 43.3837 129.961 43.682C129.28 43.9091 129.022 44.8166 128.873 45.4376C128.653 46.3575 128.652 47.436 128.758 48.3775C128.982 50.3683 129.452 52.2995 130.089 54.1965C130.449 55.2668 130.61 56.4093 131.079 57.4396" stroke="black" stroke-width="1.125" stroke-linecap="round"/>
<path d="M130.791 57.4972C130.791 56.9206 130.432 56.4255 130.159 55.9331C129.918 55.498 129.642 55.058 129.438 54.6052C129.218 54.1178 129.095 53.5963 128.825 53.1305C128.191 52.0367 127.373 51.0483 126.712 49.9704C126.156 49.0632 125.516 48.2403 124.72 47.5317C124.026 46.9134 123.238 46.425 122.3 46.3059C121.475 46.2011 121.324 47.2947 121.266 47.8636C121.187 48.6491 121.416 49.7383 120.507 50.0725C119.843 50.3163 119.083 50.3322 118.387 50.3758C117.82 50.4112 117.056 50.5071 116.657 50.9503C116.018 51.6603 116.554 52.8574 116.596 53.6763C116.642 54.5608 116.605 55.5953 115.939 56.2619C115.117 57.0832 114.273 57.6466 114.311 58.9464C114.348 60.1963 114.982 61.6379 116.207 62.1192C116.749 62.3322 117.448 62.2461 118.014 62.1767C118.922 62.0652 119.786 61.8848 120.679 61.6947C122.52 61.303 124.369 61.7041 126.211 61.4298C126.74 61.351 127.268 61.1744 127.804 61.1744" stroke="black" stroke-width="1.125" stroke-linecap="round"/>
<path d="M128.286 61.5778C126.248 61.5778 124.338 62.0998 122.326 62.2961C120.011 62.522 117.784 63.2074 115.502 63.6132C114.553 63.7817 113.586 64.1051 113.02 64.9169C112.183 66.1187 113.078 67.0637 113.918 67.8902C114.588 68.5485 115.362 69.2047 115.535 70.1717C115.671 70.9363 115.487 71.6692 115.894 72.3734C116.904 74.1206 118.723 72.1206 120.075 72.1206C121.129 72.1206 121.91 73.2288 122.549 73.9166C123.136 74.5488 124.068 75.5903 125.06 75.3733C125.934 75.182 126.482 74.2239 126.969 73.5374C127.772 72.4063 128.158 70.8046 128.499 69.4866C128.974 67.6509 128.936 65.4866 129.783 63.7928" stroke="black" stroke-width="1.125" stroke-linecap="round"/>
<path d="M133.361 63.6866C133.372 63.7743 133.478 63.9155 133.518 63.994C133.862 64.6822 134.217 65.3507 134.526 66.0591C134.84 66.7786 135.087 67.5389 135.459 68.2321C136.106 69.4385 136.644 70.7093 137.341 71.8879C137.74 72.5642 138.164 73.2246 138.565 73.8991C139.001 74.635 139.481 75.3464 139.621 76.2069C139.709 76.7426 139.6 77.2941 139.352 77.7786C139.1 78.2698 138.661 78.5612 138.265 78.9244C137.911 79.2493 137.568 79.5648 137.233 79.9058C136.854 80.2907 136.559 80.837 136.025 81.03C135.306 81.2894 134.649 80.7776 134.089 80.3911C133.491 79.9779 132.897 79.5399 132.342 79.07C131.472 78.3337 130.084 78.4768 129.04 78.6575C128.366 78.7742 127.466 78.8515 126.837 78.5416C125.865 78.0627 125.105 77.0466 125.014 75.9642" stroke="black" stroke-width="1.125" stroke-linecap="round"/>
<path d="M135.603 60.9175C138.581 60.9175 141.437 61.7232 144.325 62.3606" stroke="black" stroke-width="0.75" stroke-linecap="round"/>
<path d="M135.218 61.6551C137.895 62.789 140.523 63.99 142.85 65.7599" stroke="black" stroke-width="0.75" stroke-linecap="round"/>
<path d="M134.448 62.8096C135.563 63.7973 136.636 64.8369 137.728 65.849C139.072 67.0934 140.376 68.3717 141.632 69.7044" stroke="black" stroke-width="0.75" stroke-linecap="round"/>
<path d="M131.059 63.8776C131.605 65.0786 131.967 66.4797 132.39 67.7117C133.064 69.6777 133.74 71.6428 134.368 73.6239" stroke="black" stroke-width="0.75" stroke-linecap="round"/>
<path d="M130.843 64.3811C130.637 65.3949 130.459 66.4183 130.354 67.4481C130.175 69.2035 130.341 70.9716 130.448 72.7248" stroke="black" stroke-width="0.75" stroke-linecap="round"/>
<path d="M128.831 63.1379C125.085 63.7013 121.216 64.0622 117.759 65.7154" stroke="black" stroke-width="0.75" stroke-linecap="round"/>
<path d="M128.94 63.6824C128.782 63.7374 128.619 63.8294 128.472 63.8962C127.575 64.3053 126.667 64.692 125.77 65.1023C124.399 65.7294 123.135 66.442 121.861 67.2402" stroke="black" stroke-width="0.75" stroke-linecap="round"/>
<path d="M127.968 60.2067C127.95 60.1912 127.884 60.1293 127.866 60.122C126.884 59.7302 125.744 59.4858 124.735 59.2364C122.975 58.8015 121.238 58.4221 119.425 58.3762" stroke="black" stroke-width="0.75" stroke-linecap="round"/>
<path d="M128.768 59.3677C128.585 59.1916 128.42 59.0498 128.203 58.8995C126.963 58.0438 125.588 57.3518 124.19 56.7957C122.74 56.2189 121.186 56.0217 119.654 55.783" stroke="black" stroke-width="0.75" stroke-linecap="round"/>
<path d="M128.807 58.3762C128.897 57.9359 128.516 57.3955 128.321 57.0457C127.794 56.0995 127.114 55.3428 126.311 54.622C124.915 53.3689 123.216 52.6616 121.485 52.0076" stroke="black" stroke-width="0.75" stroke-linecap="round"/>
<path d="M132.239 57.2322C132.273 57.1302 132.377 57.0355 132.433 56.9483C132.706 56.5249 132.89 56.0546 132.993 55.5627C133.091 55.0939 133.109 54.6133 133.141 54.1369C133.221 52.938 133.355 51.751 133.497 50.5585" stroke="black" stroke-width="0.75" stroke-linecap="round"/>
<path d="M132.772 57.4991C133.414 56.5303 134.017 55.506 134.787 54.6326C135.511 53.8126 136.401 53.2505 137.349 52.7322" stroke="black" stroke-width="0.75" stroke-linecap="round"/>
<path d="M133.649 57.8423C133.822 57.7562 134.008 57.4919 134.128 57.372C134.697 56.8053 135.293 56.2531 135.967 55.8127C137.244 54.9792 138.766 54.698 140.247 54.4865" stroke="black" stroke-width="0.75" stroke-linecap="round"/>
<path d="M104.666 60.3611C104.726 60.2785 104.692 60.1531 104.67 60.064C104.572 59.6844 104.402 59.327 104.147 59.0276C103.714 58.5203 103.144 58.0911 102.472 57.9913C101.93 57.9108 101.353 58.1326 100.979 58.5318C100.414 59.1346 100.321 60.0002 100.549 60.7584C100.861 61.7952 102.084 63.1683 103.295 62.5626C104.063 62.1784 104.569 61.1306 104.569 60.2966" stroke="black" stroke-width="0.75" stroke-linecap="round"/>
<path d="M104.826 59.9207C105 59.899 105.319 59.7338 105.457 59.6866C106.85 59.2068 108.312 58.7412 109.809 58.9213C110.661 59.0238 111.82 59.2645 112.328 60.0395C112.819 60.7889 112.282 61.5289 111.658 61.9735C110.968 62.4658 110.052 62.7427 109.204 62.6559C107.929 62.5256 106.715 62.102 105.541 61.6079C105.472 61.5786 104.926 61.3468 105.021 61.3468C105.385 61.3468 105.75 61.4977 106.076 61.6403C106.551 61.8476 107.044 62.0254 107.484 62.3012C108.418 62.8861 109.284 63.6517 109.96 64.5233C110.451 65.1553 110.686 66.0571 110.531 66.8462C110.168 68.6979 107.754 67.7273 106.823 66.983C105.952 66.2858 105.272 65.3428 104.718 64.3828C104.397 63.8253 104.19 63.2162 103.89 62.6487C103.84 62.5546 103.801 62.4255 103.741 62.3408C103.6 62.1444 103.773 62.8232 103.814 63.0611C104.018 64.2434 104.376 65.3899 104.43 66.5977C104.468 67.4509 104.403 68.382 103.885 69.0917C103.646 69.4181 103.185 69.8238 102.752 69.839C101.908 69.8686 101.405 69.0481 101.09 68.3786C100.751 67.66 100.686 66.797 100.904 66.0341C101.061 65.4873 101.242 64.948 101.365 64.3936C101.471 63.9216 101.578 63.4436 101.731 62.9837C101.897 62.4845 101.553 62.9913 101.448 63.1439C100.893 63.9499 100.307 64.7244 99.6692 65.4668C98.7574 66.5276 96.2771 68.3481 95.3835 66.2375C95.0611 65.4761 96.207 64.5208 96.7214 64.1037C97.4219 63.5357 98.1281 63.0128 98.8571 62.4849C99.2474 62.2022 99.7097 61.991 100.062 61.6566C100.09 61.6297 100.307 61.4785 100.307 61.4513C100.307 61.4393 99.8179 61.6375 99.8114 61.6403C98.0083 62.4366 95.6382 62.8174 93.8853 61.7286C93.5973 61.5497 93.3444 61.3189 93.2227 60.9975C93.1213 60.7301 93.2384 60.5272 93.4117 60.3078C94.0343 59.52 95.3976 59.1731 96.3343 59.1572C97.5423 59.1367 98.7401 59.4021 99.9465 59.4021C100.046 59.4021 99.8414 59.4 99.8276 59.3985C99.4512 59.3566 99.0629 59.2095 98.7004 59.1068C97.5557 58.7823 96.4872 58.3137 95.5078 57.6356C94.8962 57.2122 94.1147 56.7093 93.8133 55.9879C93.6097 55.5007 93.8144 54.8808 94.2094 54.5546C94.9565 53.9377 96.2139 54.2945 97.0131 54.5924C98.069 54.9859 99.0522 55.5563 99.806 56.4093C100.25 56.9117 100.598 57.4494 100.953 58.0101C101.144 58.3112 101.035 58.3437 100.904 58.0173C100.556 57.1452 100.169 56.2804 99.8493 55.3973C99.5606 54.5995 99.1064 53.6539 99.2046 52.7845C99.2685 52.2181 99.4845 51.5571 99.9825 51.2233C100.612 50.8015 101.321 51.5099 101.636 51.9976C102.126 52.757 102.347 53.8085 102.361 54.7004C102.371 55.3535 102.424 56.0238 102.273 56.665C102.204 56.959 102.225 57.27 102.17 57.569C102.058 58.1868 102.469 56.3489 102.604 55.7358C102.872 54.5249 103.005 53.1973 103.652 52.1164C104.118 51.339 104.841 50.3094 105.876 50.3661C106.683 50.4103 107.035 51.201 107.03 51.9111C107.024 52.8688 106.653 53.7929 106.188 54.6122C105.77 55.3483 105.37 56.0058 104.763 56.6128C104.378 56.9986 104.022 57.4772 103.71 57.9255C103.626 58.0457 103.53 58.1517 103.451 58.2748C103.332 58.4599 103.643 57.9278 103.667 57.8913C104.339 56.8555 105.074 55.7129 106.125 55.03C106.593 54.7253 107.124 54.5162 107.681 54.4501C108.197 54.3889 108.897 54.4924 109.296 54.8607C109.972 55.4852 110.02 56.4902 109.461 57.207C108.881 57.952 107.892 58.3595 107.045 58.7142C106.245 59.0491 105.538 59.4926 104.697 59.7262" stroke="black" stroke-width="0.75" stroke-linecap="round"/>
<path d="M104.668 62.0511C105.014 62.3054 105.329 62.5888 105.645 62.8792C106.003 63.2083 106.367 63.5403 106.69 63.905C107.088 64.3539 107.435 64.8516 107.798 65.3288" stroke="black" stroke-width="0.375" stroke-linecap="round"/>
<path d="M104.752 60.6481C106.135 60.5457 107.521 60.5952 108.905 60.6338" stroke="black" stroke-width="0.375" stroke-linecap="round"/>
<path d="M104.237 58.8297C104.7 58.4074 105.258 58.0936 105.752 57.7081C106.064 57.4644 106.356 57.1965 106.673 56.9587C106.892 56.7942 107.122 56.6601 107.358 56.5244" stroke="black" stroke-width="0.375" stroke-linecap="round"/>
<path d="M102.602 58.0809C102.638 57.9343 102.761 57.7775 102.832 57.6507C103.325 56.77 103.747 55.8482 104.193 54.9437" stroke="black" stroke-width="0.375" stroke-linecap="round"/>
<path d="M101.346 57.6677C101.329 57.437 101.242 57.2057 101.176 56.9867C101.064 56.6144 100.94 56.2461 100.852 55.867C100.746 55.4108 100.667 54.9501 100.543 54.4981C100.437 54.1134 100.284 53.7614 100.122 53.3979" stroke="black" stroke-width="0.375" stroke-linecap="round"/>
<path d="M100.535 58.9379C100.529 58.8741 100.45 58.8199 100.408 58.7849C100.171 58.5896 99.9075 58.4416 99.646 58.2833C98.7399 57.7344 97.8909 57.0986 96.9849 56.5505" stroke="black" stroke-width="0.375" stroke-linecap="round"/>
<path d="M100.2 60.5649C99.9 60.5816 99.5998 60.6013 99.2998 60.6199C98.0734 60.6957 96.86 60.9145 95.6458 61.0945" stroke="black" stroke-width="0.375" stroke-linecap="round"/>
<path d="M101.03 62.0654C100.775 62.2124 100.541 62.4094 100.308 62.5871C99.9201 62.8828 99.5508 63.204 99.1801 63.5207C98.5899 64.025 97.9935 64.5208 97.3933 65.0133" stroke="black" stroke-width="0.375" stroke-linecap="round"/>
<path d="M102.495 62.7185C102.525 63.1336 102.422 63.5468 102.383 63.9581C102.33 64.5299 102.336 65.1103 102.336 65.6841" stroke="black" stroke-width="0.375" stroke-linecap="round"/>
<path d="M163.059 61.1686C163.11 61.1215 163.126 61.1174 163.192 61.1143C163.301 61.1092 163.502 60.8266 163.561 60.7536C163.778 60.4899 163.907 60.0868 163.964 59.753C164.059 59.2062 163.627 58.5431 163.286 58.1626C162.616 57.4165 161.426 57.0242 160.509 57.5674C159.411 58.2181 159.093 60.0358 159.977 61.0011C160.366 61.4259 161.183 61.7723 161.757 61.8141C162.562 61.8727 163.028 61.3759 163.384 60.7353" stroke="black" stroke-width="0.75" stroke-linecap="round"/>
<path d="M163.169 61.0312C163.512 61.4058 164.097 61.6472 164.513 61.9209C165.347 62.4691 166.137 63.0477 166.845 63.7536C167.274 64.1813 167.625 64.6357 167.927 65.1576C168.165 65.5705 168.485 66.0152 168.602 66.4835C168.773 67.1715 168.885 68.0912 168.273 68.6016C167.682 69.0939 166.716 68.9292 166.111 68.5338C164.997 67.8066 164.347 66.6199 163.817 65.4327C163.42 64.5428 163.026 63.6427 162.669 62.7374C162.528 62.378 162.219 61.2651 162.278 61.6468C162.492 63.0338 162.832 64.4462 162.824 65.8532C162.815 67.2745 162.646 69.6385 161.096 70.2973C160.687 70.4713 160.297 70.2776 159.978 70.0219C159.317 69.4926 158.833 68.6069 158.765 67.7665C158.688 66.8312 158.826 66.0194 159.058 65.1179C159.266 64.3131 159.692 63.5771 160.009 62.8105C160.177 62.4047 160.344 62.0005 160.501 61.5914C160.515 61.5546 160.57 61.4534 160.494 61.5188C160.304 61.6799 160.103 61.8251 159.946 62.0205C159.595 62.4563 159.237 62.8888 158.86 63.3025C158.358 63.8543 157.717 64.3791 157.091 64.7896C156.758 65.0079 156.394 65.1159 156.008 65.1892C155.164 65.3493 154.45 65.61 153.605 65.2861C153.082 65.0858 152.595 64.5708 152.617 63.9816C152.641 63.3221 153.06 62.9521 153.523 62.5456C153.879 62.2327 154.373 62.0605 154.793 61.8483C155.191 61.6468 155.585 61.4289 155.99 61.2415C156.683 60.921 157.413 60.7277 158.117 60.4344C158.453 60.2941 158.982 60.2519 159.257 60.0004C159.325 59.9379 158.841 59.9151 158.806 59.9098C158.389 59.8475 157.984 59.682 157.585 59.5514C157.147 59.4077 156.692 59.2921 156.249 59.1603C155.716 59.0017 155.266 58.7412 154.772 58.4862C153.856 58.0121 153.051 57.225 152.6 56.293C152.298 55.6695 151.753 54.3981 152.819 54.2101C153.855 54.0276 155.062 54.5148 155.92 55.0328C156.705 55.5072 157.476 56.0463 158.165 56.6526C158.416 56.8728 158.674 57.0476 158.901 57.2955C159.008 57.4121 159.102 57.5393 159.239 57.6195C159.379 57.7016 158.984 57.3925 158.946 57.3575C158.558 57.0016 158.179 56.6645 157.859 56.2409C157.189 55.354 156.435 54.4974 155.97 53.479C155.76 53.0181 154.969 50.7698 155.927 50.6556C156.835 50.5474 157.642 51.379 158.112 52.036C158.767 52.95 159.278 54.0333 159.761 55.0502C160.037 55.631 160.169 56.2816 160.419 56.869C160.455 56.9532 160.495 57.0336 160.519 57.1225C160.522 57.1376 160.56 57.2935 160.566 57.2937C160.598 57.2951 160.367 56.3355 160.361 56.3098C160.071 55.139 159.853 53.8445 159.837 52.6365C159.826 51.7975 159.749 50.715 160.344 50.0466C160.746 49.5945 161.333 48.888 161.989 49.3504C162.344 49.6009 162.537 50.0914 162.705 50.4738C162.924 50.9723 162.969 51.5467 162.964 52.0889C162.955 53.1297 162.632 54.1086 162.406 55.1086C162.265 55.7371 162.139 56.4239 161.913 57.0272C161.895 57.0749 161.78 57.4132 161.899 57.2373C162.095 56.9479 162.213 56.5925 162.361 56.2752C162.625 55.7077 162.921 55.1293 163.109 54.5308C163.339 53.7946 163.586 53.0486 163.99 52.3864C164.264 51.9384 164.579 51.5104 164.953 51.1404C165.309 50.7876 166.07 50.3002 166.598 50.4766C167.379 50.7376 167.503 51.9489 167.387 52.6348C167.238 53.5138 166.706 54.398 166.162 55.0992C165.411 56.066 164.495 56.7953 163.603 57.6124C163.524 57.6843 163.44 57.753 163.366 57.8295C163.289 57.9086 163.893 57.7889 163.953 57.7662C165.503 57.1814 166.891 56.1867 168.527 55.8172C169.29 55.6449 170.418 55.4296 171.132 55.8323C171.753 56.1823 171.722 56.8672 171.381 57.4363C170.533 58.8535 168.8 59.2212 167.289 59.4004C166.218 59.5274 165.11 59.7916 164.031 59.7439C163.73 59.7306 164.587 59.9963 164.883 60.0537C165.522 60.1773 166.182 60.1905 166.83 60.2243C168.08 60.2894 169.268 60.5749 170.323 61.2734C171.138 61.8126 171.786 62.9787 170.944 63.8178C170.283 64.4767 169.104 64.1112 168.325 63.9712C167.14 63.7581 166.027 63.1655 164.958 62.6386C164.389 62.3578 163.951 61.8353 163.394 61.567" stroke="black" stroke-width="0.75" stroke-linecap="round"/>
<path d="M162.81 61.3501C162.987 61.5438 163.197 61.713 163.381 61.9003C163.819 62.3456 164.256 62.7975 164.649 63.283C165.161 63.915 165.592 64.6038 166.057 65.2695" stroke="black" stroke-width="0.375" stroke-linecap="round"/>
<path d="M161.019 61.6268C161.133 62.19 160.992 62.8858 160.888 63.442C160.721 64.3294 160.461 65.2033 160.249 66.0804" stroke="black" stroke-width="0.375" stroke-linecap="round"/>
<path d="M159.465 61.0047C159.405 60.9713 159.264 61.066 159.22 61.0873C158.903 61.2418 158.58 61.3954 158.27 61.5659C157.473 62.005 156.742 62.5626 156.03 63.1264" stroke="black" stroke-width="0.375" stroke-linecap="round"/>
<path d="M159.3 58.9217C159.133 58.849 158.98 58.7499 158.828 58.6505C158.208 58.2435 157.609 57.8054 156.982 57.408C156.15 56.8807 155.309 56.3662 154.431 55.9192" stroke="black" stroke-width="0.375" stroke-linecap="round"/>
<path d="M159.815 57.5407C159.787 57.4505 159.741 57.3742 159.698 57.2906C159.45 56.8162 159.225 56.331 158.962 55.8644C158.346 54.77 157.679 53.7008 157.048 52.6145" stroke="black" stroke-width="0.375" stroke-linecap="round"/>
<path d="M161.022 57.08C161.051 56.9833 161.062 56.8969 161.069 56.7932C161.106 56.1967 161.084 55.595 161.076 54.9978C161.067 54.2024 161.043 53.4073 161.021 52.6121" stroke="black" stroke-width="0.375" stroke-linecap="round"/>
<path d="M162.526 57.4827C162.573 57.4398 162.609 57.4029 162.647 57.3474C162.976 56.8572 163.217 56.3211 163.462 55.7865C163.918 54.7939 164.524 53.9311 165.192 53.0732" stroke="black" stroke-width="0.375" stroke-linecap="round"/>
<path d="M163.738 59.1373C163.916 59.0731 164.081 58.9688 164.251 58.8865C164.768 58.636 165.306 58.4456 165.852 58.2686C167.004 57.8955 168.166 57.594 169.283 57.1286" stroke="black" stroke-width="0.375" stroke-linecap="round"/>
<path d="M163.626 60.7931C163.656 60.8153 163.687 60.8126 163.723 60.8172C164.063 60.8609 164.401 60.9632 164.729 61.0582C166.004 61.428 167.272 61.8097 168.523 62.2549" stroke="black" stroke-width="0.375" stroke-linecap="round"/>
<path d="M87.5388 56.0824C87.5792 55.6785 87.7996 55.2322 87.9471 54.8663C88.1851 54.2761 88.4944 53.6498 89.1369 53.414C89.513 53.2759 89.8836 53.2707 90.1495 53.6099C90.3631 53.8825 90.3248 54.2453 90.1746 54.5371C89.7898 55.285 89.1947 55.7004 88.4559 56.0598C88.2743 56.1482 88.0626 56.1788 87.8705 56.2394C87.8357 56.2504 87.736 56.2633 87.7423 56.2633" stroke="black" stroke-width="0.75" stroke-linecap="round"/>
<path d="M87.397 56.2588C87.4048 56.196 87.4466 56.1339 87.4544 56.0675C87.4852 55.8044 87.4438 55.5337 87.3667 55.2813C87.2797 54.9967 87.113 54.6965 86.9664 54.4385C86.8074 54.1586 86.6431 53.9157 86.3812 53.7217C85.9618 53.4112 85.4039 53.2809 84.8966 53.4331C84.658 53.5047 84.5351 53.6377 84.4788 53.882C84.3873 54.2785 84.7207 54.6732 84.989 54.9209C85.3768 55.279 85.8211 55.6279 86.2664 55.9112C86.5313 56.0798 86.814 56.1741 87.1131 56.258C87.1913 56.28 87.2722 56.3123 87.3539 56.3163C87.392 56.3181 87.3996 56.3169 87.3539 56.3083C87.1925 56.2777 87.0225 56.2992 86.8596 56.3051C86.5371 56.3168 86.2153 56.3248 85.8932 56.345C85.4268 56.3742 84.9419 56.4588 84.5091 56.64C84.2999 56.7275 84.0829 56.843 83.9015 56.9796C83.7627 57.0841 83.5849 57.2301 83.5539 57.4118C83.4767 57.8635 83.9945 58.2355 84.3759 58.3431C84.6109 58.4093 84.86 58.4017 85.1007 58.3797C85.349 58.3571 85.5585 58.327 85.7752 58.1932C86.1614 57.9547 86.4477 57.6205 86.7623 57.3018C86.9388 57.123 87.2037 56.9222 87.2742 56.6703C87.2865 56.6264 87.2696 56.6397 87.2503 56.6671C87.1639 56.7892 87.1036 56.9416 87.0461 57.0785C86.8243 57.6071 86.7122 58.1579 86.7432 58.7338C86.77 59.2323 86.9827 59.8098 87.3699 60.1434C87.6176 60.3569 87.9504 60.3251 88.1377 60.0629C88.6616 59.3294 88.409 58.299 88.0189 57.5697C87.9458 57.433 87.8689 57.2359 87.7414 57.1375C87.6743 57.0857 87.709 57.1341 87.7462 57.1822C87.893 57.3717 88.093 57.5226 88.2708 57.6821C88.5104 57.897 88.7512 58.0928 89.0299 58.2538C89.2772 58.3966 89.5267 58.5564 89.8025 58.6389C90.208 58.7601 90.7876 58.8859 91.1476 58.5839C91.4284 58.3483 91.3414 57.9625 91.1014 57.7339C90.6409 57.2953 90.0356 56.8986 89.3975 56.7978C88.702 56.688 87.9727 56.6176 87.2678 56.6176" stroke="black" stroke-width="0.75" stroke-linecap="round"/>
<path d="M77.0523 54.2405C77.0523 54.0501 77.0907 53.8371 77.1255 53.649C77.2323 53.0712 77.3341 52.4986 77.5864 51.9633C77.6847 51.7547 77.8422 51.5543 78.04 51.4324C78.1364 51.3729 78.3326 51.2578 78.457 51.2954C78.8745 51.422 78.903 51.936 78.8186 52.2831C78.7232 52.675 78.4868 52.9912 78.227 53.2874C78.0557 53.4828 77.8138 53.5945 77.6167 53.7608C77.4823 53.8742 77.3212 53.9359 77.184 54.0378C77.128 54.0794 77.0515 54.1808 77.0335 54.0597C76.9388 53.4204 76.4172 52.9348 75.8191 52.7398C75.5924 52.6658 75.3524 52.6134 75.1304 52.7178C74.8986 52.8269 74.7258 53.0418 74.7761 53.3041C74.8526 53.7025 75.2648 53.9235 75.6018 54.0785C75.908 54.2194 76.3186 54.2217 76.651 54.2217C76.7284 54.2217 76.8057 54.2217 76.883 54.2217C76.9482 54.2217 76.7535 54.2375 76.6897 54.251C76.3027 54.3328 75.9122 54.4378 75.5537 54.6063C75.2035 54.7709 74.8939 54.9967 74.7427 55.365C74.5789 55.764 74.7344 56.2384 75.1283 56.4384C75.5139 56.634 76.0178 56.5824 76.3396 56.2952C76.6047 56.0586 76.7696 55.5921 76.8172 55.248C76.8384 55.0951 76.8642 54.945 76.8642 54.7902C76.8642 54.7587 76.8585 54.6228 76.883 54.7317C77.0071 55.2829 77.182 55.8128 77.438 56.3182C77.6274 56.6922 77.9271 57.2406 78.3922 57.3173C78.825 57.3887 79.0067 56.8774 79.0067 56.5376C79.0067 56.1119 78.7088 55.7212 78.4152 55.4372C78.1167 55.1484 77.7298 54.9297 77.3596 54.7464C77.2766 54.7052 77.1559 54.6918 77.0858 54.6314C77.0584 54.6078 76.9906 54.5716 77.0607 54.623C77.5383 54.9733 78.0559 55.1939 78.6137 55.3839C79.097 55.5484 79.7687 55.6256 80.1511 55.2104C80.3761 54.9659 80.4625 54.5864 80.2002 54.3304C80.034 54.1683 79.7761 54.0892 79.5585 54.0252C79.2022 53.9204 78.8138 53.8664 78.4423 53.8664C78.0018 53.8664 77.5638 53.9663 77.1276 54.0148" stroke="black" stroke-width="0.75" stroke-linecap="round"/>
<path d="M79.4224 62.2714C79.5041 62.1796 79.51 61.9487 79.5187 61.8369C79.5496 61.4434 79.6565 61.0793 79.9169 60.7751C80.2295 60.4099 80.7197 60.1918 81.2046 60.2431C81.7089 60.2965 82.0353 60.7055 81.9335 61.2011C81.7619 62.0364 80.5543 62.1927 79.8655 62.3003C79.8453 62.3035 79.6559 62.3347 79.6536 62.2907C79.6422 62.075 79.6817 61.8539 79.6151 61.6442C79.4376 61.0856 78.9618 60.5379 78.4312 60.287C78.0774 60.1196 77.4593 60.2346 77.4593 60.7194C77.4593 61.0385 77.7683 61.322 77.9774 61.5158C78.2176 61.7384 78.483 61.9132 78.7802 62.0509C78.9523 62.1307 79.4785 62.348 79.3068 62.2672C79.2119 62.2225 79.0835 62.2216 78.9814 62.1987C78.7588 62.1486 78.5362 62.104 78.3092 62.0788C77.9358 62.0373 77.5224 61.987 77.1789 62.1773C76.9138 62.3241 76.5835 62.6126 76.6137 62.9479C76.6525 63.378 77.1494 63.6078 77.5193 63.6651C77.9039 63.7247 78.2888 63.5777 78.6057 63.3664C78.7871 63.2455 78.9115 63.0411 79.0906 62.9265C79.136 62.8974 79.1055 63.0224 79.1024 63.0368C79.0691 63.1881 79.0235 63.3321 79.0092 63.4874C78.9657 63.9599 79.0296 64.3793 79.1912 64.8253C79.3071 65.1453 79.542 65.651 79.9619 65.6196C80.4472 65.5833 80.5076 64.9832 80.5003 64.5995C80.4914 64.1351 80.4023 63.6374 80.146 63.2412C80.0386 63.0752 79.8938 62.9582 79.7403 62.8387C79.4733 62.6311 80.21 63.329 80.4778 63.5356C80.9862 63.9277 81.676 64.2187 82.3038 63.9048C82.6137 63.7499 82.6312 63.3229 82.4023 63.0892C82.0182 62.697 81.3388 62.3234 80.7732 62.3528C80.3782 62.3733 80.0156 62.4917 79.6343 62.5797" stroke="black" stroke-width="0.75" stroke-linecap="round"/>
<path d="M177.083 54.5701C177.111 54.3451 177.119 54.1783 177.009 53.9384C176.767 53.4077 176.468 52.8972 176.051 52.4841C175.641 52.0766 174.401 51.4064 174.401 52.4815C174.401 52.9454 174.755 53.3553 175.089 53.643C175.434 53.9404 175.826 54.2234 176.248 54.4045C176.475 54.5022 176.646 54.593 176.895 54.593C177.113 54.593 176.648 54.5639 176.608 54.5586C176.106 54.4912 175.677 54.4662 175.18 54.5701C174.667 54.6775 174.143 54.8795 173.744 55.231C173.418 55.5176 173.383 56.0869 173.66 56.4154C173.98 56.7953 174.486 56.7973 174.918 56.6332C175.142 56.5479 175.337 56.3934 175.542 56.2715C175.774 56.134 175.993 56.0032 176.202 55.8309C176.455 55.622 176.741 55.4084 176.917 55.1253C176.927 55.1102 176.991 54.9985 176.991 55.0464C176.991 55.2058 176.947 55.3594 176.945 55.5201C176.942 56.0362 177.01 56.5217 177.14 57.0216C177.239 57.4001 177.434 57.8604 177.795 58.0633C178.035 58.1984 178.327 58.263 178.525 58.02C178.785 57.7002 178.805 57.1089 178.73 56.7249C178.625 56.1889 178.365 55.6485 177.978 55.2616C177.851 55.1344 177.558 54.8019 177.352 54.8019C177.299 54.8019 177.443 54.8542 177.488 54.8821C177.59 54.9453 177.694 55.0037 177.796 55.0655C178.013 55.1962 178.221 55.2929 178.457 55.3839C178.886 55.5493 179.286 55.625 179.743 55.5074C180.134 55.4068 180.63 55.0779 180.723 54.6567C180.841 54.1215 180.188 53.7812 179.762 53.671C179.278 53.5455 178.765 53.8543 178.346 54.0556C177.976 54.2336 177.635 54.4741 177.312 54.7255C177.277 54.7531 177.214 54.8171 177.282 54.7255C177.415 54.5441 177.586 54.3943 177.717 54.2084C177.903 53.9453 178.102 53.6969 178.224 53.3959C178.348 53.09 178.41 52.7691 178.446 52.442C178.49 52.0393 178.528 51.3513 178.113 51.101C177.682 50.8405 177.314 51.2957 177.154 51.6627C176.886 52.2796 176.808 52.9973 176.67 53.6532" stroke="black" stroke-width="0.75" stroke-linecap="round"/>
<path d="M180.91 61.3813C180.91 61.3041 180.948 61.2359 180.984 61.1692C181.116 60.9251 181.232 60.6723 181.359 60.4255C181.599 59.9568 182.068 59.6353 182.541 59.4262C182.903 59.2659 183.443 59.1527 183.69 59.5643C183.95 59.9981 183.555 60.4709 183.232 60.736C182.651 61.2132 181.876 61.3835 181.145 61.4912C181.108 61.4967 180.844 61.5626 180.818 61.5053C180.782 61.4231 180.801 61.33 180.79 61.2433C180.768 61.0703 180.712 60.88 180.646 60.7194C180.5 60.3675 180.103 60.0261 179.783 59.8403C179.383 59.6077 179.011 59.4092 178.574 59.6563C177.623 60.1944 179.095 61.2394 179.611 61.4376C179.847 61.5286 180.116 61.5815 180.368 61.5884C180.421 61.5898 180.577 61.6114 180.524 61.6114C180.379 61.6114 180.232 61.6421 180.087 61.6522C179.38 61.7019 178.443 61.7497 178.024 62.4279C177.67 62.9983 178.584 63.4885 179.068 63.4706C179.85 63.4416 180.186 62.6029 180.473 62.0126C180.505 61.9475 180.43 62.1282 180.427 62.1378C180.336 62.4189 180.298 62.7135 180.29 63.008C180.275 63.6247 180.478 64.3067 180.808 64.829C180.998 65.1287 181.358 65.4683 181.664 65.1305C181.971 64.7919 182.023 64.1147 181.94 63.6866C181.845 63.198 181.586 62.7781 181.21 62.4534C180.987 62.2598 180.705 62.1196 180.497 61.9116C180.424 61.8385 180.341 61.7212 180.489 61.6804C180.717 61.617 180.96 61.639 181.194 61.6331C181.508 61.6251 181.817 61.5654 182.132 61.5654C182.799 61.5654 183.544 61.7642 183.986 62.3014C184.239 62.6092 184.33 63.142 183.92 63.3799C183.511 63.6165 182.965 63.3411 182.589 63.1703C182.024 62.9135 181.477 62.5881 181.002 62.1864" stroke="black" stroke-width="0.75" stroke-linecap="round"/>
<path d="M187.508 55.8672C187.511 55.8373 187.536 55.808 187.556 55.7873C187.626 55.7127 187.701 55.6445 187.782 55.5824C188.068 55.3632 188.363 55.1347 188.677 54.9578C189.061 54.7421 189.569 54.9044 189.827 55.226C190.09 55.555 190.226 55.9559 189.877 56.2713C189.529 56.5863 188.992 56.6318 188.546 56.5745C188.265 56.5383 187.97 56.4499 187.708 56.3393C187.635 56.3083 187.534 56.2702 187.475 56.2144C187.415 56.158 187.456 56.0971 187.484 56.0307C187.614 55.7239 187.698 55.3913 187.749 55.0625C187.811 54.6617 187.831 54.0555 187.561 53.7122C187.381 53.4819 186.874 53.2459 186.582 53.3944C186.156 53.6112 186.255 54.2371 186.4 54.5913C186.531 54.9093 186.669 55.222 186.913 55.4703C186.989 55.5475 187.106 55.6925 187.219 55.7174C187.429 55.7642 186.819 55.5561 186.615 55.4869C186.162 55.3329 185.677 55.1482 185.188 55.1994C184.785 55.2415 184.332 55.4228 184.113 55.7882C183.892 56.1583 184.401 56.5644 184.695 56.6921C185.035 56.8394 185.454 56.7805 185.79 56.6498C186.071 56.5407 186.334 56.3741 186.608 56.2475C186.676 56.2161 186.733 56.1813 186.793 56.1391C186.813 56.1258 186.691 56.2362 186.67 56.2548C186.016 56.8562 185.361 57.8448 185.676 58.7699C185.778 59.0671 185.988 59.4338 186.357 59.3697C186.762 59.2994 187.041 58.8326 187.181 58.4888C187.32 58.1477 187.452 57.7145 187.357 57.3452C187.332 57.2456 187.294 57.154 187.255 57.0595C187.234 57.0105 187.235 56.9473 187.194 56.9088C187.165 56.8818 187.186 57.0275 187.188 57.0374C187.232 57.2395 187.353 57.4116 187.462 57.5831C187.59 57.7835 187.75 57.9375 187.918 58.103C188.073 58.2558 188.223 58.3986 188.421 58.4925C188.75 58.648 189.132 58.6535 189.364 58.3317C189.615 57.9823 189.24 57.4599 188.993 57.2267C188.633 56.8869 188.183 56.5931 187.707 56.4468C187.443 56.3654 187.152 56.3248 186.913 56.1813" stroke="black" stroke-width="0.75" stroke-linecap="round"/>
</svg>
