<svg width="526" height="146" viewBox="0 0 526 146" fill="none" xmlns="http://www.w3.org/2000/svg">
<path d="M140.078 25.8672C140.078 26.4766 139.867 26.7813 139.445 26.7813C139.07 26.7813 138.758 26.4063 138.508 25.6563C138.273 24.8906 137.82 24.1719 137.148 23.5C136.477 22.8281 135.672 22.2656 134.734 21.8125C132.781 20.8594 130.68 20.3828 128.43 20.3828C126.195 20.3828 124.258 20.6875 122.617 21.2969C120.992 21.8906 119.594 22.75 118.422 23.875C115.984 26.2656 114.766 29.4922 114.766 33.5547C114.766 38.0547 116.141 41.7656 118.891 44.6875C121.625 47.5938 125.125 49.0469 129.391 49.0469C134.141 49.0469 137.813 46.8672 140.406 42.5078C140.578 42.2266 140.758 42.0703 140.945 42.0391C141.117 42.0391 141.289 42.2266 141.461 42.6016C141.633 42.9766 141.719 43.3984 141.719 43.8672C141.719 44.6484 141.055 45.6641 139.727 46.9141C138.398 48.1641 136.781 49.1719 134.875 49.9375C132.984 50.7031 130.774 51.0859 128.242 51.0859C125.727 51.0859 123.336 50.6797 121.07 49.8672C118.82 49.0391 116.906 47.9141 115.328 46.4922C112.016 43.5234 110.359 39.8125 110.359 35.3594C110.359 30.3281 112.031 26.2656 115.375 23.1719C118.719 20.0625 123.117 18.5078 128.57 18.5078C132.508 18.5078 135.766 19.0313 138.344 20.0781C138.844 20.2969 139.172 20.5078 139.328 20.711C139.641 21.1485 139.82 21.8047 139.867 22.6797C139.93 23.5391 139.969 24.1328 139.984 24.4609C140.047 25.2266 140.078 25.6953 140.078 25.8672ZM145.633 50.8516C144.586 50.8516 144.063 50.5625 144.063 49.9844C144.063 49.5313 144.352 49.3047 144.93 49.3047L146.102 49.4219C146.461 49.4219 146.758 49.3594 146.992 49.2344C147.227 49.0938 147.406 48.8047 147.531 48.3672C147.781 47.5703 147.906 45.8047 147.906 43.0703V36.0625C147.906 34.4688 147.805 33.4766 147.602 33.0859C147.414 32.6797 147.18 32.4063 146.898 32.2656C146.633 32.1094 146.188 31.9844 145.563 31.8906C144.953 31.7969 144.648 31.5547 144.648 31.1641C144.648 30.8047 145.047 30.5469 145.844 30.3906C147.703 30 148.984 29.6094 149.688 29.2188C150.641 28.6719 151.289 28.3984 151.633 28.3984C151.992 28.3984 152.172 28.5781 152.172 28.9375C152.172 29.1094 152.133 29.2891 152.055 29.4766C151.992 29.6641 151.922 29.8906 151.844 30.1563C151.719 30.6875 151.625 31.6875 151.563 33.1563C152.922 30.875 154.563 29.4531 156.484 28.8906C157.047 28.7188 157.672 28.6328 158.359 28.6328C159.063 28.6328 159.68 28.8828 160.211 29.3828C160.758 29.8828 161.031 30.4141 161.031 30.9766C161.031 31.5391 160.969 31.9531 160.844 32.2188C160.719 32.4844 160.563 32.7109 160.375 32.8984C159.969 33.3047 159.602 33.5078 159.273 33.5078C158.961 33.5078 158.719 33.4297 158.547 33.2734C158.375 33.1016 158.18 32.7969 157.961 32.3594C157.57 31.5781 157.133 31.1875 156.648 31.1875C156.164 31.1875 155.703 31.2969 155.266 31.5156C154.828 31.7188 154.391 32.0313 153.953 32.4531C153 33.3438 152.195 34.5547 151.539 36.0859V43.0703C151.539 46.0391 151.617 47.7891 151.773 48.3203C151.945 48.8359 152.148 49.1484 152.383 49.2578C152.633 49.3516 152.969 49.3984 153.391 49.3984L155.477 49.2109C155.789 49.2109 156.039 49.2891 156.227 49.4453C156.414 49.5859 156.508 49.7656 156.508 49.9844C156.508 50.5625 155.938 50.8516 154.797 50.8516L149.852 50.5C149.055 50.5 148.297 50.5547 147.578 50.6641C146.875 50.7891 146.227 50.8516 145.633 50.8516ZM166.234 47.875C165.328 46.8594 164.625 45.6641 164.125 44.2891C163.641 42.9141 163.398 41.3906 163.398 39.7188C163.398 38.0313 163.688 36.4844 164.266 35.0781C164.844 33.6719 165.641 32.4688 166.656 31.4688C168.766 29.3906 171.367 28.3516 174.461 28.3516C177.023 28.3516 179.094 29.1953 180.672 30.8828C182.172 32.5078 182.922 34.5156 182.922 36.9063C182.922 37.6875 182.813 38.2266 182.594 38.5234C182.391 38.8047 182.133 38.9766 181.82 39.0391C181.508 39.0859 181.078 39.1328 180.531 39.1797C179.984 39.2109 179.32 39.25 178.539 39.2969C177.758 39.3438 176.883 39.3906 175.914 39.4375C174.961 39.4844 173.984 39.5391 172.984 39.6016C170.688 39.7422 168.844 39.8828 167.453 40.0234C167.797 44.2266 169.406 46.9531 172.281 48.2031C173.219 48.6094 174.219 48.8125 175.281 48.8125C177.531 48.8125 179.313 48.1563 180.625 46.8438C181.188 46.2813 181.617 46 181.914 46C182.477 46 182.758 46.3359 182.758 47.0078C182.758 47.3516 182.523 47.7656 182.055 48.25C181.586 48.7344 180.914 49.2344 180.039 49.75C178.492 50.6406 176.688 51.0859 174.625 51.0859C172.563 51.0859 170.875 50.8047 169.563 50.2422C168.266 49.6641 167.156 48.875 166.234 47.875ZM167.406 38.2891C174.734 37.9141 178.594 37.5156 178.984 37.0938C179.125 36.9375 179.195 36.4766 179.195 35.7109C179.195 34.9453 179.047 34.2031 178.75 33.4844C178.453 32.75 178.055 32.125 177.555 31.6094C176.523 30.5625 175.242 30.0391 173.711 30.0391C171.977 30.0391 170.516 30.7656 169.328 32.2188C168.078 33.7344 167.438 35.7578 167.406 38.2891ZM207.859 47.3594C208.313 47.3594 208.539 47.5703 208.539 47.9922C208.539 48.3984 208.086 48.7891 207.18 49.1641C206.273 49.5391 205.641 49.8828 205.281 50.1953C204.922 50.4922 204.656 50.7109 204.484 50.8516C204.313 51.0078 204.109 51.0859 203.875 51.0859C203.406 51.0859 203.016 50.8906 202.703 50.5C202.391 50.1094 201.969 49.2734 201.438 47.9922C200.547 49.0078 199.461 49.7813 198.18 50.3125C196.914 50.8281 195.656 51.0859 194.406 51.0859C192.047 51.0859 190.219 50.4844 188.922 49.2813C187.625 48.0781 186.977 46.4297 186.977 44.3359C186.977 42.2422 187.953 40.5469 189.906 39.25C191.875 37.9375 194.383 37.2813 197.43 37.2813C198.336 37.2813 199.531 37.4375 201.016 37.75V35.9219C201.016 31.9063 199.32 29.8984 195.93 29.8984C194.133 29.8984 192.813 30.7266 191.969 32.3828C191.234 33.8672 190.516 34.6094 189.813 34.6094C189.297 34.6094 188.844 34.4609 188.453 34.1641C188.078 33.8672 187.891 33.4922 187.891 33.0391C187.891 32.5859 188.125 32.0859 188.594 31.5391C189.063 30.9766 189.688 30.4688 190.469 30.0156C192.313 28.9375 194.336 28.3984 196.539 28.3984C200.445 28.3984 202.969 29.6719 204.109 32.2188C204.531 33.125 204.742 34.2344 204.742 35.5469V44.8984C204.742 46.1016 204.859 46.875 205.094 47.2188C205.328 47.5625 205.656 47.7344 206.078 47.7344C206.5 47.7344 206.844 47.6719 207.109 47.5469C207.375 47.4219 207.625 47.3594 207.859 47.3594ZM201.016 39.9297C199.891 39.2891 198.469 38.9688 196.75 38.9688C195.031 38.9688 193.648 39.3984 192.602 40.2578C191.57 41.1172 191.055 42.2734 191.055 43.7266C191.055 45.1641 191.453 46.3672 192.25 47.3359C193.047 48.2891 194.07 48.7656 195.32 48.7656C197.992 48.7656 199.914 47.8906 201.086 46.1406C201.039 45.7031 201.016 45.2188 201.016 44.6875V39.9297ZM223.891 30.7188C223.891 31.1406 223.641 31.3516 223.141 31.3516L216.484 31.2813V44.2656C216.484 46.6875 217.07 48.125 218.242 48.5781C218.602 48.7188 219.023 48.7891 219.508 48.7891C219.992 48.7891 220.43 48.7109 220.82 48.5547C221.227 48.3828 221.586 48.2031 221.898 48.0156C222.211 47.8281 222.477 47.6563 222.695 47.5C222.914 47.3281 223.117 47.2422 223.305 47.2422C223.508 47.2422 223.688 47.3516 223.844 47.5703C224 47.7891 224.078 48.0078 224.078 48.2266C224.078 48.7734 223.383 49.4297 221.992 50.1953C220.93 50.7891 219.594 51.0859 217.984 51.0859C216.375 51.0859 215.117 50.5156 214.211 49.375C213.305 48.2188 212.852 46.625 212.852 44.5938V31.2109H211.422C210.297 31.2109 209.734 30.9219 209.734 30.3438C209.734 29.9219 210.047 29.6328 210.672 29.4766C211.297 29.3203 211.836 29.0469 212.289 28.6563C212.742 28.25 213.109 27.7969 213.391 27.2969C213.688 26.7813 213.922 26.25 214.094 25.7031C214.266 25.1563 214.422 24.6563 214.563 24.2031C214.906 23.1719 215.297 22.6563 215.734 22.6563C216.234 22.6563 216.484 23.1016 216.484 23.9922V29.2891L223.07 29.1484C223.398 29.1484 223.656 29.5391 223.844 30.3203C223.875 30.4922 223.891 30.625 223.891 30.7188ZM234.508 21.4141C234.508 22.0703 234.281 22.6328 233.828 23.1016C233.391 23.5547 232.789 23.7813 232.023 23.7813C231.273 23.7813 230.688 23.5625 230.266 23.125C229.859 22.6719 229.656 22.1875 229.656 21.6719C229.656 21.1406 229.727 20.7344 229.867 20.4531C230.008 20.1719 230.188 19.9297 230.406 19.7266C230.891 19.3047 231.477 19.0938 232.164 19.0938C232.867 19.0938 233.43 19.3125 233.852 19.75C234.289 20.1875 234.508 20.7422 234.508 21.4141ZM228.063 50.8516C227.016 50.8516 226.492 50.5625 226.492 49.9844C226.492 49.5313 226.781 49.3047 227.359 49.3047L228.531 49.4219C228.891 49.4219 229.188 49.3594 229.422 49.2344C229.656 49.0938 229.844 48.8047 229.984 48.3672C230.234 47.5859 230.359 45.8203 230.359 43.0703V36.0156C230.359 34.4688 230.25 33.4922 230.031 33.0859C229.828 32.6641 229.594 32.3828 229.328 32.2422C229.063 32.0859 228.617 31.9688 227.992 31.8906C227.383 31.7969 227.078 31.5469 227.078 31.1406C227.078 30.7813 227.484 30.5156 228.297 30.3438C230.156 29.9688 231.438 29.5859 232.141 29.1953C233.109 28.6484 233.773 28.375 234.133 28.375C234.492 28.375 234.672 28.5547 234.672 28.9141C234.672 29.0859 234.641 29.2656 234.578 29.4531C234.219 30.5313 234.039 32.6563 234.039 35.8281V43.0703C234.039 45.8203 234.133 47.5 234.32 48.1094C234.523 48.7188 234.742 49.0938 234.977 49.2344C235.211 49.3594 235.508 49.4219 235.867 49.4219L237.039 49.3047C237.617 49.3047 237.906 49.5313 237.906 49.9844C237.906 50.5625 237.383 50.8516 236.336 50.8516C235.742 50.8516 235.102 50.7891 234.414 50.6641C233.742 50.5547 233.016 50.5 232.234 50.5C231.453 50.5 230.711 50.5547 230.008 50.6641C229.305 50.7891 228.656 50.8516 228.063 50.8516ZM262.047 28.5859C262.688 28.5859 263.008 28.7813 263.008 29.1719C263.008 29.5 262.711 29.7734 262.117 29.9922C261.523 30.1953 261.078 30.3906 260.781 30.5781C260.5 30.75 260.219 31.0078 259.938 31.3516C259.469 31.9453 258.852 33.1016 258.086 34.8203L250.984 50.4063C250.766 50.8594 250.555 51.0859 250.352 51.0859C250.039 51.0859 249.789 50.8594 249.602 50.4063L241.727 32.9922C241.258 31.9922 240.906 31.3359 240.672 31.0234C240.266 30.5391 239.719 30.2109 239.031 30.0391C238.344 29.8672 238 29.5703 238 29.1484C238 29.0078 238.086 28.8828 238.258 28.7734C238.414 28.6484 238.648 28.5859 238.961 28.5859L242.594 28.8438C243.578 28.8438 244.32 28.8125 244.82 28.75C245.695 28.6406 246.414 28.5859 246.977 28.5859C248.102 28.5859 248.664 28.8125 248.664 29.2656C248.664 29.7344 248.008 30 246.695 30.0625C245.727 30.1094 245.242 30.4297 245.242 31.0234C245.242 31.5391 245.414 32.1563 245.758 32.875L251.336 45.1563L256.188 33.9063C256.781 32.5156 257.078 31.6016 257.078 31.1641C257.078 30.7266 256.969 30.4453 256.75 30.3203C256.531 30.1953 256.109 30.1094 255.484 30.0625C254.875 30 254.43 29.9141 254.148 29.8047C253.883 29.6953 253.75 29.5156 253.75 29.2656C253.75 28.8125 254.281 28.5859 255.344 28.5859L259.328 28.8203L262.047 28.5859ZM266.781 47.875C265.875 46.8594 265.172 45.6641 264.672 44.2891C264.187 42.9141 263.945 41.3906 263.945 39.7188C263.945 38.0313 264.234 36.4844 264.812 35.0781C265.391 33.6719 266.187 32.4688 267.203 31.4688C269.312 29.3906 271.914 28.3516 275.008 28.3516C277.57 28.3516 279.641 29.1953 281.219 30.8828C282.719 32.5078 283.469 34.5156 283.469 36.9063C283.469 37.6875 283.359 38.2266 283.141 38.5234C282.937 38.8047 282.68 38.9766 282.367 39.0391C282.055 39.0859 281.625 39.1328 281.078 39.1797C280.531 39.2109 279.867 39.25 279.086 39.2969C278.305 39.3438 277.43 39.3906 276.461 39.4375C275.508 39.4844 274.531 39.5391 273.531 39.6016C271.234 39.7422 269.391 39.8828 268 40.0234C268.344 44.2266 269.953 46.9531 272.828 48.2031C273.766 48.6094 274.766 48.8125 275.828 48.8125C278.078 48.8125 279.859 48.1563 281.172 46.8438C281.734 46.2813 282.164 46 282.461 46C283.023 46 283.305 46.3359 283.305 47.0078C283.305 47.3516 283.07 47.7656 282.602 48.25C282.133 48.7344 281.461 49.2344 280.586 49.75C279.039 50.6406 277.234 51.0859 275.172 51.0859C273.109 51.0859 271.422 50.8047 270.109 50.2422C268.812 49.6641 267.703 48.875 266.781 47.875ZM267.953 38.2891C275.281 37.9141 279.141 37.5156 279.531 37.0938C279.672 36.9375 279.742 36.4766 279.742 35.7109C279.742 34.9453 279.594 34.2031 279.297 33.4844C279 32.75 278.602 32.125 278.102 31.6094C277.07 30.5625 275.789 30.0391 274.258 30.0391C272.523 30.0391 271.062 30.7656 269.875 32.2188C268.625 33.7344 267.984 35.7578 267.953 38.2891ZM300.602 50.8516C299.586 50.8516 299.078 50.5625 299.078 49.9844C299.078 49.5313 299.359 49.3047 299.922 49.3047L301.07 49.4219C302.008 49.4219 302.641 48.8984 302.969 47.8516C303.234 46.9609 303.367 45.3672 303.367 43.0703V26.5234C303.367 24.2266 303.258 22.7266 303.039 22.0235C302.82 21.3047 302.555 20.8203 302.242 20.5703C301.945 20.3047 301.555 20.1719 301.07 20.1719L299.922 20.2656C299.359 20.2656 299.078 20.0391 299.078 19.586C299.078 19.0078 299.508 18.7188 300.367 18.7188C301.227 18.7188 302.039 18.7813 302.805 18.9063C303.586 19.0313 304.445 19.0938 305.383 19.0938C306.336 19.0938 307.172 19.0313 307.891 18.9063C308.625 18.7813 309.266 18.7188 309.812 18.7188C313.156 18.7188 315.859 19.7344 317.922 21.7656C319.797 23.625 320.734 25.8672 320.734 28.4922C320.734 30.9141 319.797 33.0234 317.922 34.8203C316.078 36.5703 313.969 37.4453 311.594 37.4453C309.766 37.4453 308.516 37.0859 307.844 36.3672C307.641 36.1484 307.539 35.9141 307.539 35.6641C307.539 35.3984 307.609 35.2031 307.75 35.0781C307.906 34.9375 308.094 34.8672 308.312 34.8672C308.531 34.8672 308.836 35.0156 309.227 35.3125C309.836 35.75 310.594 35.9688 311.5 35.9688C312.406 35.9688 313.172 35.7969 313.797 35.4531C314.437 35.0938 314.977 34.5938 315.414 33.9531C316.32 32.625 316.773 30.8359 316.773 28.5859C316.773 26.0547 316.07 24.0391 314.664 22.5391C313.305 21.086 311.539 20.3594 309.367 20.3594C308.57 20.3594 307.984 20.4688 307.609 20.6875C307.234 20.9063 307.047 21.2813 307.047 21.8125V43.0703C307.047 45.4297 307.148 46.9531 307.352 47.6406C307.57 48.3125 307.828 48.7813 308.125 49.0469C308.437 49.2969 308.844 49.4219 309.344 49.4219L310.469 49.3047C311.031 49.3047 311.312 49.5313 311.312 49.9844C311.312 50.5625 310.812 50.8516 309.812 50.8516C309.297 50.8516 308.75 50.8047 308.172 50.7109C306.297 50.4141 304.687 50.3594 303.344 50.5469C302.016 50.75 301.102 50.8516 300.602 50.8516ZM345.859 47.3594C346.312 47.3594 346.539 47.5703 346.539 47.9922C346.539 48.3984 346.086 48.7891 345.18 49.1641C344.273 49.5391 343.641 49.8828 343.281 50.1953C342.922 50.4922 342.656 50.7109 342.484 50.8516C342.312 51.0078 342.109 51.0859 341.875 51.0859C341.406 51.0859 341.016 50.8906 340.703 50.5C340.391 50.1094 339.969 49.2734 339.437 47.9922C338.547 49.0078 337.461 49.7813 336.18 50.3125C334.914 50.8281 333.656 51.0859 332.406 51.0859C330.047 51.0859 328.219 50.4844 326.922 49.2813C325.625 48.0781 324.977 46.4297 324.977 44.3359C324.977 42.2422 325.953 40.5469 327.906 39.25C329.875 37.9375 332.383 37.2813 335.43 37.2813C336.336 37.2813 337.531 37.4375 339.016 37.75V35.9219C339.016 31.9063 337.32 29.8984 333.93 29.8984C332.133 29.8984 330.812 30.7266 329.969 32.3828C329.234 33.8672 328.516 34.6094 327.812 34.6094C327.297 34.6094 326.844 34.4609 326.453 34.1641C326.078 33.8672 325.891 33.4922 325.891 33.0391C325.891 32.5859 326.125 32.0859 326.594 31.5391C327.062 30.9766 327.687 30.4688 328.469 30.0156C330.312 28.9375 332.336 28.3984 334.539 28.3984C338.445 28.3984 340.969 29.6719 342.109 32.2188C342.531 33.125 342.742 34.2344 342.742 35.5469V44.8984C342.742 46.1016 342.859 46.875 343.094 47.2188C343.328 47.5625 343.656 47.7344 344.078 47.7344C344.5 47.7344 344.844 47.6719 345.109 47.5469C345.375 47.4219 345.625 47.3594 345.859 47.3594ZM339.016 39.9297C337.891 39.2891 336.469 38.9688 334.75 38.9688C333.031 38.9688 331.648 39.3984 330.602 40.2578C329.57 41.1172 329.055 42.2734 329.055 43.7266C329.055 45.1641 329.453 46.3672 330.25 47.3359C331.047 48.2891 332.07 48.7656 333.32 48.7656C335.992 48.7656 337.914 47.8906 339.086 46.1406C339.039 45.7031 339.016 45.2188 339.016 44.6875V39.9297ZM348.883 58.7266L350.852 58.8906C351.055 58.8906 351.219 58.8437 351.344 58.75C351.469 58.6562 351.57 58.4375 351.648 58.0937C351.789 57.4687 351.859 56.0937 351.859 53.9687V36.0391C351.859 34.5703 351.742 33.6172 351.508 33.1797C351.273 32.7266 351.023 32.4219 350.758 32.2656C350.492 32.1094 350.062 31.9844 349.469 31.8906C348.891 31.7969 348.602 31.5547 348.602 31.1641C348.602 30.8047 349 30.5469 349.797 30.3906C351.672 30 352.961 29.6016 353.664 29.1953C354.617 28.6641 355.258 28.3984 355.586 28.3984C355.945 28.3984 356.125 28.5781 356.125 28.9375C356.125 29.1094 356.086 29.2891 356.008 29.4766C355.945 29.6641 355.875 29.8828 355.797 30.1328C355.687 30.5391 355.602 31.3125 355.539 32.4531C357.445 29.75 359.852 28.3984 362.758 28.3984C365.711 28.3984 368.062 29.4531 369.812 31.5625C371.5 33.6094 372.344 36.2656 372.344 39.5313C372.344 42.7344 371.297 45.4531 369.203 47.6875C367.094 49.9531 364.484 51.0859 361.375 51.0859C359.125 51.0859 357.164 50.4922 355.492 49.3047V53.9687C355.492 56.9219 355.617 58.5156 355.867 58.75C355.977 58.8437 356.117 58.8906 356.289 58.8906L359.43 58.6328C359.742 58.6328 359.992 58.7266 360.18 58.9141C360.367 59.1172 360.461 59.3281 360.461 59.5469C360.461 60.2187 359.891 60.5547 358.75 60.5547L353.805 60.2031C353.008 60.2031 352.25 60.2578 351.531 60.3672C350.828 60.4922 350.18 60.5547 349.586 60.5547C348.992 60.5547 348.578 60.4453 348.344 60.2266C348.125 60.0234 348.016 59.8047 348.016 59.5703C348.016 59.3359 348.094 59.1328 348.25 58.9609C348.406 58.8047 348.617 58.7266 348.883 58.7266ZM355.492 45.3203C356.414 47.2266 357.937 48.4766 360.062 49.0703C360.734 49.2578 361.453 49.3516 362.219 49.3516C362.984 49.3516 363.75 49.1875 364.516 48.8594C365.297 48.5156 365.977 47.9922 366.555 47.2891C367.82 45.7422 368.453 43.5859 368.453 40.8203C368.453 37.7422 367.789 35.2813 366.461 33.4375C365.211 31.6875 363.641 30.8125 361.75 30.8125C359.812 30.8125 358.109 31.6563 356.641 33.3438C356.187 33.875 355.805 34.4688 355.492 35.125V45.3203ZM379 47.875C378.094 46.8594 377.391 45.6641 376.891 44.2891C376.406 42.9141 376.164 41.3906 376.164 39.7188C376.164 38.0313 376.453 36.4844 377.031 35.0781C377.609 33.6719 378.406 32.4688 379.422 31.4688C381.531 29.3906 384.133 28.3516 387.226 28.3516C389.789 28.3516 391.859 29.1953 393.437 30.8828C394.937 32.5078 395.687 34.5156 395.687 36.9063C395.687 37.6875 395.578 38.2266 395.359 38.5234C395.156 38.8047 394.898 38.9766 394.586 39.0391C394.273 39.0859 393.844 39.1328 393.297 39.1797C392.75 39.2109 392.086 39.25 391.305 39.2969C390.523 39.3438 389.648 39.3906 388.68 39.4375C387.726 39.4844 386.75 39.5391 385.75 39.6016C383.453 39.7422 381.609 39.8828 380.219 40.0234C380.562 44.2266 382.172 46.9531 385.047 48.2031C385.984 48.6094 386.984 48.8125 388.047 48.8125C390.297 48.8125 392.078 48.1563 393.391 46.8438C393.953 46.2813 394.383 46 394.68 46C395.242 46 395.523 46.3359 395.523 47.0078C395.523 47.3516 395.289 47.7656 394.82 48.25C394.351 48.7344 393.68 49.2344 392.805 49.75C391.258 50.6406 389.453 51.0859 387.391 51.0859C385.328 51.0859 383.641 50.8047 382.328 50.2422C381.031 49.6641 379.922 48.875 379 47.875ZM380.172 38.2891C387.5 37.9141 391.359 37.5156 391.75 37.0938C391.891 36.9375 391.961 36.4766 391.961 35.7109C391.961 34.9453 391.812 34.2031 391.516 33.4844C391.219 32.75 390.82 32.125 390.32 31.6094C389.289 30.5625 388.008 30.0391 386.476 30.0391C384.742 30.0391 383.281 30.7656 382.094 32.2188C380.844 33.7344 380.203 35.7578 380.172 38.2891ZM400.117 50.8516C399.07 50.8516 398.547 50.5625 398.547 49.9844C398.547 49.5313 398.836 49.3047 399.414 49.3047L400.586 49.4219C400.945 49.4219 401.242 49.3594 401.476 49.2344C401.711 49.0938 401.891 48.8047 402.016 48.3672C402.266 47.5703 402.391 45.8047 402.391 43.0703V36.0625C402.391 34.4688 402.289 33.4766 402.086 33.0859C401.898 32.6797 401.664 32.4063 401.383 32.2656C401.117 32.1094 400.672 31.9844 400.047 31.8906C399.437 31.7969 399.133 31.5547 399.133 31.1641C399.133 30.8047 399.531 30.5469 400.328 30.3906C402.187 30 403.469 29.6094 404.172 29.2188C405.125 28.6719 405.773 28.3984 406.117 28.3984C406.476 28.3984 406.656 28.5781 406.656 28.9375C406.656 29.1094 406.617 29.2891 406.539 29.4766C406.476 29.6641 406.406 29.8906 406.328 30.1563C406.203 30.6875 406.109 31.6875 406.047 33.1563C407.406 30.875 409.047 29.4531 410.969 28.8906C411.531 28.7188 412.156 28.6328 412.844 28.6328C413.547 28.6328 414.164 28.8828 414.695 29.3828C415.242 29.8828 415.516 30.4141 415.516 30.9766C415.516 31.5391 415.453 31.9531 415.328 32.2188C415.203 32.4844 415.047 32.7109 414.859 32.8984C414.453 33.3047 414.086 33.5078 413.758 33.5078C413.445 33.5078 413.203 33.4297 413.031 33.2734C412.859 33.1016 412.664 32.7969 412.445 32.3594C412.055 31.5781 411.617 31.1875 411.133 31.1875C410.648 31.1875 410.187 31.2969 409.75 31.5156C409.312 31.7188 408.875 32.0313 408.437 32.4531C407.484 33.3438 406.68 34.5547 406.023 36.0859V43.0703C406.023 46.0391 406.101 47.7891 406.258 48.3203C406.43 48.8359 406.633 49.1484 406.867 49.2578C407.117 49.3516 407.453 49.3984 407.875 49.3984L409.961 49.2109C410.273 49.2109 410.523 49.2891 410.711 49.4453C410.898 49.5859 410.992 49.7656 410.992 49.9844C410.992 50.5625 410.422 50.8516 409.281 50.8516L404.336 50.5C403.539 50.5 402.781 50.5547 402.062 50.6641C401.359 50.7891 400.711 50.8516 400.117 50.8516Z" fill="white"/>
<path d="M381.036 97.9817C381.365 98.3475 382.248 98.2741 382.652 98.2918C385.428 98.4131 388.248 98.4109 390.996 97.9497C400.148 96.4133 409.112 94.5566 417.697 90.9205C431.627 85.021 444.32 75.8946 455.033 65.2653C459.811 60.5239 463.933 55.1756 468.145 49.9409C470.523 46.9864 472.63 43.8508 474.546 40.5855" stroke="white" stroke-width="2.25" stroke-linecap="round"/>
<path d="M474.573 40.4247C474.705 40.3298 474.816 40.2616 474.98 40.2166C476.011 39.9348 477.035 39.8169 477.99 39.3332C479.59 38.5239 481.132 37.6151 482.703 36.7511C486.324 34.7591 488.522 31.2756 489.491 27.3261C490.116 24.7795 490.167 22.1347 490.203 19.5227C490.233 17.3905 490.407 15.2498 490.709 13.1385C490.928 11.6099 491.139 10.0826 491.719 8.64252C491.853 8.30995 491.908 7.92988 492.076 7.61232C492.161 7.44939 491.985 7.66613 491.954 7.7055C491.623 8.12002 491.331 8.56619 490.995 8.9761C490.591 9.46934 490.092 9.87292 489.611 10.2881C488.209 11.4999 486.563 12.2968 484.893 13.0748C483.513 13.7179 482.251 14.6584 481.028 15.5525C480.265 16.11 479.598 16.7675 478.947 17.4482C478.102 18.3307 477.235 19.2381 476.586 20.277C475.506 22.0061 474.714 24.0946 474.245 26.0711C473.719 28.2866 473.54 30.6542 473.537 32.929C473.535 34.8408 473.66 36.7409 473.864 38.642C473.952 39.4684 473.965 40.2998 474.05 41.1226" stroke="white" stroke-width="2.25" stroke-linecap="round"/>
<path d="M455.892 64.2501C456.051 64.4727 456.231 64.6022 456.444 64.7843C457.995 66.1096 459.59 67.273 461.416 68.1906C463.014 68.993 464.917 69.4556 466.691 69.6551C468.494 69.8577 470.279 69.9644 472.044 69.4675C476.235 68.2875 479.628 65.3151 483.248 63.044C485.302 61.7553 487.613 60.822 489.891 60.0071C490.839 59.6677 491.794 59.3056 492.756 59.0078C493.301 58.8391 492.03 58.7828 491.88 58.7581C490.369 58.5088 488.833 58.4277 487.328 58.1345C483.125 57.3155 479.039 55.776 474.695 56.0288C473.681 56.0878 472.673 56.2908 471.666 56.422C470.652 56.5543 469.636 56.7859 468.661 57.0999C466.735 57.7205 464.973 58.7063 463.188 59.6452C460.656 60.9766 458.589 62.9587 456.142 64.4098" stroke="white" stroke-width="2.25" stroke-linecap="round"/>
<path d="M437.983 78.4458C438.68 77.9458 439.215 77.2263 439.744 76.5639C441.247 74.6847 442.6 72.6636 443.316 70.3505C444.061 67.9479 444.331 65.44 444.132 62.9303C443.745 58.0442 441.204 53.8299 439.755 49.2434C439.054 47.0258 438.782 44.8066 438.634 42.4964C438.596 41.9162 438.606 41.845 438.219 42.2658C436.713 43.9008 434.998 45.4347 433.635 47.1884C432.729 48.3534 431.806 49.5819 431.174 50.9205C430.297 52.7805 429.773 54.8619 429.515 56.8957C428.962 61.2469 429.61 65.7541 431.661 69.6471C433.333 72.8185 435.46 75.7112 437.102 78.9044" stroke="white" stroke-width="2.25" stroke-linecap="round"/>
<path d="M419.933 90.4802C419.843 90.564 419.88 90.797 419.914 90.8963C420.38 92.253 421.447 93.442 422.309 94.5594C423.343 95.9004 424.336 97.2754 425.401 98.5928C426.738 100.245 428.467 101.67 430.24 102.829C431.947 103.946 433.615 104.747 435.625 105.168C437.965 105.658 440.328 105.328 442.628 104.828C444.653 104.389 446.631 103.97 448.693 103.686C450.25 103.472 451.823 103.182 453.399 103.287C454.165 103.338 455.049 103.315 455.732 103.719C456.441 104.139 455.295 103.627 455.11 103.54C453.596 102.823 452.214 101.996 450.944 100.901C447.999 98.3623 445.484 95.2295 442.04 93.3234C438.383 91.2997 434.178 90.3119 430.021 90.063C427.027 89.8837 424.12 90.2822 421.166 90.6836" stroke="white" stroke-width="2.25" stroke-linecap="round"/>
<path d="M398.145 95.9046C399.127 95.2007 400.185 94.6221 401.208 93.9877C404.592 91.8903 405.977 88.1804 406.496 84.3893C407.675 75.7812 403.887 67.429 405.373 58.818C405.427 58.5067 405.598 57.8085 405.262 58.5854C404.631 60.0434 404.051 61.4692 403.247 62.8504C402.233 64.592 400.752 65.9058 399.436 67.4101C398.737 68.2097 398.06 68.999 397.481 69.8928C396.136 71.9709 395.411 74.471 394.659 76.8102C393.274 81.116 393.121 85.6586 394.593 89.9616C395.073 91.3646 395.715 92.6717 396.299 94.0286C396.628 94.7932 396.948 95.6334 397.435 96.3134" stroke="white" stroke-width="2.25" stroke-linecap="round"/>
<path d="M474.82 38.0159C475.337 37.6454 475.916 37.3563 476.435 36.9821C478.6 35.4201 480.521 33.4189 482.116 31.2814C482.644 30.5744 483.069 29.794 483.486 29.0186C484.221 27.6492 484.881 26.2482 485.354 24.7642C486.138 22.2986 486.357 19.7557 486.283 17.1837" stroke="white" stroke-width="1.5" stroke-linecap="round"/>
<path d="M457.063 64.4636C457.753 63.9693 458.566 63.6138 459.334 63.264C460.137 62.8981 460.978 62.6441 461.812 62.3621C462.875 62.0029 463.935 61.6393 465.021 61.3559C467.519 60.7043 470.13 60.3358 472.692 60.0438C474.304 59.8601 475.858 60.0571 477.457 60.2692" stroke="white" stroke-width="1.5" stroke-linecap="round"/>
<path d="M436.825 77.908C438.303 74.8864 438.303 71.2541 438.291 67.9804C438.274 63.5405 436.97 59.1815 436.24 54.8216" stroke="white" stroke-width="1.5" stroke-linecap="round"/>
<path d="M420.525 90.8325C420.701 90.7365 421.237 91.29 421.313 91.35C422.587 92.3544 424.005 93.2952 425.452 94.0217C427.587 95.0942 430.018 95.486 432.303 96.1181C433.617 96.4813 434.967 96.8137 436.199 97.4094C437.526 98.0516 438.636 98.8677 439.764 99.804" stroke="white" stroke-width="1.5" stroke-linecap="round"/>
<path d="M396.595 95.4151C396.66 95.3801 396.693 95.4231 396.764 95.3609C397.89 94.3703 398.481 93.0421 398.853 91.6243C399.134 90.5525 399.255 89.6172 399.226 88.5253C399.199 87.5376 399.161 86.5506 399.134 85.5631C399.071 83.2091 399.07 80.895 399.625 78.5898C399.879 77.5324 400.32 76.4858 400.773 75.4978" stroke="white" stroke-width="1.5" stroke-linecap="round"/>
<path d="M144.408 97.9817C144.079 98.3475 143.195 98.2741 142.792 98.2918C140.015 98.4131 137.196 98.4109 134.448 97.9497C125.296 96.4133 116.332 94.5566 107.747 90.9205C93.8169 85.021 81.1242 75.8946 70.4112 65.2653C65.6325 60.5239 61.5112 55.1756 57.2984 49.9409C54.9207 46.9864 52.8137 43.8508 50.8977 40.5855" stroke="white" stroke-width="2.25" stroke-linecap="round"/>
<path d="M50.8708 40.4247C50.7384 40.3298 50.6281 40.2616 50.4636 40.2166C49.4331 39.9348 48.4093 39.8169 47.4534 39.3332C45.854 38.5239 44.3122 37.6151 42.7413 36.7511C39.1195 34.7591 36.922 31.2756 35.9526 27.3261C35.3276 24.7795 35.2773 22.1347 35.2405 19.5227C35.2105 17.3905 35.0369 15.2498 34.7346 13.1385C34.5158 11.6099 34.3051 10.0826 33.7247 8.64252C33.5907 8.30995 33.5358 7.92988 33.3683 7.61232C33.2824 7.44939 33.4586 7.66613 33.49 7.7055C33.8207 8.12002 34.1126 8.56619 34.4488 8.9761C34.8533 9.46934 35.3521 9.87292 35.8326 10.2881C37.2351 11.4999 38.8805 12.2968 40.5506 13.0748C41.9313 13.7179 43.1924 14.6584 44.4161 15.5525C45.179 16.11 45.8458 16.7675 46.4973 17.4482C47.342 18.3307 48.209 19.2381 48.8578 20.277C49.9377 22.0061 50.7294 24.0946 51.1987 26.0711C51.7247 28.2866 51.9034 30.6542 51.9065 32.929C51.909 34.8408 51.7839 36.7409 51.5803 38.642C51.4918 39.4684 51.4785 40.2998 51.3936 41.1226" stroke="white" stroke-width="2.25" stroke-linecap="round"/>
<path d="M69.5525 64.2501C69.393 64.4727 69.2133 64.6022 69.0002 64.7843C67.4487 66.1096 65.8543 67.273 64.0278 68.1906C62.4305 68.993 60.5268 69.4556 58.7528 69.6551C56.9505 69.8577 55.1654 69.9644 53.4004 69.4675C49.2089 68.2875 45.8156 65.3151 42.1961 63.044C40.1423 61.7553 37.831 60.822 35.5534 60.0071C34.6048 59.6677 33.6505 59.3056 32.6884 59.0078C32.1435 58.8391 33.4144 58.7828 33.5641 58.7581C35.0754 58.5088 36.6114 58.4277 38.1158 58.1345C42.3193 57.3155 46.405 55.776 50.7495 56.0288C51.7631 56.0878 52.7713 56.2908 53.7778 56.422C54.7925 56.5543 55.8084 56.7859 56.7828 57.0999C58.7086 57.7205 60.4713 58.7063 62.2564 59.6452C64.7878 60.9766 66.8551 62.9587 69.3025 64.4098" stroke="white" stroke-width="2.25" stroke-linecap="round"/>
<path d="M87.461 78.4458C86.7635 77.9458 86.2291 77.2263 85.6994 76.5639C84.197 74.6847 82.8441 72.6636 82.1275 70.3505C81.3832 67.9479 81.1131 65.44 81.3118 62.9303C81.6986 58.0442 84.24 53.8299 85.689 49.2434C86.3897 47.0258 86.6617 44.8066 86.8102 42.4964C86.8474 41.9162 86.8374 41.845 87.2251 42.2658C88.7311 43.9008 90.4454 45.4347 91.8087 47.1884C92.7145 48.3534 93.6381 49.5819 94.2697 50.9205C95.1473 52.7805 95.6705 54.8619 95.9291 56.8957C96.4822 61.2469 95.8339 65.7541 93.7824 69.6471C92.1113 72.8185 89.9834 75.7112 88.3418 78.9044" stroke="white" stroke-width="2.25" stroke-linecap="round"/>
<path d="M105.511 90.4802C105.601 90.564 105.563 90.797 105.529 90.8963C105.064 92.253 103.997 93.442 103.135 94.5594C102.101 95.9004 101.108 97.2754 100.043 98.5928C98.7058 100.245 96.9767 101.67 95.2043 102.829C93.4971 103.946 91.829 104.747 89.8187 105.168C87.4793 105.658 85.1162 105.328 82.8159 104.828C80.7904 104.389 78.813 103.97 76.7505 103.686C75.1943 103.472 73.6211 103.182 72.0447 103.287C71.2787 103.338 70.3948 103.315 69.7123 103.719C69.0027 104.139 70.1491 103.627 70.3335 103.54C71.8477 102.823 73.2298 101.996 74.5001 100.901C77.4447 98.3623 79.9599 95.2295 83.4038 93.3234C87.0603 91.2997 91.2659 90.3119 95.4231 90.063C98.4172 89.8837 101.324 90.2822 104.278 90.6836" stroke="white" stroke-width="2.25" stroke-linecap="round"/>
<path d="M127.298 95.9046C126.316 95.2007 125.259 94.6221 124.235 93.9877C120.852 91.8903 119.467 88.1804 118.948 84.3893C117.768 75.7812 121.557 67.429 120.071 58.818C120.017 58.5067 119.846 57.8085 120.182 58.5854C120.813 60.0434 121.393 61.4692 122.197 62.8504C123.211 64.592 124.692 65.9058 126.007 67.4101C126.707 68.2097 127.384 68.999 127.962 69.8928C129.308 71.9709 130.033 74.471 130.785 76.8102C132.17 81.116 132.323 85.6586 130.851 89.9616C130.37 91.3646 129.729 92.6717 129.145 94.0286C128.816 94.7932 128.496 95.6334 128.009 96.3134" stroke="white" stroke-width="2.25" stroke-linecap="round"/>
<path d="M50.624 38.0159C50.1071 37.6454 49.5279 37.3563 49.0093 36.9821C46.8441 35.4201 44.9235 33.4189 43.3282 31.2814C42.8005 30.5744 42.3749 29.794 41.9584 29.0186C41.2229 27.6492 40.5627 26.2482 40.0904 24.7642C39.3056 22.2986 39.0872 19.7557 39.1608 17.1837" stroke="white" stroke-width="1.5" stroke-linecap="round"/>
<path d="M68.3809 64.4636C67.6913 63.9693 66.8778 63.6138 66.1099 63.264C65.3067 62.8981 64.4659 62.6441 63.6315 62.3621C62.5685 62.0029 61.5092 61.6393 60.4225 61.3559C57.9248 60.7043 55.3139 60.3358 52.7516 60.0438C51.1401 59.8601 49.5855 60.0571 47.9871 60.2692" stroke="white" stroke-width="1.5" stroke-linecap="round"/>
<path d="M88.6191 77.908C87.1412 74.8864 87.1406 71.2541 87.1531 67.9804C87.1701 63.5405 88.4736 59.1815 89.2035 54.8216" stroke="white" stroke-width="1.5" stroke-linecap="round"/>
<path d="M104.919 90.8325C104.743 90.7365 104.207 91.29 104.131 91.35C102.857 92.3544 101.438 93.2952 99.9919 94.0217C97.8564 95.0942 95.4261 95.486 93.1407 96.1181C91.8273 96.4813 90.4765 96.8137 89.2451 97.4094C87.9175 98.0516 86.8074 98.8677 85.68 99.804" stroke="white" stroke-width="1.5" stroke-linecap="round"/>
<path d="M128.849 95.4151C128.784 95.3801 128.751 95.4231 128.68 95.3609C127.554 94.3703 126.963 93.0421 126.591 91.6243C126.31 90.5525 126.189 89.6172 126.218 88.5253C126.245 87.5376 126.283 86.5506 126.309 85.5631C126.373 83.2091 126.374 80.895 125.819 78.5898C125.564 77.5324 125.124 76.4858 124.671 75.4978" stroke="white" stroke-width="1.5" stroke-linecap="round"/>
<path d="M268.793 103.275C268.793 100.708 267.282 98.5262 265.183 97.1905C263.903 96.3756 261.666 96.7247 260.227 96.7247C258.957 96.7247 257.617 97.7825 256.77 98.6606C255.515 99.9627 255.41 102.094 255.431 103.77C255.469 106.805 257.924 108.3 260.555 108.711C262.449 109.007 264.947 108.318 266.369 107.001C267.67 105.797 268.138 105.034 268.138 103.275" stroke="white" stroke-width="2.25" stroke-linecap="round"/>
<path d="M268.033 99.7864C269.608 99.7864 271.188 99.2622 272.68 98.7889C275.779 97.8055 278.942 97.6074 282.168 97.3283C284.931 97.0892 287.669 96.8303 290.441 96.7226C291.804 96.6697 293.128 96.6286 294.466 96.9522C295.741 97.2603 297.132 97.6352 298.124 98.5435C299.659 99.9494 301.227 102.403 300.491 104.552C299.756 106.696 297.898 108.148 297.079 110.244C296.356 112.095 296.671 114.137 297.031 116.039C297.432 118.156 297.475 120.37 296.43 122.293C295.645 123.738 294.388 123.841 293.085 124.585C291.22 125.651 290.71 128.404 289.994 130.25C289.281 132.086 287.498 133.611 285.465 133.63C282.649 133.656 280.404 132.41 278.222 130.713C273.423 126.98 269.904 122.011 267.502 116.467C267.069 115.467 266.653 114.47 266.18 113.49C265.751 112.601 265.118 111.631 264.902 110.66C264.842 110.392 264.736 110.079 264.613 109.833C264.505 109.618 264.254 109.469 264.185 109.263" stroke="white" stroke-width="2.25" stroke-linecap="round"/>
<path d="M268.446 99.5243C268.704 99.5243 268.816 99.456 269.04 99.3328C269.761 98.9358 270.509 98.7429 271.21 98.3688C272.888 97.474 274.95 97.3799 276.713 96.6451C278.835 95.761 280.807 94.4917 282.951 93.6382C284.858 92.8789 286.922 91.8752 288.492 90.5355C290.27 89.0181 292.806 87.2391 292.686 84.5984C292.603 82.7609 290.845 80.2762 289.13 79.6443C287.661 79.1032 286.278 79.7592 284.789 79.7592C283.645 79.7592 282.093 79.7741 281.137 79.0953C280.539 78.67 280.074 78.1027 279.593 77.5504C278.344 76.1166 277.676 74.4235 276.037 73.3305C274.761 72.4798 273.218 72.3332 271.747 72.7623C270.244 73.2006 268.614 73.6335 267.041 73.2092C266.257 72.9975 265.346 72.8489 264.654 72.4048C263.982 71.9738 263.373 71.4651 262.726 71.0003C261.388 70.039 259.842 68.5397 258.053 69.1362C256.69 69.5904 256.173 71.4054 255.876 72.6474C255.435 74.4873 255.434 76.6442 255.646 78.5271C256.094 82.5088 257.034 86.3713 258.308 90.1653C259.027 92.3057 259.35 94.5907 260.287 96.6515" stroke="white" stroke-width="2.25" stroke-linecap="round"/>
<path d="M259.712 96.7664C259.712 95.6133 258.994 94.6231 258.448 93.6382C257.966 92.7682 257.414 91.8881 257.006 90.9825C256.566 90.0078 256.32 88.9648 255.78 88.033C254.512 85.8455 252.875 83.8687 251.554 81.7128C250.442 79.8984 249.161 78.2526 247.57 76.8354C246.181 75.5988 244.606 74.622 242.731 74.3839C241.08 74.1743 240.777 76.3615 240.662 77.4993C240.504 79.0704 240.961 81.2487 239.143 81.9171C237.817 82.4048 236.297 82.4366 234.904 82.5236C233.77 82.5945 232.242 82.7863 231.444 83.6727C230.166 85.0926 231.239 87.4869 231.323 89.1247C231.413 90.8936 231.34 92.9628 230.007 94.2958C228.365 95.9384 226.675 97.0652 226.752 99.6648C226.825 102.165 228.093 105.048 230.544 106.011C231.628 106.437 233.027 106.264 234.157 106.125C235.973 105.902 237.701 105.542 239.488 105.161C243.17 104.378 246.868 105.18 250.551 104.632C251.609 104.474 252.666 104.121 253.737 104.121" stroke="white" stroke-width="2.25" stroke-linecap="round"/>
<path d="M254.702 104.928C250.625 104.928 246.807 105.972 242.782 106.364C238.152 106.816 233.698 108.187 229.133 108.999C227.236 109.336 225.302 109.982 224.171 111.606C222.496 114.01 224.285 115.9 225.967 117.553C227.307 118.869 228.855 120.182 229.199 122.116C229.472 123.645 229.104 125.111 229.918 126.519C231.938 130.013 235.577 126.013 238.279 126.013C240.388 126.013 241.95 128.23 243.228 129.605C244.402 130.87 246.266 132.953 248.25 132.519C249.999 132.136 251.093 130.22 252.068 128.847C253.674 126.585 254.445 123.381 255.128 120.745C256.078 117.074 256.001 112.745 257.695 109.358" stroke="white" stroke-width="2.25" stroke-linecap="round"/>
<path d="M264.853 109.146C264.874 109.321 265.087 109.603 265.165 109.76C265.854 111.137 266.564 112.474 267.182 113.89C267.81 115.329 268.304 116.85 269.048 118.236C270.342 120.649 271.418 123.191 272.811 125.548C273.61 126.901 274.458 128.221 275.259 129.57C276.133 131.042 277.092 132.465 277.373 134.186C277.548 135.257 277.33 136.36 276.834 137.329C276.331 138.312 275.453 138.895 274.661 139.621C273.952 140.271 273.266 140.902 272.595 141.584C271.838 142.354 271.249 143.446 270.18 143.832C268.743 144.351 267.428 143.327 266.308 142.554C265.112 141.728 263.925 140.852 262.814 139.912C261.074 138.44 258.297 138.726 256.209 139.087C254.861 139.321 253.061 139.475 251.804 138.855C249.861 137.898 248.339 135.865 248.159 133.701" stroke="white" stroke-width="2.25" stroke-linecap="round"/>
<path d="M269.335 103.607C275.292 103.607 281.004 105.219 286.78 106.493" stroke="white" stroke-width="1.5" stroke-linecap="round"/>
<path d="M268.565 105.082C273.92 107.35 279.176 109.752 283.83 113.292" stroke="white" stroke-width="1.5" stroke-linecap="round"/>
<path d="M267.026 107.391C269.255 109.367 271.401 111.446 273.586 113.47C276.273 115.959 278.882 118.516 281.393 121.181" stroke="white" stroke-width="1.5" stroke-linecap="round"/>
<path d="M260.248 109.527C261.34 111.929 262.065 114.732 262.909 117.196C264.257 121.128 265.609 125.058 266.865 129.02" stroke="white" stroke-width="1.5" stroke-linecap="round"/>
<path d="M259.817 110.534C259.404 112.562 259.047 114.609 258.838 116.668C258.48 120.179 258.812 123.715 259.025 127.222" stroke="white" stroke-width="1.5" stroke-linecap="round"/>
<path d="M255.793 108.048C248.299 109.175 240.561 109.896 233.647 113.203" stroke="white" stroke-width="1.5" stroke-linecap="round"/>
<path d="M256.01 109.137C255.694 109.247 255.368 109.431 255.075 109.565C253.279 110.383 251.464 111.156 249.669 111.977C246.927 113.231 244.401 114.656 241.852 116.252" stroke="white" stroke-width="1.5" stroke-linecap="round"/>
<path d="M254.065 102.186C254.03 102.155 253.898 102.031 253.861 102.016C251.898 101.233 249.618 100.744 247.599 100.245C244.079 99.3752 240.606 98.6164 236.98 98.5247" stroke="white" stroke-width="1.5" stroke-linecap="round"/>
<path d="M255.667 100.508C255.301 100.155 254.971 99.8716 254.535 99.5711C252.056 97.8597 249.306 96.4757 246.51 95.3635C243.61 94.2099 240.501 93.8155 237.438 93.3381" stroke="white" stroke-width="1.5" stroke-linecap="round"/>
<path d="M255.743 98.5245C255.924 97.6438 255.163 96.5632 254.773 95.8635C253.717 93.9711 252.358 92.4577 250.752 91.0161C247.959 88.5099 244.562 87.0954 241.099 85.7874" stroke="white" stroke-width="1.5" stroke-linecap="round"/>
<path d="M262.607 96.2365C262.675 96.0325 262.885 95.843 262.997 95.6687C263.541 94.822 263.909 93.8813 264.115 92.8975C264.312 91.9599 264.348 90.9987 264.412 90.0459C264.572 87.648 264.839 85.274 265.124 82.8892" stroke="white" stroke-width="1.5" stroke-linecap="round"/>
<path d="M263.675 96.7704C264.958 94.8327 266.163 92.7843 267.704 91.0374C269.151 89.3975 270.933 88.2733 272.827 87.2366" stroke="white" stroke-width="1.5" stroke-linecap="round"/>
<path d="M265.428 97.4567C265.773 97.2843 266.146 96.7558 266.386 96.516C267.523 95.3825 268.715 94.2781 270.064 93.3974C272.617 91.7304 275.661 91.168 278.623 90.7449" stroke="white" stroke-width="1.5" stroke-linecap="round"/>
<path d="M207.462 102.494C207.582 102.329 207.515 102.078 207.469 101.9C207.274 101.141 206.934 100.426 206.423 99.8273C205.559 98.8128 204.418 97.9543 203.073 97.7547C201.989 97.5938 200.836 98.0372 200.087 98.8357C198.957 100.041 198.772 101.773 199.228 103.289C199.852 105.363 202.297 108.109 204.719 106.897C206.256 106.129 207.268 104.033 207.268 102.365" stroke="white" stroke-width="1.5" stroke-linecap="round"/>
<path d="M207.783 101.614C208.129 101.57 208.769 101.24 209.043 101.145C211.83 100.186 214.753 99.2546 217.748 99.6148C219.452 99.8198 221.771 100.301 222.786 101.851C223.768 103.35 222.693 104.83 221.446 105.719C220.066 106.704 218.233 107.258 216.538 107.084C213.989 106.823 211.559 105.976 209.212 104.988C209.073 104.929 207.981 104.466 208.172 104.466C208.899 104.466 209.629 104.768 210.282 105.053C211.231 105.467 212.218 105.823 213.098 106.375C214.966 107.544 216.697 109.076 218.05 110.819C219.032 112.083 219.501 113.886 219.192 115.465C218.466 119.168 213.637 117.227 211.777 115.738C210.034 114.344 208.673 112.458 207.567 110.538C206.924 109.423 206.511 108.205 205.91 107.07C205.81 106.881 205.732 106.623 205.611 106.454C205.33 106.061 205.677 107.419 205.759 107.894C206.165 110.259 206.882 112.552 206.99 114.968C207.067 116.674 206.936 118.536 205.899 119.956C205.422 120.608 204.5 121.42 203.634 121.45C201.945 121.509 200.941 119.868 200.31 118.529C199.632 117.092 199.503 115.366 199.939 113.84C200.251 112.747 200.613 111.668 200.861 110.559C201.071 109.615 201.285 108.659 201.592 107.74C201.925 106.741 201.237 107.755 201.026 108.06C199.916 109.672 198.744 111.221 197.468 112.706C195.645 114.827 190.684 118.468 188.897 114.247C188.252 112.724 190.544 110.814 191.573 109.98C192.974 108.844 194.386 107.798 195.844 106.742C196.625 106.177 197.549 105.754 198.253 105.085C198.31 105.032 198.743 104.729 198.743 104.675C198.743 104.651 197.766 105.047 197.753 105.053C194.146 106.645 189.406 107.407 185.901 105.229C185.324 104.872 184.819 104.41 184.575 103.767C184.373 103.232 184.607 102.827 184.953 102.388C186.199 100.812 188.925 100.118 190.798 100.087C193.215 100.046 195.61 100.576 198.023 100.576C198.222 100.576 197.813 100.572 197.785 100.569C197.032 100.485 196.256 100.191 195.531 99.9857C193.241 99.3369 191.104 98.3995 189.145 97.0434C187.922 96.1966 186.359 95.1907 185.756 93.7481C185.349 92.7736 185.759 91.5338 186.549 90.8814C188.043 89.6476 190.558 90.3612 192.156 90.957C194.268 91.7441 196.234 92.8848 197.742 94.5908C198.63 95.5957 199.326 96.671 200.036 97.7925C200.417 98.3945 200.2 98.4596 199.939 97.8069C199.241 96.0627 198.467 94.333 197.828 92.5668C197.251 90.9712 196.343 89.0801 196.539 87.3412C196.667 86.2085 197.099 84.8865 198.095 84.2188C199.353 83.3752 200.771 84.792 201.401 85.7674C202.382 87.2862 202.824 89.3891 202.852 91.1731C202.873 92.4793 202.978 93.8199 202.676 95.1022C202.538 95.6902 202.579 96.3122 202.471 96.9101C202.246 98.1457 203.067 94.4701 203.339 93.2439C203.874 90.8221 204.14 88.1668 205.435 86.0051C206.366 84.4502 207.812 82.3911 209.882 82.5045C211.495 82.5929 212.2 84.1742 212.191 85.5945C212.178 87.5098 211.436 89.358 210.505 90.9966C209.669 92.4689 208.871 93.7838 207.657 94.9978C206.885 95.7695 206.174 96.7267 205.55 97.6232C205.382 97.8637 205.19 98.0756 205.031 98.3219C204.793 98.6921 205.416 97.6278 205.463 97.5548C206.809 95.4832 208.278 93.1981 210.379 91.8321C211.317 91.2229 212.378 90.8045 213.491 90.6725C214.523 90.55 215.924 90.757 216.721 91.4936C218.073 92.7425 218.171 94.7525 217.053 96.1862C215.891 97.6763 213.913 98.4912 212.22 99.2006C210.621 99.8704 209.206 100.757 207.523 101.225" stroke="white" stroke-width="1.5" stroke-linecap="round"/>
<path d="M207.467 105.874C208.157 106.383 208.788 106.95 209.419 107.53C210.135 108.189 210.865 108.853 211.511 109.582C212.306 110.48 213 111.475 213.725 112.43" stroke="white" stroke-width="0.75" stroke-linecap="round"/>
<path d="M207.635 103.068C210.4 102.863 213.172 102.962 215.939 103.04" stroke="white" stroke-width="0.75" stroke-linecap="round"/>
<path d="M206.604 99.4315C207.53 98.5871 208.646 97.9595 209.633 97.1883C210.257 96.701 210.842 96.1652 211.475 95.6897C211.914 95.3605 212.374 95.0925 212.847 94.821" stroke="white" stroke-width="0.75" stroke-linecap="round"/>
<path d="M203.333 97.934C203.406 97.6407 203.652 97.3272 203.794 97.0735C204.779 95.3121 205.624 93.4685 206.516 91.6594" stroke="white" stroke-width="0.75" stroke-linecap="round"/>
<path d="M200.822 97.1076C200.788 96.6463 200.614 96.1836 200.482 95.7456C200.258 95.0009 200.009 94.2644 199.833 93.5061C199.621 92.5938 199.464 91.6725 199.215 90.7685C199.004 89.9989 198.697 89.295 198.374 88.5681" stroke="white" stroke-width="0.75" stroke-linecap="round"/>
<path d="M199.201 99.6481C199.188 99.5205 199.03 99.412 198.945 99.342C198.472 98.9514 197.945 98.6555 197.422 98.3387C195.61 97.2409 193.912 95.9695 192.1 94.8733" stroke="white" stroke-width="0.75" stroke-linecap="round"/>
<path d="M198.53 102.902C197.93 102.935 197.329 102.975 196.729 103.012C194.277 103.164 191.85 103.601 189.421 103.961" stroke="white" stroke-width="0.75" stroke-linecap="round"/>
<path d="M200.189 105.903C199.68 106.197 199.212 106.591 198.746 106.947C197.97 107.538 197.232 108.18 196.49 108.814C195.31 109.822 194.117 110.814 192.917 111.799" stroke="white" stroke-width="0.75" stroke-linecap="round"/>
<path d="M203.12 107.209C203.179 108.039 202.974 108.866 202.896 109.688C202.789 110.832 202.802 111.993 202.802 113.14" stroke="white" stroke-width="0.75" stroke-linecap="round"/>
<path d="M324.247 104.109C324.35 104.015 324.381 104.007 324.514 104.001C324.732 103.991 325.132 103.425 325.252 103.279C325.686 102.752 325.943 101.946 326.058 101.278C326.247 100.185 325.384 98.8584 324.701 98.0974C323.362 96.6053 320.982 95.8207 319.148 96.907C316.952 98.2084 316.316 101.844 318.083 103.774C318.861 104.624 320.495 105.317 321.643 105.4C323.254 105.518 324.185 104.524 324.898 103.243" stroke="white" stroke-width="1.5" stroke-linecap="round"/>
<path d="M324.467 103.835C325.153 104.584 326.324 105.067 327.156 105.614C328.823 106.71 330.404 107.868 331.819 109.279C332.677 110.135 333.38 111.044 333.983 112.087C334.46 112.913 335.099 113.803 335.333 114.739C335.676 116.115 335.9 117.955 334.675 118.975C333.494 119.96 331.562 119.631 330.351 118.84C328.124 117.385 326.822 115.012 325.764 112.638C324.97 110.858 324.182 109.058 323.468 107.247C323.184 106.528 322.567 104.302 322.685 105.066C323.113 107.84 323.793 110.665 323.777 113.478C323.76 116.321 323.421 121.049 320.321 122.367C319.503 122.715 318.724 122.327 318.085 121.816C316.763 120.757 315.796 118.986 315.658 117.305C315.506 115.435 315.782 113.811 316.246 112.008C316.661 110.398 317.514 108.926 318.147 107.393C318.483 106.582 318.818 105.773 319.132 104.955C319.16 104.881 319.27 104.679 319.116 104.81C318.737 105.132 318.334 105.422 318.02 105.813C317.32 106.685 316.604 107.55 315.85 108.377C314.844 109.481 313.563 110.53 312.311 111.351C311.646 111.788 310.918 112.004 310.145 112.151C308.457 112.471 307.03 112.992 305.339 112.344C304.294 111.944 303.32 110.914 303.363 109.735C303.412 108.416 304.249 107.676 305.175 106.863C305.888 106.238 306.876 105.893 307.715 105.469C308.512 105.066 309.299 104.63 310.109 104.255C311.495 103.614 312.955 103.228 314.363 102.641C315.036 102.36 316.093 102.276 316.643 101.773C316.78 101.648 315.812 101.602 315.741 101.592C314.907 101.467 314.097 101.136 313.3 100.875C312.423 100.588 311.514 100.356 310.628 100.093C309.562 99.7756 308.661 99.2547 307.674 98.7446C305.84 97.7964 304.231 96.2221 303.329 94.3582C302.726 93.1111 301.635 90.5684 303.768 90.1923C305.839 89.8273 308.254 90.8017 309.969 91.8377C311.539 92.7867 313.081 93.8647 314.46 95.0774C314.961 95.5178 315.478 95.8674 315.932 96.3632C316.145 96.5965 316.334 96.8508 316.607 97.0112C316.887 97.1754 316.098 96.5572 316.021 96.4871C315.246 95.7754 314.488 95.1013 313.848 94.2539C312.508 92.4802 310.998 90.7671 310.069 88.7301C309.649 87.8083 308.068 83.3117 309.983 83.0835C311.8 82.867 313.413 84.5303 314.354 85.8443C315.664 87.6722 316.686 89.8388 317.652 91.8727C318.204 93.0341 318.467 94.3353 318.968 95.5102C319.039 95.6785 319.12 95.8394 319.167 96.0172C319.174 96.0474 319.25 96.3591 319.262 96.3597C319.325 96.3625 318.864 94.4432 318.851 94.3919C318.271 92.0501 317.835 89.4611 317.804 87.0453C317.782 85.3672 317.627 83.2022 318.817 81.8653C319.622 80.9611 320.795 79.5481 322.107 80.4731C322.817 80.974 323.203 81.9549 323.539 82.7197C323.978 83.7167 324.067 84.8655 324.058 85.95C324.04 88.0316 323.393 89.9894 322.942 91.9895C322.659 93.2465 322.407 94.6201 321.955 95.8267C321.919 95.922 321.688 96.5987 321.927 96.2468C322.32 95.6679 322.556 94.9572 322.852 94.3226C323.38 93.1877 323.971 92.0307 324.346 90.8337C324.808 89.3614 325.302 87.8694 326.11 86.545C326.657 85.6489 327.287 84.793 328.035 84.053C328.748 83.3475 330.269 82.3726 331.325 82.7254C332.888 83.2473 333.135 85.6699 332.903 87.0418C332.605 88.7999 331.542 90.5682 330.453 91.9706C328.951 93.9042 327.12 95.3628 325.335 96.9969C325.178 97.1408 325.009 97.2782 324.861 97.4311C324.707 97.5893 325.914 97.35 326.035 97.3046C329.135 96.135 331.911 94.1456 335.183 93.4066C336.709 93.0621 338.965 92.6315 340.394 93.4369C341.636 94.1368 341.574 95.5065 340.892 96.6447C339.195 99.4792 335.73 100.215 332.708 100.573C330.566 100.827 328.349 101.355 326.192 101.26C325.589 101.233 327.303 101.765 327.896 101.88C329.173 102.127 330.494 102.153 331.79 102.221C334.289 102.351 336.665 102.922 338.776 104.319C340.405 105.397 341.702 107.73 340.018 109.408C338.696 110.725 336.337 109.995 334.78 109.715C332.41 109.288 330.184 108.103 328.046 107.049C326.907 106.488 326.031 105.443 324.918 104.906" stroke="white" stroke-width="1.5" stroke-linecap="round"/>
<path d="M323.75 104.472C324.104 104.86 324.523 105.198 324.892 105.573C325.767 106.463 326.64 107.367 327.427 108.338C328.451 109.602 329.313 110.98 330.244 112.311" stroke="white" stroke-width="0.75" stroke-linecap="round"/>
<path d="M320.167 105.026C320.396 106.152 320.114 107.544 319.905 108.656C319.572 110.431 319.052 112.179 318.626 113.933" stroke="white" stroke-width="0.75" stroke-linecap="round"/>
<path d="M317.058 103.781C316.938 103.714 316.657 103.904 316.57 103.946C315.935 104.255 315.288 104.563 314.669 104.904C313.075 105.782 311.612 106.897 310.189 108.025" stroke="white" stroke-width="0.75" stroke-linecap="round"/>
<path d="M316.729 99.6156C316.396 99.4703 316.089 99.2721 315.786 99.0731C314.545 98.2591 313.348 97.3829 312.094 96.5883C310.429 95.5335 308.747 94.5045 306.991 93.6105" stroke="white" stroke-width="0.75" stroke-linecap="round"/>
<path d="M317.76 96.8531C317.704 96.6727 317.612 96.5202 317.525 96.3529C317.029 95.404 316.58 94.4338 316.054 93.5004C314.82 91.3118 313.488 89.1733 312.224 87.0007" stroke="white" stroke-width="0.75" stroke-linecap="round"/>
<path d="M320.173 95.9323C320.23 95.7389 320.253 95.5662 320.266 95.3588C320.34 94.1658 320.297 92.9623 320.282 91.768C320.263 90.1772 320.215 88.5869 320.172 86.9966" stroke="white" stroke-width="0.75" stroke-linecap="round"/>
<path d="M323.182 96.7375C323.276 96.6518 323.348 96.5781 323.422 96.467C324.081 95.4866 324.564 94.4143 325.054 93.3452C325.965 91.36 327.177 89.6343 328.514 87.9187" stroke="white" stroke-width="0.75" stroke-linecap="round"/>
<path d="M325.605 100.047C325.961 99.9183 326.292 99.7096 326.631 99.5451C327.666 99.0441 328.742 98.6632 329.834 98.3093C332.136 97.563 334.461 96.9602 336.696 96.0292" stroke="white" stroke-width="0.75" stroke-linecap="round"/>
<path d="M325.38 103.358C325.441 103.403 325.504 103.397 325.576 103.406C326.255 103.494 326.931 103.698 327.587 103.888C330.137 104.628 332.674 105.391 335.175 106.282" stroke="white" stroke-width="0.75" stroke-linecap="round"/>
<path d="M173.208 93.937C173.288 93.1291 173.729 92.2367 174.024 91.5048C174.5 90.3245 175.119 89.0718 176.404 88.6001C177.156 88.324 177.897 88.3135 178.429 88.9921C178.856 89.5373 178.779 90.2627 178.479 90.8464C177.709 92.3421 176.519 93.173 175.042 93.8918C174.678 94.0685 174.255 94.1298 173.871 94.2511C173.801 94.2731 173.602 94.2988 173.615 94.2988" stroke="white" stroke-width="1.5" stroke-linecap="round"/>
<path d="M172.923 94.2898C172.939 94.1642 173.023 94.0399 173.038 93.9071C173.1 93.3808 173.017 92.8394 172.863 92.3347C172.689 91.7654 172.355 91.165 172.062 90.6492C171.744 90.0894 171.416 89.6035 170.892 89.2156C170.053 88.5945 168.937 88.3339 167.922 88.6383C167.445 88.7815 167.2 89.0475 167.087 89.5361C166.904 90.3291 167.571 91.1184 168.107 91.614C168.883 92.33 169.772 93.0278 170.662 93.5945C171.192 93.9317 171.757 94.1203 172.356 94.2882C172.512 94.332 172.674 94.3966 172.837 94.4046C172.913 94.4083 172.929 94.4059 172.837 94.3887C172.514 94.3276 172.174 94.3704 171.849 94.3823C171.204 94.4057 170.56 94.4216 169.916 94.462C168.983 94.5205 168.013 94.6897 167.147 95.052C166.729 95.2271 166.295 95.4581 165.932 95.7313C165.655 95.9404 165.299 96.2323 165.237 96.5957C165.083 97.499 166.118 98.2431 166.881 98.4582C167.351 98.5908 167.849 98.5755 168.331 98.5316C168.827 98.4862 169.246 98.4261 169.68 98.1584C170.452 97.6814 171.025 97.013 171.654 96.3756C172.007 96.018 172.537 95.6164 172.678 95.1126C172.702 95.0249 172.669 95.0515 172.63 95.1062C172.457 95.3505 172.337 95.6553 172.222 95.9291C171.778 96.9864 171.554 98.088 171.616 99.2396C171.669 100.237 172.095 101.392 172.869 102.059C173.365 102.486 174.03 102.422 174.405 101.898C175.453 100.431 174.947 98.37 174.167 96.9114C174.021 96.6382 173.867 96.2438 173.612 96.0471C173.478 95.9435 173.547 96.0402 173.622 96.1364C173.915 96.5155 174.315 96.8172 174.671 97.1362C175.15 97.566 175.632 97.9576 176.189 98.2796C176.684 98.5653 177.183 98.8849 177.734 99.0498C178.545 99.2924 179.704 99.5439 180.425 98.9398C180.986 98.4686 180.812 97.6972 180.332 97.2399C179.411 96.3627 178.201 95.5693 176.924 95.3678C175.533 95.1481 174.075 95.0074 172.665 95.0074" stroke="white" stroke-width="1.5" stroke-linecap="round"/>
<path d="M152.234 90.2531C152.234 89.8722 152.311 89.4463 152.38 89.0701C152.594 87.9145 152.798 86.7693 153.302 85.6986C153.499 85.2814 153.814 84.8806 154.209 84.6368C154.402 84.5178 154.795 84.2876 155.043 84.363C155.878 84.616 155.935 85.6442 155.767 86.3382C155.576 87.1221 155.103 87.7545 154.583 88.3469C154.241 88.7377 153.757 88.9611 153.363 89.2937C153.094 89.5205 152.772 89.6439 152.497 89.8476C152.385 89.9309 152.232 90.1337 152.196 89.8915C152.007 88.6128 150.964 87.6416 149.768 87.2516C149.314 87.1037 148.834 86.9988 148.39 87.2077C147.927 87.4259 147.581 87.8557 147.682 88.3803C147.835 89.177 148.659 89.6192 149.333 89.9292C149.945 90.2109 150.767 90.2155 151.431 90.2155C151.586 90.2155 151.741 90.2155 151.895 90.2155C152.026 90.2155 151.636 90.2471 151.509 90.274C150.735 90.4378 149.954 90.6476 149.237 90.9847C148.536 91.3139 147.917 91.7656 147.615 92.5022C147.287 93.3001 147.598 94.249 148.386 94.6488C149.157 95.0402 150.165 94.9368 150.809 94.3625C151.339 93.8892 151.668 92.9564 151.764 92.2681C151.806 91.9624 151.858 91.6621 151.858 91.3526C151.858 91.2895 151.846 91.0177 151.895 91.2355C152.144 92.338 152.493 93.3976 153.005 94.4084C153.384 95.1565 153.984 96.2533 154.914 96.4067C155.779 96.5495 156.143 95.5268 156.143 94.8474C156.143 93.9959 155.547 93.2145 154.96 92.6464C154.363 92.069 153.589 91.6314 152.849 91.2648C152.683 91.1826 152.441 91.1557 152.301 91.0349C152.246 90.9877 152.111 90.9153 152.251 91.0181C153.206 91.7186 154.241 92.1599 155.357 92.5398C156.323 92.869 157.667 93.0234 158.432 92.1928C158.882 91.704 159.054 90.9449 158.53 90.4329C158.197 90.1086 157.682 89.9506 157.246 89.8226C156.534 89.613 155.757 89.5048 155.014 89.5048C154.133 89.5048 153.257 89.7047 152.385 89.8017" stroke="white" stroke-width="1.5" stroke-linecap="round"/>
<path d="M156.975 106.315C157.138 106.131 157.15 105.67 157.167 105.446C157.229 104.659 157.443 103.931 157.964 103.322C158.589 102.592 159.569 102.156 160.539 102.258C161.548 102.365 162.2 103.183 161.997 104.174C161.654 105.845 159.239 106.158 157.861 106.373C157.82 106.379 157.442 106.442 157.437 106.354C157.414 105.922 157.493 105.48 157.36 105.061C157.005 103.943 156.053 102.848 154.992 102.346C154.285 102.011 153.049 102.241 153.049 103.211C153.049 103.849 153.667 104.416 154.085 104.804C154.565 105.249 155.096 105.599 155.69 105.874C156.035 106.034 157.087 106.468 156.743 106.307C156.554 106.217 156.297 106.215 156.093 106.17C155.647 106.069 155.202 105.98 154.748 105.93C154.001 105.847 153.175 105.746 152.488 106.127C151.957 106.42 151.297 106.997 151.357 107.668C151.435 108.528 152.429 108.988 153.168 109.102C153.938 109.222 154.707 108.928 155.341 108.505C155.704 108.263 155.953 107.854 156.311 107.625C156.402 107.567 156.341 107.817 156.335 107.846C156.268 108.148 156.177 108.436 156.148 108.747C156.061 109.692 156.189 110.531 156.512 111.423C156.744 112.063 157.214 113.074 158.054 113.011C159.024 112.939 159.145 111.739 159.13 110.971C159.113 110.042 158.935 109.047 158.422 108.255C158.207 107.923 157.918 107.689 157.61 107.45C157.077 107.034 158.55 108.43 159.085 108.843C160.102 109.628 161.482 110.21 162.738 109.582C163.357 109.272 163.392 108.418 162.935 107.951C162.166 107.166 160.808 106.419 159.676 106.478C158.886 106.519 158.161 106.756 157.399 106.932" stroke="white" stroke-width="1.5" stroke-linecap="round"/>
<path d="M352.295 90.9123C352.352 90.4624 352.367 90.1287 352.148 89.6489C351.663 88.5874 351.065 87.5664 350.232 86.7402C349.411 85.9253 346.931 84.5848 346.931 86.7351C346.931 87.6629 347.639 88.4827 348.307 89.058C348.997 89.653 349.782 90.2189 350.625 90.5812C351.079 90.7764 351.421 90.9581 351.918 90.9581C352.356 90.9581 351.424 90.9 351.345 90.8893C350.341 90.7545 349.483 90.7045 348.49 90.9123C347.464 91.1271 346.416 91.5311 345.617 92.2342C344.966 92.8073 344.895 93.9459 345.449 94.6029C346.09 95.3627 347.102 95.3667 347.965 95.0385C348.414 94.8679 348.803 94.5588 349.213 94.3151C349.677 94.04 350.116 93.7784 350.533 93.4338C351.039 93.0161 351.612 92.589 351.964 92.0228C351.983 91.9926 352.112 91.7692 352.112 91.8649C352.112 92.1837 352.023 92.4909 352.02 92.8124C352.013 93.8445 352.15 94.8156 352.41 95.8153C352.607 96.5723 352.998 97.4928 353.719 97.8988C354.2 98.169 354.783 98.2982 355.179 97.8122C355.7 97.1725 355.739 95.9899 355.589 95.2218C355.38 94.1498 354.86 93.069 354.086 92.2953C353.832 92.0409 353.246 91.3758 352.833 91.3758C352.727 91.3758 353.016 91.4806 353.105 91.5363C353.308 91.6628 353.517 91.7795 353.722 91.9031C354.155 92.1644 354.572 92.358 355.044 92.5398C355.901 92.8706 356.701 93.0221 357.616 92.7869C358.398 92.5858 359.389 91.9278 359.575 91.0855C359.811 90.015 358.506 89.3346 357.654 89.1141C356.685 88.8632 355.66 89.4807 354.822 89.8833C354.081 90.2392 353.4 90.7203 352.754 91.223C352.683 91.2782 352.558 91.4064 352.693 91.223C352.959 90.8603 353.302 90.5606 353.564 90.1889C353.935 89.6626 354.334 89.1659 354.578 88.5639C354.825 87.952 354.949 87.3102 355.021 86.6562C355.109 85.8506 355.184 84.4747 354.356 83.9742C353.493 83.4531 352.757 84.3634 352.438 85.0974C351.902 86.3312 351.746 87.7667 351.47 89.0784" stroke="white" stroke-width="1.5" stroke-linecap="round"/>
<path d="M359.95 104.535C359.95 104.38 360.026 104.244 360.098 104.111C360.36 103.622 360.594 103.117 360.847 102.623C361.327 101.686 362.266 101.043 363.211 100.625C363.936 100.304 365.015 100.078 365.508 100.901C366.029 101.768 365.239 102.714 364.593 103.244C363.432 104.198 361.881 104.539 360.42 104.755C360.346 104.765 359.817 104.897 359.766 104.783C359.693 104.618 359.732 104.432 359.71 104.259C359.666 103.913 359.553 103.532 359.421 103.211C359.13 102.507 358.336 101.824 357.696 101.453C356.895 100.988 356.152 100.591 355.278 101.085C353.375 102.161 356.32 104.251 357.351 104.647C357.824 104.829 358.361 104.935 358.866 104.949C358.971 104.952 359.283 104.995 359.178 104.995C358.887 104.995 358.594 105.056 358.304 105.077C356.89 105.176 355.016 105.272 354.177 106.628C353.47 107.769 355.297 108.749 356.265 108.713C357.829 108.655 358.502 106.978 359.076 105.797C359.139 105.667 358.99 106.028 358.984 106.048C358.802 106.61 358.725 107.199 358.71 107.788C358.679 109.022 359.085 110.385 359.745 111.43C360.124 112.029 360.846 112.709 361.458 112.033C362.071 111.356 362.176 110.001 362.01 109.145C361.82 108.168 361.301 107.328 360.55 106.679C360.103 106.292 359.54 106.011 359.124 105.595C358.978 105.449 358.812 105.214 359.106 105.133C359.564 105.006 360.049 105.05 360.517 105.038C361.145 105.022 361.763 104.903 362.393 104.903C363.728 104.903 365.217 105.3 366.101 106.375C366.608 106.991 366.79 108.056 365.968 108.532C365.151 109.005 364.06 108.454 363.308 108.113C362.177 107.599 361.083 106.948 360.134 106.145" stroke="white" stroke-width="1.5" stroke-linecap="round"/>
<path d="M373.146 93.5066C373.152 93.4467 373.202 93.3882 373.241 93.3467C373.381 93.1977 373.531 93.0612 373.693 92.937C374.265 92.4987 374.855 92.0415 375.484 91.6878C376.251 91.2564 377.267 91.5811 377.783 92.2242C378.31 92.8822 378.581 93.6841 377.884 94.3149C377.187 94.9449 376.113 95.0359 375.222 94.9212C374.659 94.8487 374.069 94.6721 373.546 94.4509C373.4 94.3889 373.198 94.3127 373.08 94.201C372.96 94.0881 373.042 93.9665 373.098 93.8336C373.358 93.2199 373.525 92.5547 373.627 91.8972C373.751 91.0956 373.791 89.8831 373.252 89.1966C372.891 88.736 371.877 88.2639 371.294 88.5609C370.442 88.9946 370.639 90.2465 370.93 90.9548C371.191 91.5909 371.467 92.2162 371.955 92.7129C372.107 92.8672 372.342 93.1572 372.567 93.2071C372.987 93.3005 371.768 92.8844 371.36 92.746C370.453 92.438 369.484 92.0685 368.505 92.1709C367.7 92.2552 366.793 92.6179 366.356 93.3486C365.913 94.0887 366.931 94.9011 367.52 95.1563C368.2 95.451 369.037 95.3332 369.71 95.0718C370.272 94.8536 370.797 94.5204 371.345 94.2671C371.481 94.2045 371.594 94.1348 371.716 94.0504C371.755 94.0238 371.511 94.2446 371.47 94.2818C370.161 95.4845 368.852 97.4617 369.482 99.312C369.685 99.9065 370.106 100.64 370.844 100.512C371.653 100.371 372.211 99.4374 372.492 98.7498C372.77 98.0677 373.032 97.2013 372.844 96.4625C372.794 96.2633 372.717 96.0801 372.639 95.8912C372.598 95.7932 372.599 95.6668 372.517 95.5899C372.46 95.5359 372.502 95.8273 372.506 95.8471C372.594 96.2512 372.836 96.5955 373.054 96.9384C373.308 97.3392 373.63 97.6472 373.965 97.9782C374.275 98.2838 374.575 98.5694 374.972 98.7571C375.63 99.0682 376.393 99.0792 376.857 98.4356C377.36 97.7367 376.609 96.692 376.115 96.2255C375.394 95.546 374.495 94.9584 373.544 94.6658C373.015 94.503 372.434 94.4219 371.955 94.1349" stroke="white" stroke-width="1.5" stroke-linecap="round"/>
</svg>
