<svg width="1422" height="160" viewBox="0 0 1422 160" fill="none" xmlns="http://www.w3.org/2000/svg">
<path d="M1376.4 47.3529C1375.8 52.1442 1362.54 62.7346 1359.8 65.8004C1353.35 73.0277 1347.54 76.4537 1339.59 81.9838C1320.72 95.1155 1298.3 97.5602 1275.95 97.1611C1254.25 96.7736 1232.11 88.3028 1211.3 82.9062C1190.02 77.3905 1168.71 73.9354 1147.82 66.9743C1124.61 59.2371 1098.48 56.5707 1074.2 60.2661C1042.6 65.0753 1013.88 83.9925 984.143 94.9809C960.824 103.599 934.507 110.635 909.347 106.888C878.209 102.25 846.44 95.6039 816.523 85.9249C760.929 67.9389 706.752 81.844 653.179 97.9157C627.429 105.641 597.915 109.48 571.255 109.236C535.313 108.906 500.632 94.9047 467.111 83.4932C438.303 73.6861 410.169 61.1472 378.731 64.291C347.402 67.424 319.189 82.9305 290.351 93.9747C253.951 107.915 219.308 116.782 180.169 116.782C129.2 116.782 70.5293 102.026 31.5835 66.9743" stroke="#D0BFFF" stroke-width="3" stroke-linecap="round"/>
<path d="M726.671 80.2784C726.671 78.8387 727.895 77.3914 728.119 75.9355C728.562 73.0515 729.272 70.2001 729.757 67.32C731.467 57.1652 736.324 46.931 744.545 40.5084C748.012 37.7998 752.587 37.392 756.85 37.392C760.948 37.392 765.069 37.2831 769.105 36.4872C771.565 36.0021 773.907 35.6866 776.333 35.0395C778.346 34.5028 775.161 36.4351 774.795 36.6882C768.571 40.9974 764.703 48.3012 760.771 54.5827C756.958 60.6748 753.168 66.6933 747.481 71.2307C741.708 75.8358 734.553 79.1927 727.033 79.1927" stroke="#D0BFFF" stroke-width="3" stroke-linecap="round"/>
<path d="M758.654 78.5293C763.294 78.5293 767.785 84.5435 769.71 88.1399C771.686 91.8345 773.565 95.6048 775.307 99.4159C776.833 102.753 779.038 105.595 780.965 108.706C784.663 114.673 791.55 118.903 798.08 121.105C800.924 122.064 803.769 122.723 806.647 123.533C808.548 124.067 810.569 125.19 812.566 125.298C812.764 125.309 814.715 125.779 814.091 125.118C813.52 124.514 812.735 124.135 812.125 123.513C810.024 121.371 809.297 119.077 807.951 116.49C806.387 113.482 806.218 109.994 804.781 106.96C801.609 100.263 798.134 93.8628 793.084 88.3606C786.114 80.7668 774.371 80.5165 764.974 79.2516" stroke="#D0BFFF" stroke-width="3" stroke-linecap="round"/>
<path d="M804.445 80.0446C805.648 79.911 806.551 76.7947 806.893 76.1132C808.102 73.7032 809.398 71.3543 810.603 68.9441C812.869 64.4118 815.907 59.7927 819.304 56.032C821.024 54.1275 823.116 51.9479 825.432 50.7709C827.933 49.5002 830.657 48.9195 833.42 48.5642C838.049 47.9692 842.738 47.1406 847.286 46.1456C847.99 45.9916 848.908 45.7024 849.618 45.7024C850.545 45.7024 848.525 46.5753 848.288 46.7431C846.034 48.3398 844.139 49.5755 842.391 51.773C840.287 54.4193 838.427 57.1132 836.966 60.1755C835.599 63.0433 833.954 65.7717 832.322 68.4912C830.238 71.9651 827.331 76.3951 823.756 78.4836C821.374 79.8749 819.018 80.6619 816.288 80.9986C813.002 81.4037 809.949 80.5826 806.7 80.3915" stroke="#D0BFFF" stroke-width="3" stroke-linecap="round"/>
<path d="M840.04 94.0063C841.653 94.0063 843.427 95.1814 844.742 95.9965C846.94 97.359 848.352 99.4346 849.873 101.479C851.629 103.839 852.47 106.519 853.571 109.206C855.303 113.434 856.489 117.871 858.205 122.103C861.174 129.423 866.09 135.943 873.073 139.761C875.764 141.233 878.531 142.501 881.258 143.888C883.968 145.266 886.936 145.87 889.736 147C891.391 147.668 893.204 148.404 894.965 148.756C895.261 148.815 896.784 148.995 896.321 148.532C895.21 147.421 893.653 147.023 892.555 145.722C890.596 143.401 889.357 140.761 888.116 138.005C886.203 133.756 884.623 129.358 882.634 125.147C880.529 120.693 878.477 115.801 874.897 112.289C871.807 109.257 868.649 106.512 865.034 104.113C859.792 100.635 853.472 99.0374 847.591 96.9916" stroke="#D0BFFF" stroke-width="3" stroke-linecap="round"/>
<path d="M871.63 98.1509C872.253 98.1143 872.796 97.5473 873.272 97.2098C874.669 96.2197 876.053 95.2382 877.227 93.9862C878.848 92.2564 880.36 90.2571 881.722 88.3198C885.592 82.812 889.252 77.3164 894.076 72.5721C896.543 70.1449 898.853 67.6932 901.864 65.9346C905.318 63.918 909.114 63.7028 913.017 63.5119C919.463 63.1966 926.076 63.4311 932.459 62.3305C932.859 62.2615 934.602 61.6502 934.231 61.85C931.654 63.2378 929.01 64.2574 926.532 65.8845C919.831 70.2852 916.472 77.3128 911.355 83.184C908.914 85.9856 906.531 88.6439 903.566 90.9027C900.509 93.2321 897.128 94.9988 893.615 96.5291C886.461 99.6452 878.659 99.9668 871.09 98.5113" stroke="#D0BFFF" stroke-width="3" stroke-linecap="round"/>
<path d="M911.593 107.807C912.463 107.807 913.863 108.947 914.525 109.326C917.766 111.182 920.935 112.737 923.472 115.544C926.696 119.111 929.001 123.068 931.691 127.026C935.131 132.089 938.603 137.168 942.97 141.495C946.54 145.033 950.628 148.145 955.169 150.334C958.893 152.129 963.032 152.747 967.037 153.652C973.503 155.112 979.528 158.275 986.289 158.275C987.264 158.275 987.323 158.26 986.525 157.504C986.092 157.095 985.2 156.976 984.663 156.691C983.131 155.876 981.433 155.249 979.986 154.294C970.31 147.907 965.258 136.996 957.759 128.546C951.024 120.955 941.402 116.503 931.947 113.403C929.097 112.469 926.62 111.136 923.611 110.61C920.664 110.096 917.684 109.155 914.675 109.155" stroke="#D0BFFF" stroke-width="3" stroke-linecap="round"/>
<path d="M966.42 101.033C966.42 96.1653 967.807 90.9021 969.5 86.3421C972.347 78.6791 974.044 71.0129 978.873 64.226C983.387 57.8821 989.432 53.8036 996.698 51.2724C1003.94 48.7488 1011.67 49.5498 1019.14 48.1919C1023.03 47.4851 1034.55 45.1378 1030.6 45.1378C1028.65 45.1378 1026.12 47.8649 1024.71 48.9028C1020.86 51.7338 1018.04 55.6659 1015.22 59.4606C1011.71 64.172 1008.74 69.2376 1005.07 73.836C1001.55 78.2431 997.089 82.4615 992.512 85.776C987.39 89.4849 981.425 91.837 975.925 94.8988C971.593 97.3103 966.93 99.4321 962.155 100.796" stroke="#D0BFFF" stroke-width="3" stroke-linecap="round"/>
<path d="M1012.6 85.3775C1012.83 85.4063 1012.86 85.6499 1013.04 85.7776C1014.25 86.6112 1015.69 87.129 1016.93 87.9114C1021.58 90.8362 1024.99 95.4311 1028.49 99.5697C1033.47 105.467 1038.94 111.583 1045.98 115.073C1052.08 118.097 1059.15 118.285 1065.81 118.574C1068.98 118.712 1072 118.666 1075.15 119.185C1077.5 119.574 1079.83 119.786 1082.21 119.786C1083.33 119.786 1083.15 119.77 1082.25 119.363C1079.46 118.104 1076.35 117.115 1073.88 115.251C1067.21 110.233 1063.04 102.855 1056.81 97.3803C1053.42 94.4055 1050.25 91.5112 1046.09 89.6007C1041.87 87.6601 1037.41 86.2552 1032.89 85.2219C1029.1 84.357 1025.37 84.0795 1021.53 83.666C1019.53 83.4502 1017.35 83.6103 1015.4 83.177" stroke="#D0BFFF" stroke-width="3" stroke-linecap="round"/>
<path d="M1068.13 60.9942C1069.23 60.8572 1069.72 57.4257 1069.86 56.8748C1070.59 54.078 1071.12 51.2577 1071.99 48.4932C1074.59 40.305 1078.2 30.5446 1086.02 25.9342C1089.5 23.8768 1092.77 21.9489 1096.7 20.8143C1101.85 19.3261 1107.57 19.4293 1112.89 19.6447C1118.4 19.8681 1124.04 19.1498 1129.31 17.5396C1132.25 16.6432 1135.14 15.8285 1137.6 13.927C1141.41 10.9933 1129.27 18.799 1125.6 21.8928C1121.64 25.2275 1117.75 28.8159 1114.77 33.0944C1111.79 37.392 1108.63 41.4636 1104.87 45.0886C1094.81 54.787 1081.91 58.6551 1068.13 58.6551" stroke="#D0BFFF" stroke-width="3" stroke-linecap="round"/>
<path d="M1110.24 61.0947C1110.59 61.1332 1110.98 61.4784 1111.23 61.6587C1114.17 63.7858 1116.43 65.9945 1118.37 69.0616C1120.9 73.0401 1122.31 77.2924 1124.37 81.4785C1127.6 88.027 1131.73 95.0876 1137.23 99.9961C1143.36 105.466 1150.71 108.407 1158.57 110.455C1162.13 111.383 1166.05 112.218 1169.75 112.218C1170.24 112.218 1170.32 112.317 1169.86 111.849C1168.9 110.896 1167.97 109.941 1167.09 108.896C1162.58 103.548 1159.69 97.2736 1155.65 91.6293C1150.26 84.1147 1144.06 77.4313 1136.25 72.4145C1132.27 69.8574 1127.96 68.0945 1123.8 65.8933C1119.97 63.8703 1116.08 62.2453 1111.9 61.0947" stroke="#D0BFFF" stroke-width="3" stroke-linecap="round"/>
<path d="M1151.7 67.6613C1151.73 67.3604 1151.97 67.158 1152.11 66.9018C1153.36 64.6808 1154.44 62.3632 1155.71 60.1471C1157.26 57.4302 1158.87 54.8368 1161.14 52.6444C1166.69 47.2627 1173.1 41.9261 1180.68 39.8599C1189.92 37.3393 1199.42 37.7249 1208.85 38.5481C1215.55 39.1338 1222.16 40.0931 1228.41 37.1327C1229.46 36.6324 1226.28 37.8081 1225.94 37.9497C1222.96 39.2142 1220.19 41.6144 1217.77 43.7263C1211.75 48.9916 1207.09 55.6648 1200.27 59.9975C1192.86 64.7072 1184.68 67.1942 1175.87 67.247C1171.73 67.2718 1167.6 67.4541 1163.46 67.4541C1160.83 67.4541 1157.79 67.8884 1155.22 67.247" stroke="#D0BFFF" stroke-width="3" stroke-linecap="round"/>
<path d="M1192.46 80.5764C1194.3 80.7798 1196.19 86.5405 1196.57 87.4116C1198.92 92.7481 1200.43 98.42 1202.43 103.894C1204.12 108.542 1206.05 113.795 1209.29 117.637C1212.31 121.224 1215.73 124.554 1219.75 127.017C1223.43 129.279 1227.36 130.53 1231.34 132.108C1235.56 133.779 1239.43 136.214 1243.61 137.998C1245.56 138.831 1247.42 139.777 1249.3 140.736C1249.47 140.82 1251.12 141.809 1250.71 141.173C1250.04 140.126 1248.73 139.555 1247.92 138.531C1246.04 136.143 1244.55 133.678 1242.98 131.077C1240.76 127.417 1239.04 123.488 1236.7 119.879C1233.82 115.44 1230.87 111.049 1227.72 106.79C1222.51 99.7313 1216.49 93.784 1209.24 88.8417C1203.48 84.9167 1197.9 81.1229 1191.16 79.0493" stroke="#D0BFFF" stroke-width="3" stroke-linecap="round"/>
<path d="M1229.79 88.0427C1230.82 87.0159 1231.28 85.8126 1231.94 84.4833C1234.52 79.2226 1237.08 74.2321 1241 69.8341C1246.45 63.7129 1254.78 61.4556 1262.75 61.3181C1270.93 61.177 1279.69 61.045 1287.71 59.1854C1289.63 58.7405 1291.55 58.1786 1293.14 56.9645C1293.33 56.8145 1294.1 56.2583 1293.86 56.2732C1293.16 56.3168 1292.25 57.4562 1291.8 57.8617C1289.87 59.596 1288.25 61.6207 1286.56 63.5832C1282.03 68.8505 1278.11 74.4626 1272.66 78.8943C1260.72 88.6182 1245.62 90.0173 1230.85 87.2485" stroke="#D0BFFF" stroke-width="3" stroke-linecap="round"/>
<path d="M1274.55 99.2657C1274.97 99.2185 1275.2 98.9926 1275.58 98.8222C1277.24 98.0787 1279.38 97.8613 1281.18 97.763C1284.48 97.5818 1287.6 99.4139 1290.51 100.719C1298.63 104.353 1305.66 111.293 1310.66 118.555C1315.46 125.506 1319.93 133.049 1327.83 136.821C1329.03 137.39 1330.78 138.705 1332.07 138.94C1332.74 139.061 1330.78 138.313 1330.68 138.287C1325.17 136.886 1319.6 136.578 1313.99 135.848C1307.6 135.016 1301.03 133.417 1295.22 130.626C1288.45 127.378 1283.29 122.448 1279.43 116.017C1276.03 110.371 1272.84 104.493 1269.89 98.6005" stroke="#D0BFFF" stroke-width="3" stroke-linecap="round"/>
<path d="M1314.54 92.615C1314.54 90.0941 1313.63 87.5061 1313.33 85.0089C1312.88 81.1256 1313.47 77.1696 1314.1 73.3386C1314.44 71.3535 1314.88 70.041 1316.08 68.4798C1319.82 63.5938 1325.56 60.0307 1330.47 56.4462C1335.32 52.9158 1339.81 48.8407 1342.69 43.5045C1342.86 43.1954 1344.19 39.605 1343.51 40.848C1341.35 44.7643 1340.29 50.1222 1339.76 54.4936C1339.16 59.477 1339.17 64.7564 1337.58 69.5469C1334.12 80.0173 1324.86 87.212 1315.97 93.0237" stroke="#D0BFFF" stroke-width="3" stroke-linecap="round"/>
<path d="M1376.41 47.6429C1376.41 45.0481 1377.09 42.4747 1377.32 39.8919C1377.65 36.1452 1377.87 32.4695 1379.46 28.9982C1382.5 22.3749 1388 17.7969 1394.94 15.7522C1396.78 15.2102 1398.69 14.8855 1400.51 14.3061C1402.08 13.8112 1403.57 13.1148 1405.12 12.5901C1408.12 11.5781 1411.14 10.706 1413.76 8.86888C1415.78 7.4503 1418.29 5.80923 1419.68 3.72086C1419.72 3.6573 1420.63 1.90845 1420.32 1.90845C1419.98 1.90845 1418.2 4.94408 1418.02 5.20549C1416.23 7.78332 1414.88 10.6612 1413.9 13.6313C1412.75 17.0857 1412 20.6516 1410.91 24.1201C1409.96 27.1385 1408.49 29.7059 1406.74 32.3338C1403.05 37.8783 1397.12 40.7972 1391.03 42.9576C1388.28 43.93 1385.53 44.8593 1382.85 46.004C1380.84 46.8659 1378.94 47.9784 1376.93 48.8576" stroke="#D0BFFF" stroke-width="3" stroke-linecap="round"/>
<path d="M1353.51 73.1666C1353.55 72.9901 1353.72 72.8931 1353.87 72.807C1355.88 71.6497 1358.2 70.6849 1360.43 70.0939C1363.54 69.2683 1367.38 68.5892 1370.5 69.7671C1377.16 72.2887 1382.68 77.2134 1389.14 80.1862C1393.64 82.2614 1398.49 83.316 1403.43 83.316C1404.38 83.316 1405.25 83.0678 1406.17 83.0218C1406.83 82.9891 1404.82 83.4136 1404.72 83.4304C1402.27 83.8444 1399.78 83.9854 1397.33 84.4192C1394.08 84.9938 1390.92 85.8714 1387.69 86.4867C1384.9 87.0177 1382.1 87.7705 1379.25 87.8596C1375.9 87.964 1372.55 87.4964 1369.35 86.5194C1364.37 85.0008 1359.62 82.2144 1355.45 79.132C1353.45 77.6485 1351.81 75.6791 1349.84 74.1962" stroke="#D0BFFF" stroke-width="3" stroke-linecap="round"/>
<path d="M700.637 86.6187C700.637 88.7325 700.766 90.8596 700.824 92.9739C700.925 96.5881 700.832 99.8153 700.143 103.367C698.734 110.627 694.609 118.154 688.37 122.314C685.312 124.352 681.233 124.781 677.678 125.244C674.701 125.633 671.784 125.749 668.827 126.335C666.493 126.797 664.23 127.543 661.901 128.013C659.855 128.426 657.795 128.723 655.775 129.248C653.961 129.721 655.998 128.833 656.661 128.294C660.526 125.154 663.922 121.538 666.85 117.509C670.122 113.007 672.584 107.986 675.744 103.418C677.473 100.92 679.573 98.7879 681.801 96.7309C684.827 93.938 688.396 91.7806 691.871 89.6259C694.028 88.2885 696.362 87.3808 698.797 86.772" stroke="#D0BFFF" stroke-width="3" stroke-linecap="round"/>
<path d="M663.97 91.9826C664.794 92.5021 665.079 92.6023 665.953 92.6023C665.368 93.1877 664.329 92.921 663.563 92.921C661.338 92.921 659.289 92.6955 657.082 92.4429C650.83 91.7272 644.503 91.471 638.588 89.1053C636.516 88.2764 634.331 87.4315 632.4 86.3165C630.441 85.1857 628.756 83.61 627.07 82.1202C624.109 79.5023 621.607 76.203 619.74 72.7181C618.441 70.2942 617.357 68.0889 615.074 66.4236C614.701 66.1512 613.648 65.945 613.534 65.432C613.455 65.0768 619.449 65.1937 619.855 65.1841C623.637 65.0951 627.234 64.7141 631.019 65.2638C634.832 65.8176 638.144 66.8631 641.607 68.5395C648.393 71.8242 652.697 79.3499 657.171 85.1656C659.219 87.8276 661.085 90.1628 663.97 91.9826Z" stroke="#D0BFFF" stroke-width="3" stroke-linecap="round"/>
<path d="M630.693 105.331C630.693 106.415 630.614 107.485 630.521 108.566C630.227 111.969 630.269 115.446 629.443 118.779C628.702 121.768 628.104 125.267 626.651 128.005C624.448 132.158 621.005 135.704 617.371 138.644C614.42 141.032 610.288 141.818 606.714 142.822C602.484 144.01 598.177 144.906 593.973 146.193C591.053 147.087 588.455 148.627 585.608 149.691C584.241 150.202 582.858 150.696 581.584 151.413C580.949 151.77 580.7 151.644 581.376 151.132C584.609 148.682 587.124 145.319 589.387 141.997C593.907 135.361 596.45 127.425 601.757 121.335C605.789 116.708 611.311 112.959 616.773 110.243C619.148 109.062 621.498 107.965 623.987 107.053C625.768 106.4 627.654 105.911 629.388 105.168" stroke="#D0BFFF" stroke-width="3" stroke-linecap="round"/>
<path d="M588.502 108.349C588.382 107.263 587.81 106.034 587.475 105.02C585.797 99.952 584.46 94.8057 582.618 89.7911C581.377 86.4146 579.646 82.9366 577.629 79.9633C575.559 76.9109 572.688 73.3663 569.338 71.7076C566.367 70.2361 563.058 69.1757 559.809 68.5195C556.07 67.764 552.549 66.3572 548.84 65.5246C545.918 64.8687 543.256 63.8461 540.443 62.8546C539.164 62.4037 537.852 61.6154 536.562 61.2737C535.96 61.1144 536.491 61.6074 536.728 61.7129C538.051 62.3006 539.543 63.3605 540.681 64.2599C543.542 66.5224 545.315 69.8836 547.048 73.0074C549.176 76.8423 551.1 80.7665 553.301 84.5654C555.235 87.9029 557.628 90.9319 560.117 93.8662C562.697 96.9091 565.522 99.8948 568.75 102.254C571.551 104.301 574.873 105.562 578.121 106.698C580.071 107.379 582.164 108.334 584.234 108.507" stroke="#D0BFFF" stroke-width="3" stroke-linecap="round"/>
<path d="M548.089 108.555C548.051 108.852 547.644 109.455 547.528 109.704C546.447 112.023 545.473 114.406 544.301 116.681C543.734 117.781 543.074 118.817 542.637 119.981C540.215 126.44 534.433 130.404 528.067 132.603C520.019 135.382 510.99 135.111 502.621 134.791C495.816 134.53 487.344 133.281 481.671 138.082C479.242 140.137 487.278 135.024 489.825 133.118C496.155 128.379 499.78 120.959 506.252 116.35C513.317 111.319 521.204 109.982 529.538 108.555C537.381 107.211 545.29 107.079 553.218 106.734" stroke="#D0BFFF" stroke-width="3" stroke-linecap="round"/>
<path d="M491.856 91.7328C491.263 91.7328 490.791 90.6451 490.553 90.2325C488.742 87.0964 488.371 83.4057 487.631 79.9083C487.144 77.6025 486.604 75.3622 485.894 73.1176C483.559 65.7373 481.43 58.2309 475.757 52.558C473.457 50.2574 470.711 48.4967 467.753 47.1985C464.133 45.6097 460.611 43.7818 456.994 42.1746C453.25 40.5107 449.694 38.2776 446.255 36.0649C444.957 35.2293 443.814 34.3473 442.386 33.7356C442.341 33.7161 442.812 34.3167 442.998 34.4364C444.682 35.5185 446.4 36.9197 447.4 38.6707C449.281 41.9613 450.267 45.5155 451.339 49.1232C452.745 53.8589 454.644 58.3564 456.896 62.7539C460.397 69.592 466.702 75.3192 472.629 80.1057C475.193 82.1771 477.695 83.9205 480.505 85.633C482.16 86.6415 484.079 87.8645 485.46 89.2455" stroke="#D0BFFF" stroke-width="3" stroke-linecap="round"/>
<path d="M450.286 78.5797C450.251 78.8599 449.852 79.3503 449.709 79.5843C446.309 85.1585 442.576 90.7603 438.669 95.9993C436.276 99.2089 433.262 101.986 430.077 104.399C425.532 107.844 419.682 109.161 414.079 109.55C408.614 109.93 403.152 109.497 397.685 109.401C393.609 109.329 389.251 108.96 385.406 110.608C384.542 110.978 383.202 111.508 382.51 112.201C382.097 112.614 383.68 111.948 384.166 111.624C386.186 110.277 387.855 108.574 389.318 106.643C391.766 103.411 394.393 100.367 397.386 97.6237C402.565 92.8767 408.441 89.5322 414.603 86.2315C421.591 82.488 429.31 79.4952 437.184 78.4301C439.669 78.0939 442.124 77.6385 444.558 77.0301C445.934 76.6861 447.319 76.2714 448.747 76.2714" stroke="#D0BFFF" stroke-width="3" stroke-linecap="round"/>
<path d="M393.547 63.3132C393.175 63.2667 392.557 62.6002 392.343 62.364C386.206 55.5595 384.629 45.954 379.275 38.6226C373.52 30.7437 364.07 26.7057 355.441 22.8104C349.962 20.3374 344.482 18.2452 338.83 16.2355C338.277 16.0389 333.179 15.1501 333.447 15.4947C335.146 17.6788 337.349 19.4226 339.189 21.5024C341.673 24.3111 342.93 27.9562 344.56 31.2722C346.361 34.9376 348.093 38.7192 350.764 41.8522C354.145 45.8177 357.655 49.6595 361.83 52.8027C364.996 55.1852 368.719 56.8439 372.272 58.5673C375.263 60.0185 378.603 60.5654 381.81 61.3454C384.394 61.974 387.02 62.0547 389.38 63.3132" stroke="#D0BFFF" stroke-width="3" stroke-linecap="round"/>
<path d="M32.2627 68.7359C32.0275 68.7359 31.8339 68.7347 31.6104 68.6478C30.6995 68.2935 29.6396 68.1881 28.6927 68.0043C25.9893 67.4795 23.3502 66.7784 20.6978 66.0386C16.5527 64.8825 11.0415 63.7981 8.21617 60.1328C5.19265 56.2104 4.88987 50.5079 4.01156 45.8089C3.37158 42.385 2.55333 38.6843 0.617903 35.7425C0.362055 35.3536 0.210091 34.8004 -0.104898 34.4644C-0.27253 34.2856 0.555041 35.0701 0.706054 35.1696C4.13694 37.4289 8.28606 38.2012 12.0065 39.8061C16.9002 41.9171 20.4522 44.9566 23.5714 49.2378C27.5747 54.7326 30.2292 61.193 32.7386 67.4666" stroke="#D0BFFF" stroke-width="3" stroke-linecap="round"/>
<path d="M370.583 66.3961C370.583 67.9939 370.118 69.686 369.831 71.2092C368.755 76.9192 368.159 83.0776 365.379 88.279C364.634 89.6729 361.706 94.2261 360.841 95.4914C360.072 96.6154 358.946 98.2193 357.878 99.2349C356.861 100.202 355.381 100.861 354.163 101.519C352.632 102.346 351.08 103.157 349.48 103.846C345.644 105.497 341.39 106.257 337.361 107.3C334.057 108.155 330.746 109.028 327.489 110.053C324.823 110.893 322.006 111.651 319.648 113.204C319.014 113.622 317.742 114.228 317.4 114.968C317.212 115.376 319.616 113.975 319.821 113.804C324.526 109.893 327.247 104.306 330.387 99.177C333.696 93.7718 336.987 88.5324 341.654 84.1597C343.936 82.0213 346.259 79.8191 348.794 77.9807C351.032 76.3575 353.389 74.9017 355.616 73.2688C357.806 71.6631 359.676 70.3312 362.228 69.3663C364.732 68.4203 367.236 67.7796 369.802 67.0465" stroke="#D0BFFF" stroke-width="3" stroke-linecap="round"/>
<path d="M318.191 81.1565C318.006 81.1565 317.808 81.1776 317.626 81.1393C317.063 81.0209 316.278 80.4226 315.876 80.1618C314.398 79.2022 312.874 78.2369 311.529 77.092C307.984 74.0754 305.168 70.1357 302.054 66.6822C295.182 59.0616 286.505 51.8982 276.441 49.1724C272.447 48.0908 268.212 47.8114 264.101 47.5089C260.586 47.2502 257.036 47.2318 253.537 47.6632C252.531 47.7873 251.29 47.9158 250.382 48.4349C250.21 48.5329 251.773 49.1851 251.822 49.2067C256.479 51.2438 259.098 56.134 261.932 60.0881C264.042 63.0316 265.984 65.8265 268.646 68.3114C271.792 71.2473 275.754 73.5006 279.57 75.4285C286.51 78.9339 294.534 80.794 302.268 81.5338C305.461 81.8391 308.644 82.0216 311.846 81.8082C313.983 81.6657 315.953 81.5616 318.037 82.0825" stroke="#D0BFFF" stroke-width="3" stroke-linecap="round"/>
<path d="M285.785 97.5779C284.424 97.5779 284.772 98.1101 284.861 99.667C285.111 104.033 284.611 108.46 284.283 112.806C284.093 115.324 283.779 119.686 283.411 122.431C283.208 123.944 283.229 123.899 282.712 124.978C281.267 127.99 279.35 130.398 276.824 132.592C269.845 138.654 261.003 140.672 252.247 142.701C248.69 143.525 245.19 144.506 241.724 145.653C240.101 146.19 238.914 146.748 237.572 147.742C236.606 148.457 238.343 147.578 238.53 147.474C241.004 146.098 242.658 144.075 244.296 141.794C248.652 135.73 250.608 128.224 254.5 121.853C256.259 118.973 258.23 116.177 260.629 113.79C263.18 111.252 266.163 109.287 269.158 107.333C272.113 105.405 274.964 103.408 277.808 101.324C280.094 99.6502 282.807 98.5553 285.319 97.2671" stroke="#D0BFFF" stroke-width="3" stroke-linecap="round"/>
<path d="M248.462 106.532C247.354 106.532 246.176 105.665 245.271 105.165C242.299 103.522 239.716 100.808 237.513 98.2382C233.022 92.9987 227.979 88.0548 221.882 84.7247C214.472 80.6776 206.637 79.9927 198.331 80.1397C193.508 80.2251 188.714 79.7857 183.897 79.6303C181.34 79.5478 178.672 79.6012 176.193 80.3095C174.006 80.9344 175.173 81.3678 176.524 82.1149C178.402 83.1537 180.375 84.029 182.163 85.2252C184.893 87.0516 187.299 89.3145 189.814 91.41C196.665 97.119 204.665 101.772 213.239 104.325C223.67 107.43 234.693 106.05 245.405 106.05" stroke="#D0BFFF" stroke-width="3" stroke-linecap="round"/>
<path d="M202.919 118.328C202.718 118.328 202.466 118.27 202.323 118.436C200.307 120.789 199.494 124.079 198.334 126.956C196.442 131.649 194.444 136.047 190.942 139.768C187.698 143.214 183.474 145.765 179.03 147.355C172.84 149.57 166.316 149.483 159.834 149.555C153.636 149.624 147.647 150.264 141.592 151.593C137.348 152.525 133.143 153.4 129.247 155.387C127.886 156.08 126.73 157.06 125.409 157.793C124.444 158.329 126.866 156.128 127.675 155.376C130.482 152.765 133.403 150.277 136.281 147.745C142.442 142.325 149.304 138.27 156.095 133.719C159.521 131.424 162.716 129.156 166.435 127.303C170.071 125.491 173.783 124.024 177.643 122.772C185.826 120.117 194.269 118.823 202.724 117.353" stroke="#D0BFFF" stroke-width="3" stroke-linecap="round"/>
<path d="M166.465 114.121C165.366 114.121 164.68 113.107 164 112.366C162.223 110.431 161.296 108.288 160.282 105.88C158.841 102.458 158.008 98.7479 156.784 95.2381C155.267 90.8904 153.117 86.7439 150.214 83.1441C144.486 76.0397 135.488 70.7582 126.81 68.2512C122.929 67.1301 118.545 65.0247 114.392 65.2433C113.866 65.271 115.865 73.7784 115.99 74.2042C118.41 82.4495 123.946 89.9083 130.225 95.6559C136.753 101.632 143.984 106.233 151.509 110.81C153.989 112.318 156.568 113.143 159.227 114.215C161.289 115.045 163.51 115.481 165.525 116.377" stroke="#D0BFFF" stroke-width="3" stroke-linecap="round"/>
<path d="M120.416 109.54C120.35 109.833 119.991 109.963 119.757 110.107C118.612 110.812 117.501 112.398 116.628 113.328C113.897 116.232 111.101 119.066 108.252 121.855C104.961 125.077 101.81 128.657 97.0611 129.41C93.7739 129.932 90.5684 129.838 87.2575 129.735C80.3809 129.52 73.5462 129.628 66.7692 130.96C64.6409 131.378 62.4802 131.714 60.4799 132.58C60.0128 132.783 58.5834 133.218 59.0924 133.218C60.6465 133.218 62.7478 130.912 63.741 129.978C65.7773 128.061 67.3196 125.739 69.3011 123.779C71.4899 121.615 73.9534 119.722 76.5525 118.078C83.3841 113.756 90.6778 112.362 98.5803 111.464C106.176 110.601 114.072 110.119 121.692 110.998" stroke="#D0BFFF" stroke-width="3" stroke-linecap="round"/>
<path d="M87.9181 99.0994C87.5873 99.0994 87.3481 99.0376 87.0293 98.9217C81.6753 96.9748 76.8505 94.2608 72.6884 90.3252C67.3072 85.2368 65.8448 77.5777 64.3262 70.6599C63.482 66.8143 62.4055 62.9631 60.9975 59.2841C59.928 56.4895 58.3302 54.0454 56.8124 51.4875C56.069 50.2348 55.3481 49.0535 54.2108 48.1184C53.4772 47.5152 54.1739 47.9627 54.6552 48.1346C59.3656 49.8169 63.5918 52.3589 67.7519 55.1152C73.3558 58.828 78.693 62.3185 82.4483 68.0503C88.3904 77.1198 90.0995 88.5394 90.0995 99.2449" stroke="#D0BFFF" stroke-width="3" stroke-linecap="round"/>
<path d="M728.46 78.4462C728.555 78.4252 728.599 78.3442 728.665 78.2788C730.2 76.7594 731.758 75.2605 733.224 73.6729C735.045 71.7014 736.568 69.5098 738.183 67.3737C739.271 65.9352 740.407 64.5336 741.468 63.0749C743.529 60.2419 745.236 57.1759 747.386 54.403C749.761 51.3388 753.035 49.5065 756.346 47.6292" stroke="#D0BFFF" stroke-width="3" stroke-linecap="round"/>
<path d="M764.295 79.6006C765.956 79.6006 767.673 80.0011 769.263 80.4596C772.613 81.426 775.469 82.3189 777.847 84.9977C781.43 89.0318 784.156 93.7285 787.042 98.2634C789.648 102.359 792.799 106.199 796.23 109.63" stroke="#D0BFFF" stroke-width="3" stroke-linecap="round"/>
<path d="M804.604 81.0886C804.767 81.1067 804.894 81.2216 805.054 81.263C806.115 81.5383 807.831 80.5181 808.75 80.0688C810.862 79.037 812.293 76.7327 813.635 74.9094C817.481 69.6811 820.058 63.7937 825.496 59.9546" stroke="#D0BFFF" stroke-width="3" stroke-linecap="round"/>
<path d="M844.847 96.7888C846.775 96.8852 849.036 97.9733 850.707 98.8032C853.929 100.404 856.601 103.446 859.131 105.919C860.648 107.403 861.966 108.894 863.186 110.615C866.769 115.671 870.267 120.644 874.396 125.278" stroke="#D0BFFF" stroke-width="3" stroke-linecap="round"/>
<path d="M869.804 100.105C873.416 100.105 876.192 98.2076 879.086 96.2192C882.468 93.8961 885.879 91.6291 889.11 89.0956C892.724 86.2623 895.692 82.7816 898.703 79.3412" stroke="#D0BFFF" stroke-width="3" stroke-linecap="round"/>
<path d="M917.9 111.167C919.924 111.724 921.893 113.102 923.667 114.129C933.267 119.684 940.838 128.315 948.863 135.816" stroke="#D0BFFF" stroke-width="3" stroke-linecap="round"/>
<path d="M965.992 100.137C966.076 100.127 966.088 100.113 966.146 100.049C966.858 99.2657 967.761 98.4434 968.475 97.7273C972.494 93.694 976.286 89.7303 979.642 85.135C983.607 79.7061 987.506 74.2751 991.911 69.1926" stroke="#D0BFFF" stroke-width="3" stroke-linecap="round"/>
<path d="M1011.64 83.248C1011.84 83.248 1012.01 83.2827 1012.2 83.3484C1012.87 83.5713 1012.95 83.6256 1013.83 84.051C1017.73 85.9314 1021.56 87.9525 1025.42 89.9189C1029.41 91.9555 1033.5 93.8507 1037.37 96.1265C1039.94 97.6391 1042.3 99.4398 1044.72 101.176" stroke="#D0BFFF" stroke-width="3" stroke-linecap="round"/>
<path d="M1070.42 57.4286C1079.78 48.0699 1089.9 39.4152 1100.61 31.6366" stroke="#D0BFFF" stroke-width="3" stroke-linecap="round"/>
<path d="M1112.97 62.3599C1119.45 68.0386 1125.43 74.2954 1131.66 80.2446C1134.01 82.4855 1136.36 84.714 1138.66 87.0092" stroke="#D0BFFF" stroke-width="3" stroke-linecap="round"/>
<path d="M1151.64 66.383C1152.68 65.1203 1155.07 64.2941 1156.34 63.6698C1162.52 60.6263 1168.76 57.721 1174.91 54.6284C1180.15 51.9947 1185.66 50.0254 1191.2 48.1458" stroke="#D0BFFF" stroke-width="3" stroke-linecap="round"/>
<path d="M1194.39 81.5649C1194.65 81.6112 1194.88 81.7769 1195.06 81.9549C1199.68 86.4453 1203.99 91.2781 1208.45 95.9208C1213.87 101.576 1218.97 107.135 1223.58 113.467" stroke="#D0BFFF" stroke-width="3" stroke-linecap="round"/>
<path d="M1232.77 87.0429C1232.93 86.3416 1233.88 86.1186 1234.5 85.7483C1240.87 81.9108 1247.42 78.3387 1253.9 74.6743C1259.54 71.4809 1265.47 68.9544 1271.5 66.5901" stroke="#D0BFFF" stroke-width="3" stroke-linecap="round"/>
<path d="M1274.52 98.4426C1280.99 104.856 1287.37 111.453 1294.35 117.312C1298.32 120.633 1303 123.054 1307.38 125.769" stroke="#D0BFFF" stroke-width="3" stroke-linecap="round"/>
<path d="M1314.71 91.9511C1314.8 91.9435 1315.03 91.9219 1315.08 91.8543C1315.4 91.4146 1316.06 89.8778 1316.11 89.756C1317.34 87.0047 1318.49 84.2185 1319.73 81.4759C1321.41 77.7878 1323.8 74.4895 1326.04 71.1299" stroke="#D0BFFF" stroke-width="3" stroke-linecap="round"/>
<path d="M1351.07 75.3567C1352.23 75.1704 1353.47 75.4993 1354.6 75.7019C1358.51 76.4023 1362.41 77.1937 1366.31 77.9735C1369.91 78.6932 1373.48 79.6027 1377.02 80.5681" stroke="#D0BFFF" stroke-width="3" stroke-linecap="round"/>
<path d="M1377.6 48.188C1382.58 42.9913 1387.49 37.7233 1392.38 32.4375" stroke="#D0BFFF" stroke-width="3" stroke-linecap="round"/>
<path d="M700.57 86.2867C700.432 86.4252 700.262 86.561 700.159 86.7292C697.989 90.2594 696.068 93.9381 693.826 97.4251C691.631 100.84 689.258 104.12 686.854 107.389C685.917 108.662 685.032 109.992 684.023 111.211C682.882 112.589 681.537 113.629 680.247 114.85" stroke="#D0BFFF" stroke-width="3" stroke-linecap="round"/>
<path d="M662.944 91.917C658.595 89.8293 654.006 88.2951 649.693 86.1037C644.707 83.5706 640.689 80.2614 636.441 76.6742" stroke="#D0BFFF" stroke-width="3" stroke-linecap="round"/>
<path d="M629.302 106.262C626.495 111.876 622.478 117.172 618.333 121.857C616.598 123.818 614.87 125.795 613.018 127.647C610.545 130.12 607.803 132.187 605.066 134.348" stroke="#D0BFFF" stroke-width="3" stroke-linecap="round"/>
<path d="M588.275 107.2C587.317 107.2 586.637 106.089 586.072 105.479C582.389 101.505 578.956 97.3394 575.069 93.5521C571.493 90.0688 567.726 86.8072 563.966 83.5298" stroke="#D0BFFF" stroke-width="3" stroke-linecap="round"/>
<path d="M548.341 107.593C547.894 108.011 547.463 108.3 546.929 108.68C543.123 111.384 539.27 114.045 535.343 116.569C531.741 118.885 528.087 120.337 524.119 121.833" stroke="#D0BFFF" stroke-width="3" stroke-linecap="round"/>
<path d="M488.552 88.3891C485.528 84.1556 482.867 79.5997 479.897 75.3154C477.09 71.2667 474.045 67.8035 470.542 64.3762" stroke="#D0BFFF" stroke-width="3" stroke-linecap="round"/>
<path d="M448.622 78.1885C446.268 80.7102 443.044 82.8282 440.342 84.878C437.353 87.1459 434.601 89.2437 431.428 91.2298C427.085 93.9489 422.358 95.9423 417.777 98.2076" stroke="#D0BFFF" stroke-width="3" stroke-linecap="round"/>
<path d="M389.309 61.7912C389.217 61.7912 389.136 61.7973 389.046 61.7658C388.985 61.7443 388.921 61.7267 388.868 61.6895C387.852 60.9738 384.989 58.6963 384.682 58.452C377.926 53.0824 371.332 47.8544 365.663 41.3491" stroke="#D0BFFF" stroke-width="3" stroke-linecap="round"/>
<path d="M369.02 67.7407C368.791 68.0148 368.655 68.342 368.46 68.6391C366.17 72.1384 363.506 75.4665 360.833 78.6737C356.775 83.5413 351.997 87.3346 347.052 91.2339" stroke="#D0BFFF" stroke-width="3" stroke-linecap="round"/>
<path d="M315.434 81.2017C313.195 80.9982 310.19 79.5446 308.333 78.8635C300.032 75.818 291.398 72.9545 284.177 67.7397" stroke="#D0BFFF" stroke-width="3" stroke-linecap="round"/>
<path d="M285.106 97.449C284.549 98.0669 284.24 98.6167 283.825 99.3832C281.18 104.269 278.672 109.229 275.968 114.083C273.351 118.778 269.967 122.917 266.692 127.158" stroke="#D0BFFF" stroke-width="3" stroke-linecap="round"/>
<path d="M245.482 105.887C232.972 101.022 220.415 96.1771 208.093 90.8688" stroke="#D0BFFF" stroke-width="3" stroke-linecap="round"/>
<path d="M200.888 117.151C192.63 124.392 183.486 130.692 174.284 136.66" stroke="#D0BFFF" stroke-width="3" stroke-linecap="round"/>
<path d="M165.86 116.116C165.789 116.274 165.672 116.303 165.49 116.289C164.754 116.23 164.467 115.808 163.799 115.254C161.565 113.403 158.284 110.351 156.351 108.554C152.804 105.254 149.203 101.962 146.022 98.298C144.107 96.0927 142.372 93.7404 140.586 91.4335" stroke="#D0BFFF" stroke-width="3" stroke-linecap="round"/>
<path d="M115.95 110.611C115.348 111.052 114.972 111.322 114.215 111.703C109.931 113.862 105.47 115.716 101.014 117.485C96.9353 119.103 92.7432 120.366 88.6313 121.885" stroke="#D0BFFF" stroke-width="3" stroke-linecap="round"/>
<path d="M89.0876 98.3408C84.9922 89.7403 80.9851 81.1074 76.377 72.7734" stroke="#D0BFFF" stroke-width="3" stroke-linecap="round"/>
<path d="M31.8168 67.2216C31.531 67.1898 31.3227 67.0506 31.1026 66.8645C26.0122 62.5597 21.2351 57.8506 16.3303 53.3422" stroke="#D0BFFF" stroke-width="3" stroke-linecap="round"/>
</svg>
