<svg width="107" height="94" viewBox="0 0 107 94" fill="none" xmlns="http://www.w3.org/2000/svg">
<path d="M17.5542 12V3.27273H20.8269C21.4973 3.27273 22.0598 3.39773 22.5144 3.64773C22.9718 3.89773 23.3169 4.24148 23.5499 4.67898C23.7857 5.11364 23.9036 5.60795 23.9036 6.16193C23.9036 6.72159 23.7857 7.21875 23.5499 7.65341C23.3141 8.08807 22.9661 8.4304 22.5059 8.6804C22.0456 8.92756 21.4789 9.05114 20.8056 9.05114H18.6365V7.75142H20.5925C20.9846 7.75142 21.3056 7.68324 21.5556 7.54688C21.8056 7.41051 21.9902 7.22301 22.1096 6.98438C22.2317 6.74574 22.2928 6.47159 22.2928 6.16193C22.2928 5.85227 22.2317 5.57955 22.1096 5.34375C21.9902 5.10795 21.8042 4.92472 21.5513 4.79403C21.3013 4.66051 20.9789 4.59375 20.584 4.59375H19.1351V12H17.5542ZM25.2086 12V5.45455H26.7044V6.54545H26.7725C26.8919 6.16761 27.0964 5.87642 27.3862 5.67188C27.6788 5.46449 28.0126 5.3608 28.3876 5.3608C28.4728 5.3608 28.568 5.36506 28.6731 5.37358C28.7811 5.37926 28.8706 5.3892 28.9416 5.40341V6.82244C28.8762 6.79972 28.7725 6.77983 28.6305 6.76278C28.4913 6.7429 28.3564 6.73295 28.2257 6.73295C27.9444 6.73295 27.6916 6.79403 27.4672 6.91619C27.2456 7.03551 27.0708 7.2017 26.943 7.41477C26.8152 7.62784 26.7512 7.87358 26.7512 8.15199V12H25.2086ZM29.9664 12V5.45455H31.5091V12H29.9664ZM30.742 4.52557C30.4977 4.52557 30.2875 4.4446 30.1113 4.28267C29.9352 4.1179 29.8471 3.92045 29.8471 3.69034C29.8471 3.45739 29.9352 3.25994 30.1113 3.09801C30.2875 2.93324 30.4977 2.85085 30.742 2.85085C30.9892 2.85085 31.1994 2.93324 31.3727 3.09801C31.5488 3.25994 31.6369 3.45739 31.6369 3.69034C31.6369 3.92045 31.5488 4.1179 31.3727 4.28267C31.1994 4.4446 30.9892 4.52557 30.742 4.52557ZM35.9505 12.1278C35.2971 12.1278 34.736 11.9844 34.2672 11.6974C33.8013 11.4105 33.4419 11.0142 33.1891 10.5085C32.9391 10 32.8141 9.41477 32.8141 8.75284C32.8141 8.08807 32.9419 7.50142 33.1976 6.9929C33.4533 6.48153 33.8141 6.08381 34.28 5.79972C34.7488 5.51278 35.3027 5.36932 35.9419 5.36932C36.4732 5.36932 36.9434 5.46733 37.3525 5.66335C37.7644 5.85653 38.0925 6.13068 38.3368 6.4858C38.5811 6.83807 38.7203 7.25 38.7544 7.72159H37.28C37.2203 7.40625 37.0783 7.14347 36.8539 6.93324C36.6323 6.72017 36.3354 6.61364 35.9632 6.61364C35.6479 6.61364 35.3709 6.69886 35.1323 6.86932C34.8936 7.03693 34.7076 7.27841 34.574 7.59375C34.4434 7.90909 34.378 8.28693 34.378 8.72727C34.378 9.1733 34.4434 9.55682 34.574 9.87784C34.7047 10.196 34.888 10.4418 35.1238 10.6151C35.3624 10.7855 35.6422 10.8707 35.9632 10.8707C36.1905 10.8707 36.3936 10.8281 36.5726 10.7429C36.7544 10.6548 36.9064 10.5284 37.0286 10.3636C37.1507 10.1989 37.2346 9.99858 37.28 9.76278H38.7544C38.7175 10.2259 38.5811 10.6364 38.3453 10.9943C38.1096 11.3494 37.7885 11.6278 37.3823 11.8295C36.976 12.0284 36.4988 12.1278 35.9505 12.1278ZM42.9189 12.1278C42.2626 12.1278 41.6958 11.9915 41.2186 11.7188C40.7441 11.4432 40.3791 11.054 40.1234 10.5511C39.8677 10.0455 39.7399 9.45028 39.7399 8.76562C39.7399 8.09233 39.8677 7.50142 40.1234 6.9929C40.3819 6.48153 40.7427 6.08381 41.2058 5.79972C41.6689 5.51278 42.2129 5.36932 42.8379 5.36932C43.2413 5.36932 43.622 5.43466 43.9799 5.56534C44.3407 5.69318 44.6589 5.89205 44.9345 6.16193C45.2129 6.43182 45.4316 6.77557 45.5907 7.19318C45.7498 7.60795 45.8294 8.10227 45.8294 8.67614V9.14915H40.4643V8.10938H44.3507C44.3478 7.81392 44.2839 7.55114 44.1589 7.32102C44.0339 7.08807 43.8592 6.90483 43.6348 6.77131C43.4132 6.63778 43.1547 6.57102 42.8592 6.57102C42.5439 6.57102 42.2669 6.64773 42.0282 6.80114C41.7896 6.9517 41.6035 7.15057 41.47 7.39773C41.3393 7.64205 41.2725 7.91051 41.2697 8.20312V9.1108C41.2697 9.49148 41.3393 9.81818 41.4785 10.0909C41.6177 10.3608 41.8123 10.5682 42.0623 10.7131C42.3123 10.8551 42.6049 10.9261 42.9402 10.9261C43.1646 10.9261 43.3677 10.8949 43.5495 10.8324C43.7314 10.767 43.889 10.6719 44.0225 10.5469C44.1561 10.4219 44.2569 10.267 44.3251 10.0824L45.7654 10.2443C45.6745 10.625 45.5012 10.9574 45.2456 11.2415C44.9927 11.5227 44.6689 11.7415 44.274 11.8977C43.8791 12.0511 43.4274 12.1278 42.9189 12.1278Z" fill="black"/>
<path d="M9.70739 87.0597C9.63636 86.8295 9.53835 86.6236 9.41335 86.4418C9.29119 86.2571 9.14347 86.0994 8.97017 85.9688C8.79972 85.8381 8.60369 85.7401 8.3821 85.6747C8.16051 85.6065 7.91903 85.5724 7.65767 85.5724C7.18892 85.5724 6.77131 85.6903 6.40483 85.9261C6.03835 86.1619 5.75 86.5085 5.53977 86.9659C5.33239 87.4205 5.22869 87.9744 5.22869 88.6278C5.22869 89.2869 5.33239 89.8452 5.53977 90.3026C5.74716 90.7599 6.03551 91.108 6.40483 91.3466C6.77415 91.5824 7.20313 91.7003 7.69176 91.7003C8.13494 91.7003 8.51847 91.6151 8.84233 91.4446C9.16903 91.2741 9.42045 91.0327 9.59659 90.7202C9.77273 90.4048 9.8608 90.0355 9.8608 89.6122L10.2188 89.6676H7.84943V88.4318H11.3906V89.4801C11.3906 90.2273 11.2315 90.8736 10.9134 91.419C10.5952 91.9645 10.1577 92.3849 9.60085 92.6804C9.04403 92.973 8.40483 93.1193 7.68324 93.1193C6.87926 93.1193 6.1733 92.9389 5.56534 92.5781C4.96023 92.2145 4.48722 91.6989 4.14631 91.0312C3.80824 90.3608 3.6392 89.5653 3.6392 88.6449C3.6392 87.9403 3.73864 87.3111 3.9375 86.7571C4.1392 86.2031 4.42045 85.733 4.78125 85.3466C5.14205 84.9574 5.56534 84.6619 6.05114 84.4602C6.53693 84.2557 7.06534 84.1534 7.63636 84.1534C8.11932 84.1534 8.5696 84.2244 8.98722 84.3665C9.40483 84.5057 9.77557 84.7045 10.0994 84.9631C10.4261 85.2216 10.6946 85.5284 10.9048 85.8835C11.1151 86.2386 11.2528 86.6307 11.3182 87.0597H9.70739ZM17.0231 90.2472V86.4545H18.5657V93H17.07V91.8366H17.0018C16.854 92.2031 16.6112 92.5028 16.2731 92.7358C15.9379 92.9687 15.5245 93.0852 15.033 93.0852C14.604 93.0852 14.2248 92.9901 13.8952 92.7997C13.5685 92.6065 13.3129 92.3267 13.1282 91.9602C12.9435 91.5909 12.8512 91.1449 12.8512 90.6222V86.4545H14.3938V90.3835C14.3938 90.7983 14.5075 91.1278 14.7347 91.3722C14.962 91.6165 15.2603 91.7386 15.6296 91.7386C15.8569 91.7386 16.0771 91.6832 16.2901 91.5724C16.5032 91.4616 16.6779 91.2969 16.8143 91.0781C16.9535 90.8565 17.0231 90.5795 17.0231 90.2472ZM22.0355 93.1321C21.6207 93.1321 21.2472 93.0582 20.9148 92.9105C20.5852 92.7599 20.3239 92.5384 20.1307 92.2457C19.9403 91.9531 19.8452 91.5923 19.8452 91.1634C19.8452 90.794 19.9134 90.4886 20.0497 90.2472C20.1861 90.0057 20.3722 89.8125 20.608 89.6676C20.8438 89.5227 21.1094 89.4134 21.4048 89.3395C21.7031 89.2628 22.0114 89.2074 22.3295 89.1733C22.7131 89.1335 23.0241 89.098 23.2628 89.0668C23.5014 89.0327 23.6747 88.9815 23.7827 88.9134C23.8935 88.8423 23.9489 88.733 23.9489 88.5852V88.5597C23.9489 88.2386 23.8537 87.9901 23.6634 87.8139C23.473 87.6378 23.1989 87.5497 22.8409 87.5497C22.4631 87.5497 22.1634 87.6321 21.9418 87.7969C21.723 87.9616 21.5753 88.1562 21.4986 88.3807L20.0582 88.1761C20.1719 87.7784 20.3594 87.446 20.6207 87.179C20.8821 86.9091 21.2017 86.7074 21.5795 86.5739C21.9574 86.4375 22.375 86.3693 22.8324 86.3693C23.1477 86.3693 23.4616 86.4062 23.7741 86.4801C24.0866 86.554 24.3722 86.6761 24.6307 86.8466C24.8892 87.0142 25.0966 87.2429 25.2528 87.5327C25.4119 87.8224 25.4915 88.1847 25.4915 88.6193V93H24.0085V92.1009H23.9574C23.8636 92.2827 23.7315 92.4531 23.5611 92.6122C23.3935 92.7685 23.1818 92.8949 22.9261 92.9915C22.6733 93.0852 22.3764 93.1321 22.0355 93.1321ZM22.4361 91.9986C22.7457 91.9986 23.0142 91.9375 23.2415 91.8153C23.4688 91.6903 23.6435 91.5256 23.7656 91.321C23.8906 91.1165 23.9531 90.8935 23.9531 90.652V89.8807C23.9048 89.9205 23.8224 89.9574 23.706 89.9915C23.5923 90.0256 23.4645 90.0554 23.3224 90.081C23.1804 90.1065 23.0398 90.1293 22.9006 90.1491C22.7614 90.169 22.6406 90.1861 22.5384 90.2003C22.3082 90.2315 22.1023 90.2827 21.9205 90.3537C21.7386 90.4247 21.5952 90.5241 21.4901 90.652C21.3849 90.777 21.3324 90.9389 21.3324 91.1378C21.3324 91.4219 21.4361 91.6364 21.6435 91.7812C21.8509 91.9261 22.1151 91.9986 22.4361 91.9986ZM27.0426 93V86.4545H28.5384V87.5455H28.6065C28.7259 87.1676 28.9304 86.8764 29.2202 86.6719C29.5128 86.4645 29.8466 86.3608 30.2216 86.3608C30.3068 86.3608 30.402 86.3651 30.5071 86.3736C30.6151 86.3793 30.7045 86.3892 30.7756 86.4034V87.8224C30.7102 87.7997 30.6065 87.7798 30.4645 87.7628C30.3253 87.7429 30.1903 87.733 30.0597 87.733C29.7784 87.733 29.5256 87.794 29.3011 87.9162C29.0795 88.0355 28.9048 88.2017 28.777 88.4148C28.6491 88.6278 28.5852 88.8736 28.5852 89.152V93H27.0426ZM33.5668 93.1321C33.152 93.1321 32.7784 93.0582 32.446 92.9105C32.1165 92.7599 31.8551 92.5384 31.6619 92.2457C31.4716 91.9531 31.3764 91.5923 31.3764 91.1634C31.3764 90.794 31.4446 90.4886 31.581 90.2472C31.7173 90.0057 31.9034 89.8125 32.1392 89.6676C32.375 89.5227 32.6406 89.4134 32.9361 89.3395C33.2344 89.2628 33.5426 89.2074 33.8608 89.1733C34.2443 89.1335 34.5554 89.098 34.794 89.0668C35.0327 89.0327 35.206 88.9815 35.3139 88.9134C35.4247 88.8423 35.4801 88.733 35.4801 88.5852V88.5597C35.4801 88.2386 35.3849 87.9901 35.1946 87.8139C35.0043 87.6378 34.7301 87.5497 34.3722 87.5497C33.9943 87.5497 33.6946 87.6321 33.473 87.7969C33.2543 87.9616 33.1065 88.1562 33.0298 88.3807L31.5895 88.1761C31.7031 87.7784 31.8906 87.446 32.152 87.179C32.4134 86.9091 32.733 86.7074 33.1108 86.5739C33.4886 86.4375 33.9063 86.3693 34.3636 86.3693C34.679 86.3693 34.9929 86.4062 35.3054 86.4801C35.6179 86.554 35.9034 86.6761 36.1619 86.8466C36.4205 87.0142 36.6278 87.2429 36.7841 87.5327C36.9432 87.8224 37.0227 88.1847 37.0227 88.6193V93H35.5398V92.1009H35.4886C35.3949 92.2827 35.2628 92.4531 35.0923 92.6122C34.9247 92.7685 34.7131 92.8949 34.4574 92.9915C34.2045 93.0852 33.9077 93.1321 33.5668 93.1321ZM33.9673 91.9986C34.277 91.9986 34.5455 91.9375 34.7727 91.8153C35 91.6903 35.1747 91.5256 35.2969 91.321C35.4219 91.1165 35.4844 90.8935 35.4844 90.652V89.8807C35.4361 89.9205 35.3537 89.9574 35.2372 89.9915C35.1236 90.0256 34.9957 90.0554 34.8537 90.081C34.7116 90.1065 34.571 90.1293 34.4318 90.1491C34.2926 90.169 34.1719 90.1861 34.0696 90.2003C33.8395 90.2315 33.6335 90.2827 33.4517 90.3537C33.2699 90.4247 33.1264 90.5241 33.0213 90.652C32.9162 90.777 32.8636 90.9389 32.8636 91.1378C32.8636 91.4219 32.9673 91.6364 33.1747 91.7812C33.3821 91.9261 33.6463 91.9986 33.9673 91.9986ZM40.1165 89.1648V93H38.5739V86.4545H40.0483V87.5668H40.125C40.2756 87.2003 40.5156 86.9091 40.8452 86.6932C41.1776 86.4773 41.5881 86.3693 42.0767 86.3693C42.5284 86.3693 42.9219 86.4659 43.2571 86.6591C43.5952 86.8523 43.8565 87.1321 44.0412 87.4986C44.2287 87.8651 44.321 88.3097 44.3182 88.8324V93H42.7756V89.071C42.7756 88.6335 42.6619 88.2912 42.4347 88.044C42.2102 87.7969 41.8991 87.6733 41.5014 87.6733C41.2315 87.6733 40.9915 87.733 40.7812 87.8523C40.5739 87.9687 40.4105 88.1378 40.2912 88.3594C40.1747 88.581 40.1165 88.8494 40.1165 89.1648ZM49.1548 86.4545V87.6477H45.392V86.4545H49.1548ZM46.321 84.8864H47.8636V91.0312C47.8636 91.2386 47.8949 91.3977 47.9574 91.5085C48.0227 91.6165 48.108 91.6903 48.2131 91.7301C48.3182 91.7699 48.4347 91.7898 48.5625 91.7898C48.6591 91.7898 48.7472 91.7827 48.8267 91.7685C48.9091 91.7543 48.9716 91.7415 49.0142 91.7301L49.2741 92.9361C49.1918 92.9645 49.0739 92.9957 48.9205 93.0298C48.7699 93.0639 48.5852 93.0838 48.3665 93.0895C47.9801 93.1009 47.6321 93.0426 47.3224 92.9148C47.0128 92.7841 46.767 92.5824 46.5852 92.3097C46.4063 92.0369 46.3182 91.696 46.321 91.2869V84.8864ZM53.2724 93.1278C52.6161 93.1278 52.0494 92.9915 51.5721 92.7188C51.0977 92.4432 50.7326 92.054 50.4769 91.5511C50.2212 91.0455 50.0934 90.4503 50.0934 89.7656C50.0934 89.0923 50.2212 88.5014 50.4769 87.9929C50.7354 87.4815 51.0962 87.0838 51.5593 86.7997C52.0224 86.5128 52.5664 86.3693 53.1914 86.3693C53.5948 86.3693 53.9755 86.4347 54.3335 86.5653C54.6942 86.6932 55.0124 86.892 55.288 87.1619C55.5664 87.4318 55.7852 87.7756 55.9442 88.1932C56.1033 88.608 56.1829 89.1023 56.1829 89.6761V90.1491H50.8178V89.1094H54.7042C54.7013 88.8139 54.6374 88.5511 54.5124 88.321C54.3874 88.0881 54.2127 87.9048 53.9883 87.7713C53.7667 87.6378 53.5082 87.571 53.2127 87.571C52.8974 87.571 52.6204 87.6477 52.3817 87.8011C52.1431 87.9517 51.957 88.1506 51.8235 88.3977C51.6928 88.642 51.6261 88.9105 51.6232 89.2031V90.1108C51.6232 90.4915 51.6928 90.8182 51.832 91.0909C51.9712 91.3608 52.1658 91.5682 52.4158 91.7131C52.6658 91.8551 52.9585 91.9261 53.2937 91.9261C53.5181 91.9261 53.7212 91.8949 53.9031 91.8324C54.0849 91.767 54.2425 91.6719 54.3761 91.5469C54.5096 91.4219 54.6104 91.267 54.6786 91.0824L56.119 91.2443C56.0281 91.625 55.8548 91.9574 55.5991 92.2415C55.3462 92.5227 55.0224 92.7415 54.6275 92.8977C54.2326 93.0511 53.7809 93.1278 53.2724 93.1278ZM60.3857 93.1278C59.7294 93.1278 59.1626 92.9915 58.6854 92.7188C58.2109 92.4432 57.8459 92.054 57.5902 91.5511C57.3345 91.0455 57.2067 90.4503 57.2067 89.7656C57.2067 89.0923 57.3345 88.5014 57.5902 87.9929C57.8487 87.4815 58.2095 87.0838 58.6726 86.7997C59.1357 86.5128 59.6797 86.3693 60.3047 86.3693C60.7081 86.3693 61.0888 86.4347 61.4467 86.5653C61.8075 86.6932 62.1257 86.892 62.4013 87.1619C62.6797 87.4318 62.8984 87.7756 63.0575 88.1932C63.2166 88.608 63.2962 89.1023 63.2962 89.6761V90.1491H57.9311V89.1094H61.8175C61.8146 88.8139 61.7507 88.5511 61.6257 88.321C61.5007 88.0881 61.326 87.9048 61.1016 87.7713C60.88 87.6378 60.6214 87.571 60.326 87.571C60.0107 87.571 59.7337 87.6477 59.495 87.8011C59.2564 87.9517 59.0703 88.1506 58.9368 88.3977C58.8061 88.642 58.7393 88.9105 58.7365 89.2031V90.1108C58.7365 90.4915 58.8061 90.8182 58.9453 91.0909C59.0845 91.3608 59.2791 91.5682 59.5291 91.7131C59.7791 91.8551 60.0717 91.9261 60.407 91.9261C60.6314 91.9261 60.8345 91.8949 61.0163 91.8324C61.1982 91.767 61.3558 91.6719 61.4893 91.5469C61.6229 91.4219 61.7237 91.267 61.7919 91.0824L63.2322 91.2443C63.1413 91.625 62.968 91.9574 62.7124 92.2415C62.4595 92.5227 62.1357 92.7415 61.7408 92.8977C61.3459 93.0511 60.8942 93.1278 60.3857 93.1278Z" fill="black"/>
<path d="M64.5641 23H4.4359C2.5383 23 1 24.5309 1 26.4194V72.5806C1 74.4691 2.5383 76 4.4359 76H64.5641C66.4617 76 68 74.4691 68 72.5806V26.4194C68 24.5309 66.4617 23 64.5641 23Z" stroke="#283BA2" stroke-linecap="round" stroke-linejoin="round"/>
<path d="M25.1186 37.1C23.4943 37.1046 21.938 37.7598 20.7911 38.922C19.6441 40.0842 19 41.6586 19 43.3C19 44.9414 19.6441 46.5158 20.7911 47.678C21.938 48.8402 23.4943 49.4954 25.1186 49.5H27.1979H29.2772C30.0822 49.5 30.8792 49.6605 31.6227 49.9723C32.3661 50.2841 33.0414 50.741 33.6098 51.317C34.1782 51.8929 34.6285 52.5765 34.935 53.3287C35.2415 54.0808 35.3981 54.8866 35.3958 55.7C35.3981 56.5134 35.2415 57.3192 34.935 58.0713C34.6285 58.8235 34.1782 59.5071 33.6098 60.083C33.0414 60.659 32.3661 61.1159 31.6227 61.4277C30.8792 61.7395 30.0822 61.9 29.2772 61.9M34.7652 39.1667C33.0609 37.7372 31.2543 37.0828 27.1468 37.0828H25.1186M19.5795 59.8333C21.2838 61.2628 23.1075 61.9172 27.1979 61.9172H29.2772M27.1979 65V34M55.8139 43.3H68V55.7H55.8139C54.5257 55.7 53.2902 55.1829 52.3792 54.2624C51.4683 53.3419 50.9565 52.0934 50.9565 50.7917V48.2083C50.9565 46.9066 51.4683 45.6581 52.3792 44.7376C53.2902 43.8171 54.5257 43.3 55.8139 43.3Z" stroke="#283BA2" stroke-linecap="round" stroke-linejoin="round"/>
<path d="M56 51C56.5523 51 57 50.3284 57 49.5C57 48.6716 56.5523 48 56 48C55.4477 48 55 48.6716 55 49.5C55 50.3284 55.4477 51 56 51Z" fill="#283BA2"/>
</svg>
