<svg width="106" height="97" viewBox="0 0 106 97" fill="none" xmlns="http://www.w3.org/2000/svg">
<path d="M0.860795 12V3.27273H4.13352C4.80398 3.27273 5.36648 3.3892 5.82102 3.62216C6.27841 3.85511 6.62358 4.18182 6.85653 4.60227C7.09233 5.01989 7.21023 5.5071 7.21023 6.06392C7.21023 6.62358 7.09091 7.10937 6.85227 7.52131C6.61648 7.9304 6.26847 8.24716 5.80824 8.47159C5.34801 8.69318 4.78267 8.80398 4.11222 8.80398H1.78125V7.49148H3.89915C4.29119 7.49148 4.61222 7.4375 4.86222 7.32955C5.11222 7.21875 5.29688 7.05824 5.41619 6.84801C5.53835 6.63494 5.59943 6.37358 5.59943 6.06392C5.59943 5.75426 5.53835 5.49006 5.41619 5.27131C5.29403 5.04972 5.10795 4.8821 4.85795 4.76847C4.60795 4.65199 4.28551 4.59375 3.89062 4.59375H2.44176V12H0.860795ZM5.36932 8.04545L7.52983 12H5.76562L3.64347 8.04545H5.36932ZM11.4013 12.1278C10.745 12.1278 10.1783 11.9915 9.70099 11.7188C9.22656 11.4432 8.86151 11.054 8.60582 10.5511C8.35014 10.0455 8.2223 9.45028 8.2223 8.76562C8.2223 8.09233 8.35014 7.50142 8.60582 6.9929C8.86435 6.48153 9.22514 6.08381 9.68821 5.79972C10.1513 5.51278 10.6953 5.36932 11.3203 5.36932C11.7237 5.36932 12.1044 5.43466 12.4624 5.56534C12.8232 5.69318 13.1413 5.89205 13.4169 6.16193C13.6953 6.43182 13.9141 6.77557 14.0732 7.19318C14.2322 7.60795 14.3118 8.10227 14.3118 8.67614V9.14915H8.94673V8.10938H12.8331C12.8303 7.81392 12.7663 7.55114 12.6413 7.32102C12.5163 7.08807 12.3416 6.90483 12.1172 6.77131C11.8956 6.63778 11.6371 6.57102 11.3416 6.57102C11.0263 6.57102 10.7493 6.64773 10.5107 6.80114C10.272 6.9517 10.0859 7.15057 9.95241 7.39773C9.82173 7.64205 9.75497 7.91051 9.75213 8.20312V9.1108C9.75213 9.49148 9.82173 9.81818 9.96094 10.0909C10.1001 10.3608 10.2947 10.5682 10.5447 10.7131C10.7947 10.8551 11.0874 10.9261 11.4226 10.9261C11.647 10.9261 11.8501 10.8949 12.032 10.8324C12.2138 10.767 12.3714 10.6719 12.505 10.5469C12.6385 10.4219 12.7393 10.267 12.8075 10.0824L14.2479 10.2443C14.157 10.625 13.9837 10.9574 13.728 11.2415C13.4751 11.5227 13.1513 11.7415 12.7564 11.8977C12.3615 12.0511 11.9098 12.1278 11.4013 12.1278ZM18.4719 12.1278C17.8185 12.1278 17.2575 11.9844 16.7887 11.6974C16.3228 11.4105 15.9634 11.0142 15.7106 10.5085C15.4606 10 15.3356 9.41477 15.3356 8.75284C15.3356 8.08807 15.4634 7.50142 15.7191 6.9929C15.9748 6.48153 16.3356 6.08381 16.8015 5.79972C17.2702 5.51278 17.8242 5.36932 18.4634 5.36932C18.9947 5.36932 19.4648 5.46733 19.8739 5.66335C20.2859 5.85653 20.614 6.13068 20.8583 6.4858C21.1026 6.83807 21.2418 7.25 21.2759 7.72159H19.8015C19.7418 7.40625 19.5998 7.14347 19.3754 6.93324C19.1538 6.72017 18.8569 6.61364 18.4847 6.61364C18.1694 6.61364 17.8924 6.69886 17.6538 6.86932C17.4151 7.03693 17.229 7.27841 17.0955 7.59375C16.9648 7.90909 16.8995 8.28693 16.8995 8.72727C16.8995 9.1733 16.9648 9.55682 17.0955 9.87784C17.2262 10.196 17.4094 10.4418 17.6452 10.6151C17.8839 10.7855 18.1637 10.8707 18.4847 10.8707C18.712 10.8707 18.9151 10.8281 19.0941 10.7429C19.2759 10.6548 19.4279 10.5284 19.5501 10.3636C19.6722 10.1989 19.756 9.99858 19.8015 9.76278H21.2759C21.239 10.2259 21.1026 10.6364 20.8668 10.9943C20.631 11.3494 20.31 11.6278 19.9038 11.8295C19.4975 12.0284 19.0202 12.1278 18.4719 12.1278ZM23.5014 14.4545C23.2912 14.4545 23.0966 14.4375 22.9176 14.4034C22.7415 14.3722 22.6009 14.3352 22.4957 14.2926L22.8537 13.0909C23.0781 13.1563 23.2784 13.1875 23.4545 13.1847C23.6307 13.1818 23.7855 13.1264 23.919 13.0185C24.0554 12.9134 24.1705 12.7372 24.2642 12.4901L24.3963 12.1364L22.0227 5.45455H23.6591L25.1676 10.3977H25.2358L26.7486 5.45455H28.3892L25.7685 12.7926C25.6463 13.1392 25.4844 13.4361 25.2827 13.6832C25.081 13.9332 24.8338 14.1236 24.5412 14.2543C24.2514 14.3878 23.9048 14.4545 23.5014 14.4545ZM32.0891 12.1278C31.4357 12.1278 30.8746 11.9844 30.4059 11.6974C29.94 11.4105 29.5806 11.0142 29.3278 10.5085C29.0778 10 28.9528 9.41477 28.9528 8.75284C28.9528 8.08807 29.0806 7.50142 29.3363 6.9929C29.592 6.48153 29.9528 6.08381 30.4187 5.79972C30.8874 5.51278 31.4414 5.36932 32.0806 5.36932C32.6119 5.36932 33.082 5.46733 33.4911 5.66335C33.9031 5.85653 34.2312 6.13068 34.4755 6.4858C34.7198 6.83807 34.859 7.25 34.8931 7.72159H33.4187C33.359 7.40625 33.217 7.14347 32.9925 6.93324C32.771 6.72017 32.4741 6.61364 32.1019 6.61364C31.7866 6.61364 31.5096 6.69886 31.271 6.86932C31.0323 7.03693 30.8462 7.27841 30.7127 7.59375C30.582 7.90909 30.5167 8.28693 30.5167 8.72727C30.5167 9.1733 30.582 9.55682 30.7127 9.87784C30.8434 10.196 31.0266 10.4418 31.2624 10.6151C31.5011 10.7855 31.7809 10.8707 32.1019 10.8707C32.3292 10.8707 32.5323 10.8281 32.7113 10.7429C32.8931 10.6548 33.0451 10.5284 33.1673 10.3636C33.2894 10.1989 33.3732 9.99858 33.4187 9.76278H34.8931C34.8562 10.2259 34.7198 10.6364 34.484 10.9943C34.2482 11.3494 33.9272 11.6278 33.521 11.8295C33.1147 12.0284 32.6374 12.1278 32.0891 12.1278ZM38.0433 12.1321C37.6286 12.1321 37.255 12.0582 36.9226 11.9105C36.593 11.7599 36.3317 11.5384 36.1385 11.2457C35.9482 10.9531 35.853 10.5923 35.853 10.1634C35.853 9.79403 35.9212 9.48864 36.0575 9.24716C36.1939 9.00568 36.38 8.8125 36.6158 8.66761C36.8516 8.52273 37.1172 8.41335 37.4126 8.33949C37.7109 8.26278 38.0192 8.20739 38.3374 8.1733C38.7209 8.13352 39.032 8.09801 39.2706 8.06676C39.5092 8.03267 39.6825 7.98153 39.7905 7.91335C39.9013 7.84233 39.9567 7.73295 39.9567 7.58523V7.55966C39.9567 7.23864 39.8615 6.99006 39.6712 6.81392C39.4808 6.63778 39.2067 6.54972 38.8487 6.54972C38.4709 6.54972 38.1712 6.6321 37.9496 6.79688C37.7308 6.96165 37.5831 7.15625 37.5064 7.38068L36.0661 7.17614C36.1797 6.77841 36.3672 6.44602 36.6286 6.17898C36.8899 5.90909 37.2095 5.70739 37.5874 5.57386C37.9652 5.4375 38.3828 5.36932 38.8402 5.36932C39.1555 5.36932 39.4695 5.40625 39.782 5.48011C40.0945 5.55398 40.38 5.67614 40.6385 5.84659C40.897 6.0142 41.1044 6.2429 41.2607 6.53267C41.4197 6.82244 41.4993 7.18466 41.4993 7.61932V12H40.0163V11.1009H39.9652C39.8714 11.2827 39.7393 11.4531 39.5689 11.6122C39.4013 11.7685 39.1896 11.8949 38.9339 11.9915C38.6811 12.0852 38.3842 12.1321 38.0433 12.1321ZM38.4439 10.9986C38.7536 10.9986 39.022 10.9375 39.2493 10.8153C39.4766 10.6903 39.6513 10.5256 39.7734 10.321C39.8984 10.1165 39.9609 9.89347 39.9609 9.65199V8.88068C39.9126 8.92045 39.8303 8.95739 39.7138 8.99148C39.6001 9.02557 39.4723 9.0554 39.3303 9.08097C39.1882 9.10653 39.0476 9.12926 38.9084 9.14915C38.7692 9.16903 38.6484 9.18608 38.5462 9.20028C38.3161 9.23153 38.1101 9.28267 37.9283 9.35369C37.7464 9.42472 37.603 9.52415 37.4979 9.65199C37.3928 9.77699 37.3402 9.93892 37.3402 10.1378C37.3402 10.4219 37.4439 10.6364 37.6513 10.7812C37.8587 10.9261 38.1229 10.9986 38.4439 10.9986ZM43.1186 12V3.27273H44.6612V6.53693H44.7251C44.8047 6.37784 44.9169 6.20881 45.0618 6.02983C45.2067 5.84801 45.4027 5.69318 45.6499 5.56534C45.897 5.43466 46.2124 5.36932 46.5959 5.36932C47.1016 5.36932 47.5575 5.49858 47.9638 5.7571C48.3729 6.01278 48.6967 6.39205 48.9354 6.89489C49.1768 7.39489 49.2976 8.00852 49.2976 8.7358C49.2976 9.45455 49.1797 10.0653 48.9439 10.5682C48.7081 11.071 48.3871 11.4545 47.9808 11.7188C47.5746 11.983 47.1143 12.1151 46.6001 12.1151C46.2251 12.1151 45.9141 12.0526 45.6669 11.9276C45.4197 11.8026 45.2209 11.652 45.0703 11.4759C44.9226 11.2969 44.8075 11.1278 44.7251 10.9688H44.6357V12H43.1186ZM44.6314 8.72727C44.6314 9.15057 44.6911 9.52131 44.8104 9.83949C44.9325 10.1577 45.1072 10.4062 45.3345 10.5852C45.5646 10.7614 45.843 10.8494 46.1697 10.8494C46.5107 10.8494 46.7962 10.7585 47.0263 10.5767C47.2564 10.392 47.4297 10.1406 47.5462 9.82244C47.6655 9.50142 47.7251 9.13636 47.7251 8.72727C47.7251 8.32102 47.6669 7.96023 47.5504 7.64489C47.4339 7.32955 47.2607 7.08239 47.0305 6.90341C46.8004 6.72443 46.5135 6.63494 46.1697 6.63494C45.8402 6.63494 45.5604 6.72159 45.3303 6.89489C45.1001 7.06818 44.9254 7.31108 44.8061 7.62358C44.6896 7.93608 44.6314 8.30398 44.6314 8.72727ZM52.1516 3.27273V12H50.609V3.27273H52.1516ZM56.6357 12.1278C55.9794 12.1278 55.4126 11.9915 54.9354 11.7188C54.4609 11.4432 54.0959 11.054 53.8402 10.5511C53.5845 10.0455 53.4567 9.45028 53.4567 8.76562C53.4567 8.09233 53.5845 7.50142 53.8402 6.9929C54.0987 6.48153 54.4595 6.08381 54.9226 5.79972C55.3857 5.51278 55.9297 5.36932 56.5547 5.36932C56.9581 5.36932 57.3388 5.43466 57.6967 5.56534C58.0575 5.69318 58.3757 5.89205 58.6513 6.16193C58.9297 6.43182 59.1484 6.77557 59.3075 7.19318C59.4666 7.60795 59.5462 8.10227 59.5462 8.67614V9.14915H54.1811V8.10938H58.0675C58.0646 7.81392 58.0007 7.55114 57.8757 7.32102C57.7507 7.08807 57.576 6.90483 57.3516 6.77131C57.13 6.63778 56.8714 6.57102 56.576 6.57102C56.2607 6.57102 55.9837 6.64773 55.745 6.80114C55.5064 6.9517 55.3203 7.15057 55.1868 7.39773C55.0561 7.64205 54.9893 7.91051 54.9865 8.20312V9.1108C54.9865 9.49148 55.0561 9.81818 55.1953 10.0909C55.3345 10.3608 55.5291 10.5682 55.7791 10.7131C56.0291 10.8551 56.3217 10.9261 56.657 10.9261C56.8814 10.9261 57.0845 10.8949 57.2663 10.8324C57.4482 10.767 57.6058 10.6719 57.7393 10.5469C57.8729 10.4219 57.9737 10.267 58.0419 10.0824L59.4822 10.2443C59.3913 10.625 59.218 10.9574 58.9624 11.2415C58.7095 11.5227 58.3857 11.7415 57.9908 11.8977C57.5959 12.0511 57.1442 12.1278 56.6357 12.1278Z" fill="black"/>
<path d="M16.8608 96V87.2727H20.1335C20.804 87.2727 21.3665 87.3977 21.821 87.6477C22.2784 87.8977 22.6236 88.2415 22.8565 88.679C23.0923 89.1136 23.2102 89.608 23.2102 90.1619C23.2102 90.7216 23.0923 91.2187 22.8565 91.6534C22.6207 92.0881 22.2727 92.4304 21.8125 92.6804C21.3523 92.9276 20.7855 93.0511 20.1122 93.0511H17.9432V91.7514H19.8991C20.2912 91.7514 20.6122 91.6832 20.8622 91.5469C21.1122 91.4105 21.2969 91.223 21.4162 90.9844C21.5384 90.7457 21.5994 90.4716 21.5994 90.1619C21.5994 89.8523 21.5384 89.5795 21.4162 89.3438C21.2969 89.108 21.1108 88.9247 20.858 88.794C20.608 88.6605 20.2855 88.5938 19.8906 88.5938H18.4418V96H16.8608ZM26.2816 96.1321C25.8668 96.1321 25.4933 96.0582 25.1609 95.9105C24.8313 95.7599 24.57 95.5384 24.3768 95.2457C24.1864 94.9531 24.0913 94.5923 24.0913 94.1634C24.0913 93.794 24.1594 93.4886 24.2958 93.2472C24.4322 93.0057 24.6183 92.8125 24.854 92.6676C25.0898 92.5227 25.3555 92.4134 25.6509 92.3395C25.9492 92.2628 26.2575 92.2074 26.5756 92.1733C26.9592 92.1335 27.2702 92.098 27.5089 92.0668C27.7475 92.0327 27.9208 91.9815 28.0288 91.9134C28.1396 91.8423 28.195 91.733 28.195 91.5852V91.5597C28.195 91.2386 28.0998 90.9901 27.9094 90.8139C27.7191 90.6378 27.445 90.5497 27.087 90.5497C26.7092 90.5497 26.4094 90.6321 26.1879 90.7969C25.9691 90.9616 25.8214 91.1562 25.7447 91.3807L24.3043 91.1761C24.418 90.7784 24.6055 90.446 24.8668 90.179C25.1282 89.9091 25.4478 89.7074 25.8256 89.5739C26.2035 89.4375 26.6211 89.3693 27.0785 89.3693C27.3938 89.3693 27.7077 89.4062 28.0202 89.4801C28.3327 89.554 28.6183 89.6761 28.8768 89.8466C29.1353 90.0142 29.3427 90.2429 29.4989 90.5327C29.658 90.8224 29.7376 91.1847 29.7376 91.6193V96H28.2546V95.1009H28.2035C28.1097 95.2827 27.9776 95.4531 27.8072 95.6122C27.6396 95.7685 27.4279 95.8949 27.1722 95.9915C26.9194 96.0852 26.6225 96.1321 26.2816 96.1321ZM26.6822 94.9986C26.9918 94.9986 27.2603 94.9375 27.4876 94.8153C27.7148 94.6903 27.8896 94.5256 28.0117 94.321C28.1367 94.1165 28.1992 93.8935 28.1992 93.652V92.8807C28.1509 92.9205 28.0685 92.9574 27.9521 92.9915C27.8384 93.0256 27.7106 93.0554 27.5685 93.081C27.4265 93.1065 27.2859 93.1293 27.1467 93.1491C27.0075 93.169 26.8867 93.1861 26.7844 93.2003C26.5543 93.2315 26.3484 93.2827 26.1665 93.3537C25.9847 93.4247 25.8413 93.5241 25.7362 93.652C25.631 93.777 25.5785 93.9389 25.5785 94.1378C25.5785 94.4219 25.6822 94.6364 25.8896 94.7812C26.0969 94.9261 26.3612 94.9986 26.6822 94.9986ZM31.2887 96V89.4545H32.7844V90.5455H32.8526C32.9719 90.1676 33.1765 89.8764 33.4663 89.6719C33.7589 89.4645 34.0927 89.3608 34.4677 89.3608C34.5529 89.3608 34.6481 89.3651 34.7532 89.3736C34.8612 89.3793 34.9506 89.3892 35.0217 89.4034V90.8224C34.9563 90.7997 34.8526 90.7798 34.7106 90.7628C34.5714 90.7429 34.4364 90.733 34.3058 90.733C34.0245 90.733 33.7717 90.794 33.5472 90.9162C33.3256 91.0355 33.1509 91.2017 33.0231 91.4148C32.8952 91.6278 32.8313 91.8736 32.8313 92.152V96H31.2887ZM39.6665 89.4545V90.6477H35.9038V89.4545H39.6665ZM36.8327 87.8864H38.3754V94.0312C38.3754 94.2386 38.4066 94.3977 38.4691 94.5085C38.5344 94.6165 38.6197 94.6903 38.7248 94.7301C38.8299 94.7699 38.9464 94.7898 39.0742 94.7898C39.1708 94.7898 39.2589 94.7827 39.3384 94.7685C39.4208 94.7543 39.4833 94.7415 39.5259 94.7301L39.7859 95.9361C39.7035 95.9645 39.5856 95.9957 39.4322 96.0298C39.2816 96.0639 39.0969 96.0838 38.8782 96.0895C38.4918 96.1009 38.1438 96.0426 37.8342 95.9148C37.5245 95.7841 37.2788 95.5824 37.0969 95.3097C36.918 95.0369 36.8299 94.696 36.8327 94.2869V87.8864ZM46.0362 91.1847L44.63 91.3381C44.5902 91.196 44.5206 91.0625 44.4212 90.9375C44.3246 90.8125 44.1939 90.7116 44.0291 90.6349C43.8643 90.5582 43.6626 90.5199 43.424 90.5199C43.103 90.5199 42.8331 90.5895 42.6143 90.7287C42.3984 90.8679 42.2919 91.0483 42.2947 91.2699C42.2919 91.4602 42.3615 91.6151 42.5036 91.7344C42.6484 91.8537 42.8871 91.9517 43.2195 92.0284L44.3359 92.267C44.9553 92.4006 45.4155 92.6122 45.7166 92.902C46.0206 93.1918 46.174 93.571 46.1768 94.0398C46.174 94.4517 46.0533 94.8153 45.8146 95.1307C45.5788 95.4432 45.2507 95.6875 44.8303 95.8636C44.4098 96.0398 43.9268 96.1278 43.3814 96.1278C42.5803 96.1278 41.9354 95.9602 41.4467 95.625C40.9581 95.2869 40.6669 94.8168 40.5732 94.2145L42.0774 94.0696C42.1456 94.3651 42.2905 94.5881 42.5121 94.7386C42.7337 94.8892 43.022 94.9645 43.3771 94.9645C43.7436 94.9645 44.0376 94.8892 44.2592 94.7386C44.4837 94.5881 44.5959 94.402 44.5959 94.1804C44.5959 93.9929 44.5234 93.8381 44.3786 93.7159C44.2365 93.5937 44.0149 93.5 43.7138 93.4347L42.5973 93.2003C41.9695 93.0696 41.505 92.8494 41.2038 92.5398C40.9027 92.2273 40.7536 91.8324 40.7564 91.3551C40.7536 90.9517 40.8629 90.6023 41.0845 90.3068C41.3089 90.0085 41.62 89.7784 42.0178 89.6165C42.4183 89.4517 42.88 89.3693 43.4027 89.3693C44.1697 89.3693 44.7734 89.5327 45.2138 89.8594C45.657 90.1861 45.9311 90.6278 46.0362 91.1847Z" fill="black"/>
<path d="M25.3384 25.1654L18.8491 33.9907C18.6923 34.2039 18.6346 34.4654 18.6886 34.7175C18.7427 34.9697 18.904 35.1919 19.1372 35.3353C19.3704 35.4786 19.6563 35.5314 19.9321 35.482C20.2078 35.4326 20.4508 35.285 20.6075 35.0718L27.135 26.1922C28.8723 23.4468 31.135 21.9375 33.4994 21.9375C35.8638 21.9375 38.1265 23.4468 39.8616 26.1884L51.5437 44.7883L43.2387 43.2693C43.1022 43.2444 42.9617 43.2443 42.8252 43.269C42.6887 43.2937 42.5589 43.3428 42.4431 43.4134C42.2093 43.556 42.047 43.7777 41.9919 44.0298C41.9368 44.2818 41.9935 44.5436 42.1495 44.7574C42.3054 44.9712 42.5478 45.1196 42.8235 45.17L53.4166 47.1075C53.6481 47.1457 53.8868 47.1115 54.0946 47.0106C54.1136 47.0029 54.1348 47.0068 54.1539 46.9971C54.1751 46.9854 54.1878 46.9661 54.209 46.9525C54.2785 46.9096 54.3419 46.8588 54.3975 46.8014C54.4314 46.7684 54.4653 46.7394 54.4929 46.7026C54.535 46.6416 54.5698 46.5766 54.5967 46.5088C54.6157 46.4643 54.6412 46.4236 54.6517 46.3771C54.6539 46.3654 54.6623 46.3577 54.6645 46.3461L56.7831 36.6586C56.8165 36.5318 56.8215 36.4001 56.7978 36.2714C56.7742 36.1428 56.7224 36.0198 56.6455 35.9099C56.5686 35.8 56.4683 35.7055 56.3505 35.6319C56.2326 35.5584 56.0998 35.5073 55.9599 35.4819C55.82 35.4564 55.6759 35.457 55.5363 35.4838C55.3966 35.5105 55.2644 35.5627 55.1473 35.6373C55.0303 35.7119 54.931 35.8074 54.8553 35.9179C54.7796 36.0285 54.7291 36.1519 54.7068 36.2808L53.1412 43.4398L41.6985 25.2196C39.5629 21.8542 36.6519 20 33.4994 20C30.3469 20 27.4359 21.8542 25.3384 25.1654ZM20.7876 75.2554C20.7876 74.9985 20.676 74.7521 20.4774 74.5704C20.2787 74.3888 20.0093 74.2867 19.7283 74.2867H10.1966C6.91909 74.2809 4.29835 73.1068 3.01023 71.0627C1.63736 68.8869 1.86829 66.0175 3.64582 63.1907L15.3237 44.5054L18.7453 52.331C18.797 52.4492 18.8737 52.5569 18.971 52.648C19.0682 52.739 19.1842 52.8117 19.3121 52.8618C19.4401 52.9119 19.5776 52.9385 19.7168 52.94C19.856 52.9415 19.9942 52.9179 20.1234 52.8706C20.2527 52.8233 20.3704 52.7531 20.47 52.6642C20.5696 52.5752 20.6491 52.4692 20.7039 52.3522C20.7587 52.2351 20.7877 52.1094 20.7894 51.9821C20.791 51.8548 20.7652 51.7284 20.7135 51.6102L16.4762 41.9228C16.455 41.8724 16.4169 41.8356 16.3872 41.791C16.3597 41.7503 16.3406 41.7096 16.3067 41.6709C16.2346 41.5927 16.1496 41.5254 16.0546 41.4713C16.0398 41.4616 16.0313 41.4481 16.0165 41.4403L16.0101 41.4384C15.8913 41.3771 15.7601 41.3382 15.6245 41.3241C15.6012 41.3221 15.58 41.328 15.5567 41.326C15.4656 41.3202 15.3767 41.3144 15.2834 41.3338L4.6903 43.2713C4.41469 43.3216 4.17224 43.47 4.0163 43.6839C3.86035 43.8977 3.80367 44.1594 3.85874 44.4115C3.9138 44.6635 4.0761 44.8852 4.30992 45.0279C4.54375 45.1705 4.82994 45.2223 5.10555 45.1719L13.4148 43.653L1.80473 62.2297C-0.358387 65.6687 -0.587199 69.2434 1.17338 72.0353C2.85133 74.6916 6.13732 76.2203 10.1924 76.2281H19.7262C20.0077 76.227 20.2774 76.1242 20.4762 75.9419C20.6751 75.7597 20.7871 75.5129 20.7876 75.2554ZM65.8381 72.014C67.5817 69.2511 67.3466 65.7016 65.2428 62.3653L60.9525 53.5148C60.8385 53.28 60.6271 53.0962 60.3648 53.0039C60.1026 52.9116 59.811 52.9184 59.5542 53.0227C59.2975 53.127 59.0965 53.3203 58.9956 53.5601C58.8947 53.7999 58.9021 54.0666 59.0161 54.3014L63.3572 63.241C65.1241 66.0543 65.3614 68.8985 64.0055 71.0453C62.7237 73.0777 60.0987 74.2441 56.8043 74.2499L34.9612 74.2828L39.5438 70.092C39.7368 69.9093 39.8436 69.6646 39.8411 69.4106C39.8387 69.1566 39.7273 68.9136 39.5309 68.734C39.3345 68.5544 39.0688 68.4525 38.7911 68.4503C38.5133 68.4481 38.2457 68.5457 38.046 68.7222L31.6901 74.5347C31.5898 74.627 31.511 74.7369 31.4582 74.8578C31.4054 74.9786 31.3798 75.1079 31.3829 75.238L31.3786 75.2574C31.3786 75.5713 31.5545 75.8386 31.8108 76.0149L38.046 81.717C38.2452 81.8983 38.5149 82 38.7959 82C39.077 82 39.3467 81.8983 39.5459 81.717C39.7445 81.5353 39.8561 81.289 39.8561 81.0321C39.8561 80.7752 39.7445 80.5288 39.5459 80.3472L35.0333 76.2203L56.8064 76.1874C60.8741 76.1796 64.1665 74.6587 65.8381 72.014Z" fill="#283BA2"/>
</svg>
