<svg width="100" height="99" viewBox="0 0 100 99" fill="none" xmlns="http://www.w3.org/2000/svg">
<path d="M18.4056 19.1848L16.7343 19.0918C16.3576 19.0687 15.9762 19.1369 15.6217 19.2908C15.2672 19.4447 14.9499 19.6799 14.696 19.9767L11.9065 23.2548L10.3871 21.9619C9.9164 21.5613 9.2972 21.3743 8.66574 21.4419C8.03428 21.5096 7.4423 21.8263 7.02002 22.3226L2.58097 27.5391C2.16037 28.036 1.94349 28.6706 1.97772 29.3042C2.01196 29.9378 2.29453 30.5189 2.76369 30.9205L9.82076 36.9258C10.1032 37.1662 10.4747 37.2784 10.8536 37.2378C11.2325 37.1973 11.5877 37.0072 11.841 36.7094L12.618 35.7964C13.046 36.0631 13.5632 36.1598 14.0746 36.0686C14.586 35.9774 15.0571 35.7045 15.4012 35.3001C15.7453 34.8957 15.9393 34.387 15.9475 33.8676C15.9557 33.3482 15.7775 32.8531 15.4458 32.4734L18.9868 28.3121C19.4148 28.5789 19.932 28.6755 20.4434 28.5843C20.9548 28.4932 21.4259 28.2203 21.77 27.8159C22.1141 27.4115 22.3081 26.9028 22.3163 26.3834C22.3245 25.864 22.1463 25.3689 21.8146 24.9891L22.5916 24.076C22.8449 23.7783 22.9757 23.3973 22.9552 23.0168C22.9346 22.6363 22.7644 22.2875 22.4819 22.0472L19.7344 19.7091C19.3634 19.3965 18.899 19.2133 18.4056 19.1848ZM14.6922 34.6967C14.5347 34.8818 14.3288 35.0183 14.1003 35.0892C13.8719 35.1601 13.6312 35.162 13.4088 35.0949C13.1864 35.0277 12.9922 34.8943 12.8508 34.7118C12.7093 34.5292 12.627 34.3055 12.6143 34.0691C12.6015 33.8326 12.6588 33.594 12.779 33.3834C12.8992 33.1728 13.0768 32.9996 13.2895 32.8858C13.5021 32.772 13.7402 32.7227 13.9736 32.7441C14.207 32.7655 14.4253 32.8566 14.6008 33.006C14.8362 33.2063 14.978 33.4969 14.9952 33.814C15.0123 34.1311 14.9033 34.4486 14.6922 34.6967ZM17.1623 29.0177L14.6912 31.9216C14.2748 31.7552 13.8098 31.7294 13.3633 31.8481C12.9168 31.9668 12.5119 32.2238 12.2071 32.582C11.9023 32.9402 11.7134 33.381 11.6676 33.8407C11.6219 34.3005 11.7217 34.7554 11.9526 35.1398L11.1311 36.1053C11.0466 36.2045 10.9282 36.2679 10.8019 36.2814C10.6756 36.2949 10.5518 36.2575 10.4576 36.1774L3.40057 30.1721C3.11813 29.9318 2.9479 29.583 2.92734 29.2025C2.90678 28.822 3.03757 28.441 3.29094 28.1433L7.72999 22.9267C7.98336 22.629 8.33855 22.4389 8.71742 22.3983C9.0963 22.3578 9.46782 22.47 9.75026 22.7103L17.1623 29.0177ZM21.061 27.2125C20.9035 27.3975 20.6976 27.5341 20.4691 27.605C20.2407 27.6758 20 27.6778 19.7776 27.6106C19.5552 27.5434 19.361 27.4101 19.2196 27.2275C19.0781 27.0449 18.9958 26.8213 18.9831 26.5848C18.9703 26.3484 19.0276 26.1097 19.1478 25.8991C19.268 25.6885 19.4456 25.5154 19.6583 25.4016C19.8709 25.2878 20.109 25.2385 20.3424 25.2599C20.5758 25.2813 20.7941 25.3724 20.9696 25.5218C21.205 25.7221 21.3468 26.0127 21.364 26.3298C21.3811 26.6469 21.2721 26.9644 21.061 27.2125ZM21.8451 22.7956C21.9392 22.8757 21.9959 22.992 22.0028 23.1188C22.0097 23.2456 21.9661 23.3726 21.8816 23.4719L21.06 24.4374C20.6436 24.2709 20.1786 24.2452 19.7321 24.3639C19.2856 24.4826 18.8807 24.7396 18.5759 25.0978C18.2711 25.4559 18.0822 25.8967 18.0364 26.3565C17.9907 26.8163 18.0905 27.2712 18.3214 27.6556L17.7992 28.2693L12.6164 23.859L15.406 20.5809C15.5591 20.4033 15.7497 20.2625 15.9625 20.17C16.1752 20.0774 16.404 20.0358 16.6302 20.0484L18.3015 20.1415C18.5969 20.1606 18.8746 20.2709 19.0975 20.4575L21.8451 22.7956Z" fill="#283BA2"/>
<path d="M18 47.8245C19.3592 49.3738 20.826 50.8271 22.3896 52.1738L26.3591 55.1997L25.7483 57.1669L23.9174 60.0412L20.4837 63.5176M65 59.775L63.7424 55.5268L62.6994 52.4772L60.2562 53.2325L59.4923 56.4101L57.3553 52.4772L55.5229 49.6014L53.3858 51.417L51.0957 52.9307V54.7447L47.8886 57.4688L47.5825 60.6463L45.5985 62.4604L43.4615 65.9398L41.1713 67L40.1013 65.1845L38.7281 60.4947L39.4905 58.8293L38.422 53.686L36.8957 52.9307L34.6056 53.3842L32.6202 51.1151L32.314 48.2409L33.6887 45.9718L35.6741 44.4596L35.9788 41.8872L37.8112 40.5252L37.3535 38.1045L38.422 37.4993L39.9482 38.4063L40.8637 37.8011L41.9337 35.9871L44.3754 34.1701L47.7355 35.0771L51.4003 36.4391L59.3392 35.0771M34.5426 29C34.8161 29.0401 35.0785 29.135 35.3136 29.2791C35.5488 29.4232 35.7518 29.6134 35.9101 29.8379C36.0685 30.0625 36.1789 30.3167 36.2346 30.5851C36.2902 30.8534 36.29 31.1302 36.2339 31.3984C36.2034 31.6811 36.1167 31.955 35.9788 32.2043L32.0094 33.263L30.0254 34.1701L29.341 31.5977" stroke="#283BA2" stroke-linecap="round" stroke-linejoin="round"/>
<path d="M42 84C59.6731 84 74 69.6731 74 52C74 34.3269 59.6731 20 42 20C24.3269 20 10 34.3269 10 52C10 69.6731 24.3269 84 42 84Z" stroke="#283BA2" stroke-linecap="round" stroke-linejoin="round"/>
<path d="M42 77C55.8071 77 67 65.8071 67 52C67 38.1929 55.8071 27 42 27C28.1929 27 17 38.1929 17 52C17 65.8071 28.1929 77 42 77Z" stroke="#283BA2" stroke-linecap="round" stroke-linejoin="round"/>
<path d="M13.6037 5.67188C13.5639 5.29972 13.3963 5.00994 13.1009 4.80256C12.8082 4.59517 12.4276 4.49148 11.9588 4.49148C11.6293 4.49148 11.3466 4.54119 11.1108 4.64062C10.875 4.74006 10.6946 4.875 10.5696 5.04545C10.4446 5.21591 10.3807 5.41051 10.3778 5.62926C10.3778 5.81108 10.419 5.96875 10.5014 6.10227C10.5866 6.2358 10.7017 6.34943 10.8466 6.44318C10.9915 6.53409 11.152 6.6108 11.3281 6.6733C11.5043 6.7358 11.6818 6.78835 11.8608 6.83097L12.679 7.03551C13.0085 7.11222 13.3253 7.21591 13.6293 7.34659C13.9361 7.47727 14.2102 7.64205 14.4517 7.84091C14.696 8.03977 14.8892 8.27983 15.0312 8.56108C15.1733 8.84233 15.2443 9.17187 15.2443 9.54972C15.2443 10.0611 15.1136 10.5114 14.8523 10.9006C14.5909 11.2869 14.2131 11.5895 13.7188 11.8082C13.2273 12.0241 12.6321 12.1321 11.9332 12.1321C11.2543 12.1321 10.6648 12.027 10.1648 11.8168C9.66761 11.6065 9.27841 11.2997 8.99716 10.8963C8.71875 10.4929 8.56818 10.0014 8.54545 9.42188H10.1009C10.1236 9.72585 10.2173 9.97869 10.3821 10.1804C10.5469 10.3821 10.7614 10.5327 11.0256 10.6321C11.2926 10.7315 11.5909 10.7812 11.9205 10.7812C12.2642 10.7812 12.5653 10.7301 12.8239 10.6278C13.0852 10.5227 13.2898 10.3778 13.4375 10.1932C13.5852 10.0057 13.6605 9.78693 13.6634 9.53693C13.6605 9.30966 13.5938 9.12216 13.4631 8.97443C13.3324 8.82386 13.1491 8.69886 12.9134 8.59943C12.6804 8.49716 12.4077 8.40625 12.0952 8.3267L11.1023 8.07102C10.3835 7.88636 9.81534 7.60653 9.39773 7.23153C8.98295 6.85369 8.77557 6.35227 8.77557 5.72727C8.77557 5.21307 8.91477 4.76278 9.19318 4.37642C9.47443 3.99006 9.85653 3.69034 10.3395 3.47727C10.8224 3.26136 11.3693 3.15341 11.9801 3.15341C12.5994 3.15341 13.142 3.26136 13.608 3.47727C14.0767 3.69034 14.4446 3.98722 14.7116 4.3679C14.9787 4.74574 15.1165 5.1804 15.125 5.67188H13.6037ZM20.7575 9.24716V5.45455H22.3001V12H20.8043V10.8366H20.7362C20.5884 11.2031 20.3455 11.5028 20.0075 11.7358C19.6722 11.9687 19.2589 12.0852 18.7674 12.0852C18.3384 12.0852 17.9592 11.9901 17.6296 11.7997C17.3029 11.6065 17.0472 11.3267 16.8626 10.9602C16.6779 10.5909 16.5856 10.1449 16.5856 9.62216V5.45455H18.1282V9.38352C18.1282 9.7983 18.2418 10.1278 18.4691 10.3722C18.6964 10.6165 18.9947 10.7386 19.364 10.7386C19.5913 10.7386 19.8114 10.6832 20.0245 10.5724C20.2376 10.4616 20.4123 10.2969 20.5487 10.0781C20.6879 9.85653 20.7575 9.57955 20.7575 9.24716ZM29.0597 7.18466L27.6534 7.33807C27.6136 7.19602 27.544 7.0625 27.4446 6.9375C27.348 6.8125 27.2173 6.71165 27.0526 6.63494C26.8878 6.55824 26.6861 6.51989 26.4474 6.51989C26.1264 6.51989 25.8565 6.58949 25.6378 6.72869C25.4219 6.8679 25.3153 7.0483 25.3182 7.26989C25.3153 7.46023 25.3849 7.61506 25.527 7.73438C25.6719 7.85369 25.9105 7.9517 26.2429 8.02841L27.3594 8.26705C27.9787 8.40057 28.4389 8.61222 28.7401 8.90199C29.044 9.19176 29.1974 9.57102 29.2003 10.0398C29.1974 10.4517 29.0767 10.8153 28.8381 11.1307C28.6023 11.4432 28.2741 11.6875 27.8537 11.8636C27.4332 12.0398 26.9503 12.1278 26.4048 12.1278C25.6037 12.1278 24.9588 11.9602 24.4702 11.625C23.9815 11.2869 23.6903 10.8168 23.5966 10.2145L25.1009 10.0696C25.169 10.3651 25.3139 10.5881 25.5355 10.7386C25.7571 10.8892 26.0455 10.9645 26.4006 10.9645C26.767 10.9645 27.0611 10.8892 27.2827 10.7386C27.5071 10.5881 27.6193 10.402 27.6193 10.1804C27.6193 9.9929 27.5469 9.83807 27.402 9.71591C27.2599 9.59375 27.0384 9.5 26.7372 9.43466L25.6207 9.20028C24.9929 9.0696 24.5284 8.84943 24.2273 8.53977C23.9261 8.22727 23.777 7.83239 23.7798 7.35511C23.777 6.9517 23.8864 6.60227 24.108 6.30682C24.3324 6.00852 24.6435 5.77841 25.0412 5.61648C25.4418 5.4517 25.9034 5.36932 26.4261 5.36932C27.1932 5.36932 27.7969 5.53267 28.2372 5.85938C28.6804 6.18608 28.9545 6.62784 29.0597 7.18466ZM33.7408 5.45455V6.64773H29.978V5.45455H33.7408ZM30.907 3.88636H32.4496V10.0312C32.4496 10.2386 32.4808 10.3977 32.5433 10.5085C32.6087 10.6165 32.6939 10.6903 32.799 10.7301C32.9041 10.7699 33.0206 10.7898 33.1484 10.7898C33.245 10.7898 33.3331 10.7827 33.4126 10.7685C33.495 10.7543 33.5575 10.7415 33.6001 10.7301L33.8601 11.9361C33.7777 11.9645 33.6598 11.9957 33.5064 12.0298C33.3558 12.0639 33.1712 12.0838 32.9524 12.0895C32.5661 12.1009 32.218 12.0426 31.9084 11.9148C31.5987 11.7841 31.353 11.5824 31.1712 11.3097C30.9922 11.0369 30.9041 10.696 30.907 10.2869V3.88636ZM36.9144 12.1321C36.4996 12.1321 36.1261 12.0582 35.7937 11.9105C35.4641 11.7599 35.2028 11.5384 35.0096 11.2457C34.8192 10.9531 34.7241 10.5923 34.7241 10.1634C34.7241 9.79403 34.7923 9.48864 34.9286 9.24716C35.065 9.00568 35.2511 8.8125 35.4869 8.66761C35.7227 8.52273 35.9883 8.41335 36.2837 8.33949C36.582 8.26278 36.8903 8.20739 37.2085 8.1733C37.592 8.13352 37.9031 8.09801 38.1417 8.06676C38.3803 8.03267 38.5536 7.98153 38.6616 7.91335C38.7724 7.84233 38.8278 7.73295 38.8278 7.58523V7.55966C38.8278 7.23864 38.7326 6.99006 38.5423 6.81392C38.3519 6.63778 38.0778 6.54972 37.7198 6.54972C37.342 6.54972 37.0423 6.6321 36.8207 6.79688C36.6019 6.96165 36.4542 7.15625 36.3775 7.38068L34.9371 7.17614C35.0508 6.77841 35.2383 6.44602 35.4996 6.17898C35.761 5.90909 36.0806 5.70739 36.4585 5.57386C36.8363 5.4375 37.2539 5.36932 37.7113 5.36932C38.0266 5.36932 38.3406 5.40625 38.6531 5.48011C38.9656 5.55398 39.2511 5.67614 39.5096 5.84659C39.7681 6.0142 39.9755 6.2429 40.1317 6.53267C40.2908 6.82244 40.3704 7.18466 40.3704 7.61932V12H38.8874V11.1009H38.8363C38.7425 11.2827 38.6104 11.4531 38.44 11.6122C38.2724 11.7685 38.0607 11.8949 37.805 11.9915C37.5522 12.0852 37.2553 12.1321 36.9144 12.1321ZM37.315 10.9986C37.6246 10.9986 37.8931 10.9375 38.1204 10.8153C38.3477 10.6903 38.5224 10.5256 38.6445 10.321C38.7695 10.1165 38.832 9.89347 38.832 9.65199V8.88068C38.7837 8.92045 38.7013 8.95739 38.5849 8.99148C38.4712 9.02557 38.3434 9.0554 38.2013 9.08097C38.0593 9.10653 37.9187 9.12926 37.7795 9.14915C37.6403 9.16903 37.5195 9.18608 37.4173 9.20028C37.1871 9.23153 36.9812 9.28267 36.7994 9.35369C36.6175 9.42472 36.4741 9.52415 36.369 9.65199C36.2638 9.77699 36.2113 9.93892 36.2113 10.1378C36.2113 10.4219 36.315 10.6364 36.5224 10.7812C36.7298 10.9261 36.994 10.9986 37.315 10.9986ZM41.9215 12V5.45455H43.4641V12H41.9215ZM42.6971 4.52557C42.4528 4.52557 42.2425 4.4446 42.0664 4.28267C41.8903 4.1179 41.8022 3.92045 41.8022 3.69034C41.8022 3.45739 41.8903 3.25994 42.0664 3.09801C42.2425 2.93324 42.4528 2.85085 42.6971 2.85085C42.9442 2.85085 43.1545 2.93324 43.3278 3.09801C43.5039 3.25994 43.592 3.45739 43.592 3.69034C43.592 3.92045 43.5039 4.1179 43.3278 4.28267C43.1545 4.4446 42.9442 4.52557 42.6971 4.52557ZM46.593 8.16477V12H45.0504V5.45455H46.5249V6.56676H46.6016C46.7521 6.20028 46.9922 5.90909 47.3217 5.69318C47.6541 5.47727 48.0646 5.36932 48.5533 5.36932C49.005 5.36932 49.3984 5.46591 49.7337 5.65909C50.0717 5.85227 50.3331 6.1321 50.5178 6.49858C50.7053 6.86506 50.7976 7.30966 50.7947 7.83239V12H49.2521V8.07102C49.2521 7.63352 49.1385 7.29119 48.9112 7.04403C48.6868 6.79687 48.3757 6.6733 47.978 6.6733C47.7081 6.6733 47.468 6.73295 47.2578 6.85227C47.0504 6.96875 46.8871 7.13778 46.7678 7.35938C46.6513 7.58097 46.593 7.84943 46.593 8.16477ZM54.2464 12.1321C53.8317 12.1321 53.4581 12.0582 53.1257 11.9105C52.7962 11.7599 52.5348 11.5384 52.3416 11.2457C52.1513 10.9531 52.0561 10.5923 52.0561 10.1634C52.0561 9.79403 52.1243 9.48864 52.2607 9.24716C52.397 9.00568 52.5831 8.8125 52.8189 8.66761C53.0547 8.52273 53.3203 8.41335 53.6158 8.33949C53.9141 8.26278 54.2223 8.20739 54.5405 8.1733C54.924 8.13352 55.2351 8.09801 55.4737 8.06676C55.7124 8.03267 55.8857 7.98153 55.9936 7.91335C56.1044 7.84233 56.1598 7.73295 56.1598 7.58523V7.55966C56.1598 7.23864 56.0646 6.99006 55.8743 6.81392C55.6839 6.63778 55.4098 6.54972 55.0518 6.54972C54.674 6.54972 54.3743 6.6321 54.1527 6.79688C53.9339 6.96165 53.7862 7.15625 53.7095 7.38068L52.2692 7.17614C52.3828 6.77841 52.5703 6.44602 52.8317 6.17898C53.093 5.90909 53.4126 5.70739 53.7905 5.57386C54.1683 5.4375 54.5859 5.36932 55.0433 5.36932C55.3587 5.36932 55.6726 5.40625 55.9851 5.48011C56.2976 5.55398 56.5831 5.67614 56.8416 5.84659C57.1001 6.0142 57.3075 6.2429 57.4638 6.53267C57.6229 6.82244 57.7024 7.18466 57.7024 7.61932V12H56.2195V11.1009H56.1683C56.0746 11.2827 55.9425 11.4531 55.772 11.6122C55.6044 11.7685 55.3928 11.8949 55.1371 11.9915C54.8842 12.0852 54.5874 12.1321 54.2464 12.1321ZM54.647 10.9986C54.9567 10.9986 55.2251 10.9375 55.4524 10.8153C55.6797 10.6903 55.8544 10.5256 55.9766 10.321C56.1016 10.1165 56.1641 9.89347 56.1641 9.65199V8.88068C56.1158 8.92045 56.0334 8.95739 55.9169 8.99148C55.8033 9.02557 55.6754 9.0554 55.5334 9.08097C55.3913 9.10653 55.2507 9.12926 55.1115 9.14915C54.9723 9.16903 54.8516 9.18608 54.7493 9.20028C54.5192 9.23153 54.3132 9.28267 54.1314 9.35369C53.9496 9.42472 53.8061 9.52415 53.701 9.65199C53.5959 9.77699 53.5433 9.93892 53.5433 10.1378C53.5433 10.4219 53.647 10.6364 53.8544 10.7812C54.0618 10.9261 54.326 10.9986 54.647 10.9986ZM59.3217 12V3.27273H60.8643V6.53693H60.9283C61.0078 6.37784 61.12 6.20881 61.2649 6.02983C61.4098 5.84801 61.6058 5.69318 61.853 5.56534C62.1001 5.43466 62.4155 5.36932 62.799 5.36932C63.3047 5.36932 63.7607 5.49858 64.1669 5.7571C64.576 6.01278 64.8999 6.39205 65.1385 6.89489C65.38 7.39489 65.5007 8.00852 65.5007 8.7358C65.5007 9.45455 65.3828 10.0653 65.147 10.5682C64.9112 11.071 64.5902 11.4545 64.1839 11.7188C63.7777 11.983 63.3175 12.1151 62.8033 12.1151C62.4283 12.1151 62.1172 12.0526 61.87 11.9276C61.6229 11.8026 61.424 11.652 61.2734 11.4759C61.1257 11.2969 61.0107 11.1278 60.9283 10.9688H60.8388V12H59.3217ZM60.8345 8.72727C60.8345 9.15057 60.8942 9.52131 61.0135 9.83949C61.1357 10.1577 61.3104 10.4062 61.5376 10.5852C61.7678 10.7614 62.0462 10.8494 62.3729 10.8494C62.7138 10.8494 62.9993 10.7585 63.2294 10.5767C63.4595 10.392 63.6328 10.1406 63.7493 9.82244C63.8686 9.50142 63.9283 9.13636 63.9283 8.72727C63.9283 8.32102 63.87 7.96023 63.7536 7.64489C63.6371 7.32955 63.4638 7.08239 63.2337 6.90341C63.0036 6.72443 62.7166 6.63494 62.3729 6.63494C62.0433 6.63494 61.7635 6.72159 61.5334 6.89489C61.3033 7.06818 61.1286 7.31108 61.0092 7.62358C60.8928 7.93608 60.8345 8.30398 60.8345 8.72727ZM68.3548 3.27273V12H66.8121V3.27273H68.3548ZM72.8388 12.1278C72.1825 12.1278 71.6158 11.9915 71.1385 11.7188C70.6641 11.4432 70.299 11.054 70.0433 10.5511C69.7876 10.0455 69.6598 9.45028 69.6598 8.76562C69.6598 8.09233 69.7876 7.50142 70.0433 6.9929C70.3018 6.48153 70.6626 6.08381 71.1257 5.79972C71.5888 5.51278 72.1328 5.36932 72.7578 5.36932C73.1612 5.36932 73.5419 5.43466 73.8999 5.56534C74.2607 5.69318 74.5788 5.89205 74.8544 6.16193C75.1328 6.43182 75.3516 6.77557 75.5107 7.19318C75.6697 7.60795 75.7493 8.10227 75.7493 8.67614V9.14915H70.3842V8.10938H74.2706C74.2678 7.81392 74.2038 7.55114 74.0788 7.32102C73.9538 7.08807 73.7791 6.90483 73.5547 6.77131C73.3331 6.63778 73.0746 6.57102 72.7791 6.57102C72.4638 6.57102 72.1868 6.64773 71.9482 6.80114C71.7095 6.9517 71.5234 7.15057 71.3899 7.39773C71.2592 7.64205 71.1925 7.91051 71.1896 8.20312V9.1108C71.1896 9.49148 71.2592 9.81818 71.3984 10.0909C71.5376 10.3608 71.7322 10.5682 71.9822 10.7131C72.2322 10.8551 72.5249 10.9261 72.8601 10.9261C73.0845 10.9261 73.2876 10.8949 73.4695 10.8324C73.6513 10.767 73.8089 10.6719 73.9425 10.5469C74.076 10.4219 74.1768 10.267 74.245 10.0824L75.6854 10.2443C75.5945 10.625 75.4212 10.9574 75.1655 11.2415C74.9126 11.5227 74.5888 11.7415 74.1939 11.8977C73.799 12.0511 73.3473 12.1278 72.8388 12.1278Z" fill="black"/>
<path d="M10.4773 88.598V87.2727H17.4403V88.598H14.7429V96H13.1747V88.598H10.4773ZM18.0348 96V89.4545H19.5305V90.5455H19.5987C19.718 90.1676 19.9226 89.8764 20.2124 89.6719C20.505 89.4645 20.8388 89.3608 21.2138 89.3608C21.299 89.3608 21.3942 89.3651 21.4993 89.3736C21.6072 89.3793 21.6967 89.3892 21.7678 89.4034V90.8224C21.7024 90.7997 21.5987 90.7798 21.4567 90.7628C21.3175 90.7429 21.1825 90.733 21.0518 90.733C20.7706 90.733 20.5178 90.794 20.2933 90.9162C20.0717 91.0355 19.897 91.2017 19.7692 91.4148C19.6413 91.6278 19.5774 91.8736 19.5774 92.152V96H18.0348ZM24.5589 96.1321C24.1442 96.1321 23.7706 96.0582 23.4382 95.9105C23.1087 95.7599 22.8473 95.5384 22.6541 95.2457C22.4638 94.9531 22.3686 94.5923 22.3686 94.1634C22.3686 93.794 22.4368 93.4886 22.5732 93.2472C22.7095 93.0057 22.8956 92.8125 23.1314 92.6676C23.3672 92.5227 23.6328 92.4134 23.9283 92.3395C24.2266 92.2628 24.5348 92.2074 24.853 92.1733C25.2365 92.1335 25.5476 92.098 25.7862 92.0668C26.0249 92.0327 26.1982 91.9815 26.3061 91.9134C26.4169 91.8423 26.4723 91.733 26.4723 91.5852V91.5597C26.4723 91.2386 26.3771 90.9901 26.1868 90.8139C25.9964 90.6378 25.7223 90.5497 25.3643 90.5497C24.9865 90.5497 24.6868 90.6321 24.4652 90.7969C24.2464 90.9616 24.0987 91.1562 24.022 91.3807L22.5817 91.1761C22.6953 90.7784 22.8828 90.446 23.1442 90.179C23.4055 89.9091 23.7251 89.7074 24.103 89.5739C24.4808 89.4375 24.8984 89.3693 25.3558 89.3693C25.6712 89.3693 25.9851 89.4062 26.2976 89.4801C26.6101 89.554 26.8956 89.6761 27.1541 89.8466C27.4126 90.0142 27.62 90.2429 27.7763 90.5327C27.9354 90.8224 28.0149 91.1847 28.0149 91.6193V96H26.532V95.1009H26.4808C26.3871 95.2827 26.255 95.4531 26.0845 95.6122C25.9169 95.7685 25.7053 95.8949 25.4496 95.9915C25.1967 96.0852 24.8999 96.1321 24.5589 96.1321ZM24.9595 94.9986C25.2692 94.9986 25.5376 94.9375 25.7649 94.8153C25.9922 94.6903 26.1669 94.5256 26.2891 94.321C26.4141 94.1165 26.4766 93.8935 26.4766 93.652V92.8807C26.4283 92.9205 26.3459 92.9574 26.2294 92.9915C26.1158 93.0256 25.9879 93.0554 25.8459 93.081C25.7038 93.1065 25.5632 93.1293 25.424 93.1491C25.2848 93.169 25.1641 93.1861 25.0618 93.2003C24.8317 93.2315 24.6257 93.2827 24.4439 93.3537C24.2621 93.4247 24.1186 93.5241 24.0135 93.652C23.9084 93.777 23.8558 93.9389 23.8558 94.1378C23.8558 94.4219 23.9595 94.6364 24.1669 94.7812C24.3743 94.9261 24.6385 94.9986 24.9595 94.9986ZM31.1087 92.1648V96H29.5661V89.4545H31.0405V90.5668H31.1172C31.2678 90.2003 31.5078 89.9091 31.8374 89.6932C32.1697 89.4773 32.5803 89.3693 33.0689 89.3693C33.5206 89.3693 33.9141 89.4659 34.2493 89.6591C34.5874 89.8523 34.8487 90.1321 35.0334 90.4986C35.2209 90.8651 35.3132 91.3097 35.3104 91.8324V96H33.7678V92.071C33.7678 91.6335 33.6541 91.2912 33.4268 91.044C33.2024 90.7969 32.8913 90.6733 32.4936 90.6733C32.2237 90.6733 31.9837 90.733 31.7734 90.8523C31.5661 90.9687 31.4027 91.1378 31.2834 91.3594C31.1669 91.581 31.1087 91.8494 31.1087 92.1648ZM42.0518 91.1847L40.6456 91.3381C40.6058 91.196 40.5362 91.0625 40.4368 90.9375C40.3402 90.8125 40.2095 90.7116 40.0447 90.6349C39.88 90.5582 39.6783 90.5199 39.4396 90.5199C39.1186 90.5199 38.8487 90.5895 38.63 90.7287C38.4141 90.8679 38.3075 91.0483 38.3104 91.2699C38.3075 91.4602 38.3771 91.6151 38.5192 91.7344C38.6641 91.8537 38.9027 91.9517 39.2351 92.0284L40.3516 92.267C40.9709 92.4006 41.4311 92.6122 41.7322 92.902C42.0362 93.1918 42.1896 93.571 42.1925 94.0398C42.1896 94.4517 42.0689 94.8153 41.8303 95.1307C41.5945 95.4432 41.2663 95.6875 40.8459 95.8636C40.4254 96.0398 39.9425 96.1278 39.397 96.1278C38.5959 96.1278 37.951 95.9602 37.4624 95.625C36.9737 95.2869 36.6825 94.8168 36.5888 94.2145L38.093 94.0696C38.1612 94.3651 38.3061 94.5881 38.5277 94.7386C38.7493 94.8892 39.0376 94.9645 39.3928 94.9645C39.7592 94.9645 40.0533 94.8892 40.2749 94.7386C40.4993 94.5881 40.6115 94.402 40.6115 94.1804C40.6115 93.9929 40.5391 93.8381 40.3942 93.7159C40.2521 93.5937 40.0305 93.5 39.7294 93.4347L38.6129 93.2003C37.9851 93.0696 37.5206 92.8494 37.2195 92.5398C36.9183 92.2273 36.7692 91.8324 36.772 91.3551C36.7692 90.9517 36.8786 90.6023 37.1001 90.3068C37.3246 90.0085 37.6357 89.7784 38.0334 89.6165C38.4339 89.4517 38.8956 89.3693 39.4183 89.3693C40.1854 89.3693 40.7891 89.5327 41.2294 89.8594C41.6726 90.1861 41.9467 90.6278 42.0518 91.1847ZM43.4645 98.4545V89.4545H44.9815V90.5369H45.071C45.1506 90.3778 45.2628 90.2088 45.4077 90.0298C45.5526 89.848 45.7486 89.6932 45.9957 89.5653C46.2429 89.4347 46.5582 89.3693 46.9418 89.3693C47.4474 89.3693 47.9034 89.4986 48.3097 89.7571C48.7188 90.0128 49.0426 90.392 49.2812 90.8949C49.5227 91.3949 49.6435 92.0085 49.6435 92.7358C49.6435 93.4545 49.5256 94.0653 49.2898 94.5682C49.054 95.071 48.733 95.4545 48.3267 95.7188C47.9205 95.983 47.4602 96.1151 46.946 96.1151C46.571 96.1151 46.2599 96.0526 46.0128 95.9276C45.7656 95.8026 45.5668 95.652 45.4162 95.4759C45.2685 95.2969 45.1534 95.1278 45.071 94.9688H45.0071V98.4545H43.4645ZM44.9773 92.7273C44.9773 93.1506 45.0369 93.5213 45.1562 93.8395C45.2784 94.1577 45.4531 94.4062 45.6804 94.5852C45.9105 94.7614 46.1889 94.8494 46.5156 94.8494C46.8565 94.8494 47.142 94.7585 47.3722 94.5767C47.6023 94.392 47.7756 94.1406 47.892 93.8224C48.0114 93.5014 48.071 93.1364 48.071 92.7273C48.071 92.321 48.0128 91.9602 47.8963 91.6449C47.7798 91.3295 47.6065 91.0824 47.3764 90.9034C47.1463 90.7244 46.8594 90.6349 46.5156 90.6349C46.1861 90.6349 45.9062 90.7216 45.6761 90.8949C45.446 91.0682 45.2713 91.3111 45.152 91.6236C45.0355 91.9361 44.9773 92.304 44.9773 92.7273ZM53.8196 96.1278C53.1804 96.1278 52.6264 95.9872 52.1577 95.706C51.6889 95.4247 51.3253 95.0312 51.0668 94.5256C50.8111 94.0199 50.6832 93.429 50.6832 92.7528C50.6832 92.0767 50.8111 91.4844 51.0668 90.9759C51.3253 90.4673 51.6889 90.0724 52.1577 89.7912C52.6264 89.5099 53.1804 89.3693 53.8196 89.3693C54.4588 89.3693 55.0128 89.5099 55.4815 89.7912C55.9503 90.0724 56.3125 90.4673 56.5682 90.9759C56.8267 91.4844 56.956 92.0767 56.956 92.7528C56.956 93.429 56.8267 94.0199 56.5682 94.5256C56.3125 95.0312 55.9503 95.4247 55.4815 95.706C55.0128 95.9872 54.4588 96.1278 53.8196 96.1278ZM53.8281 94.892C54.1747 94.892 54.4645 94.7969 54.6974 94.6065C54.9304 94.4134 55.1037 94.1548 55.2173 93.831C55.3338 93.5071 55.392 93.1463 55.392 92.7486C55.392 92.348 55.3338 91.9858 55.2173 91.6619C55.1037 91.3352 54.9304 91.0753 54.6974 90.8821C54.4645 90.6889 54.1747 90.5923 53.8281 90.5923C53.473 90.5923 53.1776 90.6889 52.9418 90.8821C52.7088 91.0753 52.5341 91.3352 52.4176 91.6619C52.304 91.9858 52.2472 92.348 52.2472 92.7486C52.2472 93.1463 52.304 93.5071 52.4176 93.831C52.5341 94.1548 52.7088 94.4134 52.9418 94.6065C53.1776 94.7969 53.473 94.892 53.8281 94.892ZM58.2653 96V89.4545H59.761V90.5455H59.8292C59.9485 90.1676 60.1531 89.8764 60.4428 89.6719C60.7354 89.4645 61.0692 89.3608 61.4442 89.3608C61.5295 89.3608 61.6246 89.3651 61.7298 89.3736C61.8377 89.3793 61.9272 89.3892 61.9982 89.4034V90.8224C61.9329 90.7997 61.8292 90.7798 61.6871 90.7628C61.5479 90.7429 61.413 90.733 61.2823 90.733C61.0011 90.733 60.7482 90.794 60.5238 90.9162C60.3022 91.0355 60.1275 91.2017 59.9996 91.4148C59.8718 91.6278 59.8079 91.8736 59.8079 92.152V96H58.2653ZM66.6431 89.4545V90.6477H62.8803V89.4545H66.6431ZM63.8093 87.8864H65.3519V94.0312C65.3519 94.2386 65.3832 94.3977 65.4457 94.5085C65.511 94.6165 65.5962 94.6903 65.7013 94.7301C65.8065 94.7699 65.9229 94.7898 66.0508 94.7898C66.1474 94.7898 66.2354 94.7827 66.315 94.7685C66.3974 94.7543 66.4599 94.7415 66.5025 94.7301L66.7624 95.9361C66.68 95.9645 66.5621 95.9957 66.4087 96.0298C66.2582 96.0639 66.0735 96.0838 65.8548 96.0895C65.4684 96.1009 65.1204 96.0426 64.8107 95.9148C64.5011 95.7841 64.2553 95.5824 64.0735 95.3097C63.8945 95.0369 63.8065 94.696 63.8093 94.2869V87.8864ZM73.0128 91.1847L71.6065 91.3381C71.5668 91.196 71.4972 91.0625 71.3977 90.9375C71.3011 90.8125 71.1705 90.7116 71.0057 90.6349C70.8409 90.5582 70.6392 90.5199 70.4006 90.5199C70.0795 90.5199 69.8097 90.5895 69.5909 90.7287C69.375 90.8679 69.2685 91.0483 69.2713 91.2699C69.2685 91.4602 69.3381 91.6151 69.4801 91.7344C69.625 91.8537 69.8636 91.9517 70.196 92.0284L71.3125 92.267C71.9318 92.4006 72.392 92.6122 72.6932 92.902C72.9972 93.1918 73.1506 93.571 73.1534 94.0398C73.1506 94.4517 73.0298 94.8153 72.7912 95.1307C72.5554 95.4432 72.2273 95.6875 71.8068 95.8636C71.3864 96.0398 70.9034 96.1278 70.358 96.1278C69.5568 96.1278 68.9119 95.9602 68.4233 95.625C67.9347 95.2869 67.6435 94.8168 67.5497 94.2145L69.054 94.0696C69.1222 94.3651 69.267 94.5881 69.4886 94.7386C69.7102 94.8892 69.9986 94.9645 70.3537 94.9645C70.7202 94.9645 71.0142 94.8892 71.2358 94.7386C71.4602 94.5881 71.5724 94.402 71.5724 94.1804C71.5724 93.9929 71.5 93.8381 71.3551 93.7159C71.2131 93.5937 70.9915 93.5 70.6903 93.4347L69.5739 93.2003C68.946 93.0696 68.4815 92.8494 68.1804 92.5398C67.8793 92.2273 67.7301 91.8324 67.733 91.3551C67.7301 90.9517 67.8395 90.6023 68.0611 90.3068C68.2855 90.0085 68.5966 89.7784 68.9943 89.6165C69.3949 89.4517 69.8565 89.3693 70.3793 89.3693C71.1463 89.3693 71.75 89.5327 72.1903 89.8594C72.6335 90.1861 72.9077 90.6278 73.0128 91.1847Z" fill="black"/>
</svg>
