<svg width="64" height="79" viewBox="0 0 64 79" fill="none" xmlns="http://www.w3.org/2000/svg">
<path d="M10.5 22L10.5 26.8L7 26.8L7 22L10.5 22ZM14 26.8L14 30L10.5 30L10.5 26.8L14 26.8ZM21 26.8L21 30L17.5 30L17.5 26.8L21 26.8Z" fill="#1964AB"/>
<path d="M51 24.5C51 19.6544 49.5045 14.9175 46.7025 10.8885C43.9005 6.85953 39.9179 3.71931 35.2584 1.86496C30.5989 0.0106146 25.4717 -0.474567 20.5252 0.47077C15.5787 1.41611 11.035 3.74951 7.46879 7.17589C3.90255 10.6023 1.47392 14.9678 0.489993 19.7203C-0.49393 24.4728 0.0110531 29.399 1.94109 33.8757C3.87112 38.3525 7.13952 42.1789 11.333 44.871C15.5264 47.5631 20.4566 49 25.5 49C32.2607 48.9926 38.7422 46.409 43.5227 41.8159C48.3032 37.2229 50.9923 30.9955 51 24.5ZM47.3025 23.4448L38.1662 27.832L30.9643 25.0653L30.9643 14.4725L22.9737 12.005L17.779 16.996L15.025 15.2338L20.0357 7.50051L20.0357 4.19126C23.1733 3.39558 26.4565 3.28482 29.6444 3.86709C32.8323 4.44937 35.8441 5.70991 38.4589 7.55627C41.0737 9.40262 43.2252 11.7879 44.7555 14.5373C46.2857 17.2866 47.156 20.3302 47.3025 23.4448ZM16.3929 5.43551L16.3929 6.49951L11.9322 13.3858C11.4279 14.1568 11.2579 15.0868 11.4584 15.9767C11.6589 16.8667 12.214 17.6459 13.005 18.1475L15.759 19.9115C16.4602 20.3584 17.3005 20.5589 18.1379 20.4792C18.9752 20.3995 19.7582 20.0444 20.3545 19.474L23.9773 15.9933L27.3214 17.0258L27.3214 25.0653C27.3189 25.7653 27.536 26.4498 27.9444 27.0295C28.3528 27.6092 28.9336 28.0572 29.611 28.315L36.8111 31.0818C37.2888 31.2656 37.8017 31.3502 38.3159 31.33C38.8301 31.3098 39.334 31.1852 39.7946 30.9645L47.1167 27.447C46.6487 30.6856 45.3975 33.7739 43.4633 36.4642C41.5292 39.1545 38.9659 41.3719 35.9789 42.9389C32.992 44.5058 29.6645 45.3785 26.2633 45.4872C22.862 45.5958 19.4815 44.9373 16.3929 43.5645L16.3929 36.75C16.3919 35.822 16.0078 34.9323 15.3248 34.2762C14.6419 33.62 13.7159 33.2509 12.75 33.25L5.65737 33.25C4.45159 30.7478 3.77284 28.0411 3.66021 25.2858C3.54758 22.5306 4.00329 19.7811 5.0011 17.1957C5.99891 14.6103 7.51911 12.2401 9.47419 10.2215C11.4293 8.20289 13.7806 6.5775 16.3929 5.43551ZM7.78298 36.75L12.75 36.75L12.75 41.5223C10.8389 40.1974 9.16188 38.5861 7.78298 36.75Z" fill="#1964AB"/>
<path d="M35.8254 45.5696C34.2049 46.2856 33.5014 48.3045 34.2679 50.0394L39.7724 62.4985L38.8056 62.0584L38.4572 61.9363C37.6513 61.5943 36.7647 61.5941 35.9915 61.9357C35.2183 62.2773 34.6214 62.9329 34.3315 63.759C34.0452 64.5867 34.0898 65.5161 34.4555 66.3439C34.8212 67.1717 35.4783 67.8304 36.283 68.1761L36.2974 68.2088L48.1352 73.1818L48.2108 73.1875L48.2707 73.2404C50.1966 73.7646 52.2017 73.6253 53.9824 72.8435L55.6768 72.0949C56.7377 71.6291 57.6896 70.9435 58.4778 70.0775C59.266 69.2116 59.8751 68.1823 60.2699 67.0488C60.6648 65.9153 60.8378 64.7 60.7789 63.4725C60.72 62.245 60.4304 61.0295 59.9268 59.8958L56.2866 51.6566C55.5201 49.9216 53.5529 49.0826 51.9333 49.7982C51.5137 49.9836 51.18 50.2785 50.8939 50.6116C49.9651 49.3833 48.3425 48.8635 46.9683 49.4706C46.2137 49.804 45.6609 50.4264 45.3619 51.1648C44.5906 50.876 43.7587 50.8926 43.0277 51.2116C42.6931 51.3648 42.3894 51.5792 42.1302 51.8451L40.1787 47.428C39.4122 45.6931 37.446 44.8537 35.8254 45.5696ZM36.7574 47.679C37.3041 47.4375 37.9499 47.7131 38.2085 48.2985L43.3341 59.9001L45.3044 59.0297L43.4405 54.8109C43.1819 54.2255 43.4129 53.5625 43.9597 53.321C44.5064 53.0794 45.1522 53.3551 45.4108 53.9404L47.2746 58.1592L49.2449 57.2887L47.381 53.07C47.1224 52.4846 47.3535 51.8216 47.9002 51.58C48.447 51.3385 49.0927 51.6141 49.3513 52.1995L51.2152 56.4183L53.278 55.5069L52.3461 53.3975C52.0875 52.8121 52.3185 52.1491 52.8653 51.9076C53.411 51.6664 54.0578 51.9417 54.3164 52.527L57.957 60.7674C59.5711 64.4208 58.1574 68.4779 54.7439 69.986L53.0515 70.7337C51.6082 71.3713 50.1174 71.3707 48.7139 70.995L37.0125 66.0802C36.3667 65.8045 36.1407 65.293 36.3718 64.63C36.6038 63.9665 37.0806 63.7559 37.7263 64.0315L43.9849 66.7033L36.2382 49.169C35.9796 48.5836 36.2106 47.9206 36.7574 47.679Z" fill="#1964AB"/>
</svg>
