<svg width="176" height="75" viewBox="0 0 176 90" fill="none" xmlns="http://www.w3.org/2000/svg">
<path d="M6.25 24.5L6.25 27.5L4 27.5L4 24.5L6.25 24.5ZM8.5 27.5L8.5 29.5L6.25 29.5L6.25 27.5L8.5 27.5ZM13 27.5L13 29.5L10.75 29.5L10.75 27.5L13 27.5Z" fill="#1964AB"/>
<path d="M31 26.5C31 23.5333 30.0909 20.6332 28.3878 18.1665C26.6846 15.6997 24.2638 13.7771 21.4316 12.6418C18.5993 11.5065 15.4828 11.2094 12.4761 11.7882C9.4694 12.367 6.70756 13.7956 4.53985 15.8934C2.37214 17.9912 0.895907 20.6639 0.297836 23.5736C-0.300235 26.4834 0.00671552 29.4994 1.17987 32.2403C2.35303 34.9811 4.33971 37.3238 6.88867 38.972C9.43763 40.6203 12.4344 41.5 15.5 41.5C19.6094 41.4955 23.5492 39.9137 26.455 37.1016C29.3608 34.2895 30.9953 30.4769 31 26.5ZM28.7525 25.8539L23.1991 28.54L18.8214 26.8461L18.8214 20.3607L13.9644 18.85L10.8068 21.9057L9.13283 20.8268L12.1786 16.0921L12.1786 14.0661C14.0857 13.5789 16.0814 13.5111 18.0191 13.8676C19.9569 14.2241 21.7876 14.9959 23.377 16.1263C24.9664 17.2567 26.2741 18.7171 27.2043 20.4004C28.1345 22.0836 28.6635 23.947 28.7525 25.8539ZM9.96429 14.8279L9.96429 15.4793L7.2529 19.6954C6.94639 20.1674 6.84301 20.7368 6.96488 21.2817C7.08676 21.8266 7.42421 22.3036 7.905 22.6107L9.57901 23.6907C10.0052 23.9643 10.516 24.0871 11.025 24.0383C11.5339 23.9895 12.0099 23.7721 12.3723 23.4229L14.5744 21.2918L16.6071 21.9239L16.6071 26.8461C16.6056 27.2747 16.7376 27.6937 16.9858 28.0487C17.2341 28.4036 17.5871 28.6779 17.9988 28.8357L22.3754 30.5296C22.6658 30.6422 22.9775 30.694 23.29 30.6816C23.6026 30.6693 23.9089 30.593 24.1889 30.4579L28.6396 28.3043C28.3551 30.2871 27.5946 32.1779 26.4189 33.825C25.2432 35.4721 23.6851 36.8298 21.8696 37.7891C20.054 38.7484 18.0314 39.2828 15.9639 39.3493C13.8965 39.4158 11.8417 39.0127 9.96429 38.1721L9.96429 34C9.9637 33.4319 9.73023 32.8871 9.31509 32.4854C8.89996 32.0837 8.33709 31.8577 7.75 31.8571L3.43879 31.8571C2.70586 30.3252 2.29329 28.668 2.22483 26.9811C2.15637 25.2942 2.43337 23.6109 3.03988 22.028C3.64639 20.4451 4.57044 18.994 5.75882 17.7581C6.9472 16.5222 8.37646 15.527 9.96429 14.8279ZM4.73083 34L7.75 34L7.75 36.9218C6.58837 36.1107 5.56898 35.1242 4.73083 34Z" fill="#1964AB"/>
<path d="M45.9 50V18.45H35.45V15H60.55V18.45H50.1V50H45.9ZM69.1285 50V19.7L63.4785 20.95V18.05L70.5285 15H73.3785V50H69.1285ZM94.4164 50.6C91.3164 50.6 88.6331 49.85 86.3664 48.35C84.1331 46.8167 82.4164 44.7 81.2164 42C80.0164 39.2667 79.4164 36.1 79.4164 32.5C79.4164 28.9 80.0164 25.75 81.2164 23.05C82.4164 20.3167 84.1331 18.2 86.3664 16.7C88.6331 15.1667 91.3164 14.4 94.4164 14.4C97.5164 14.4 100.183 15.1667 102.416 16.7C104.65 18.2 106.366 20.3167 107.566 23.05C108.766 25.75 109.366 28.9 109.366 32.5C109.366 36.1 108.766 39.2667 107.566 42C106.366 44.7 104.65 46.8167 102.416 48.35C100.183 49.85 97.5164 50.6 94.4164 50.6ZM94.4164 46.9C96.4497 46.9 98.2664 46.3333 99.8664 45.2C101.5 44.0333 102.766 42.3833 103.666 40.25C104.6 38.0833 105.066 35.5 105.066 32.5C105.066 29.5 104.6 26.9333 103.666 24.8C102.766 22.6667 101.5 21.0333 99.8664 19.9C98.2664 18.7333 96.4497 18.15 94.4164 18.15C92.3497 18.15 90.5164 18.7333 88.9164 19.9C87.3164 21.0333 86.0497 22.6667 85.1164 24.8C84.1831 26.9333 83.7164 29.5 83.7164 32.5C83.7164 35.5 84.1831 38.0833 85.1164 40.25C86.0497 42.3833 87.3164 44.0333 88.9164 45.2C90.5164 46.3333 92.3497 46.9 94.4164 46.9ZM118.884 50V19.7L113.234 20.95V18.05L120.284 15H123.134V50H118.884Z" fill="black"/>
<line x1="30" y1="54.5" x2="176" y2="54.5" stroke="#1964AB" stroke-width="3"/>
<path d="M34.36 77.02L30.52 63H32.32L35.34 75.02L38.78 63H40.64L43.98 75.02L47.04 63H48.84L44.92 77H43L39.66 65.44L36.24 77L34.36 77.02ZM54.1603 77.24C53.2136 77.24 52.3736 77.0267 51.6403 76.6C50.907 76.16 50.327 75.5533 49.9003 74.78C49.487 74.0067 49.2803 73.0933 49.2803 72.04C49.2803 71 49.487 70.0933 49.9003 69.32C50.3136 68.5333 50.887 67.9267 51.6203 67.5C52.367 67.06 53.227 66.84 54.2003 66.84C55.1603 66.84 55.987 67.06 56.6803 67.5C57.387 67.9267 57.927 68.4933 58.3003 69.2C58.6736 69.9067 58.8603 70.6667 58.8603 71.48C58.8603 71.6267 58.8536 71.7733 58.8403 71.92C58.8403 72.0667 58.8403 72.2333 58.8403 72.42H50.9403C50.9803 73.18 51.1536 73.8133 51.4603 74.32C51.7803 74.8133 52.1736 75.1867 52.6403 75.44C53.1203 75.6933 53.627 75.82 54.1603 75.82C54.8536 75.82 55.4336 75.66 55.9003 75.34C56.367 75.02 56.707 74.5867 56.9203 74.04H58.5803C58.3136 74.96 57.8003 75.7267 57.0403 76.34C56.2936 76.94 55.3336 77.24 54.1603 77.24ZM54.1603 68.26C53.3603 68.26 52.647 68.5067 52.0203 69C51.407 69.48 51.0536 70.1867 50.9603 71.12H57.2003C57.1603 70.2267 56.8536 69.5267 56.2803 69.02C55.707 68.5133 55.0003 68.26 54.1603 68.26ZM61.667 77.1C61.3337 77.1 61.0537 76.9933 60.827 76.78C60.6137 76.5533 60.507 76.28 60.507 75.96C60.507 75.64 60.6137 75.3733 60.827 75.16C61.0537 74.9333 61.3337 74.82 61.667 74.82C61.987 74.82 62.2537 74.9333 62.467 75.16C62.6937 75.3733 62.807 75.64 62.807 75.96C62.807 76.28 62.6937 76.5533 62.467 76.78C62.2537 76.9933 61.987 77.1 61.667 77.1ZM73.6663 77V64.38H69.4863V63H79.5263V64.38H75.3463V77H73.6663ZM84.1408 77.24C83.1941 77.24 82.3541 77.0267 81.6208 76.6C80.8874 76.16 80.3074 75.5533 79.8808 74.78C79.4674 74.0067 79.2608 73.0933 79.2608 72.04C79.2608 71 79.4674 70.0933 79.8808 69.32C80.2941 68.5333 80.8674 67.9267 81.6008 67.5C82.3474 67.06 83.2074 66.84 84.1808 66.84C85.1408 66.84 85.9674 67.06 86.6608 67.5C87.3674 67.9267 87.9074 68.4933 88.2808 69.2C88.6541 69.9067 88.8408 70.6667 88.8408 71.48C88.8408 71.6267 88.8341 71.7733 88.8208 71.92C88.8208 72.0667 88.8208 72.2333 88.8208 72.42H80.9208C80.9608 73.18 81.1341 73.8133 81.4408 74.32C81.7608 74.8133 82.1541 75.1867 82.6208 75.44C83.1008 75.6933 83.6074 75.82 84.1408 75.82C84.8341 75.82 85.4141 75.66 85.8808 75.34C86.3474 75.02 86.6874 74.5867 86.9008 74.04H88.5608C88.2941 74.96 87.7808 75.7267 87.0208 76.34C86.2741 76.94 85.3141 77.24 84.1408 77.24ZM84.1408 68.26C83.3408 68.26 82.6274 68.5067 82.0008 69C81.3874 69.48 81.0341 70.1867 80.9408 71.12H87.1808C87.1408 70.2267 86.8341 69.5267 86.2608 69.02C85.6874 68.5133 84.9808 68.26 84.1408 68.26ZM95.6275 77.24C94.6808 77.24 93.8275 77.0267 93.0675 76.6C92.3208 76.16 91.7275 75.5533 91.2875 74.78C90.8608 73.9933 90.6475 73.08 90.6475 72.04C90.6475 71 90.8608 70.0933 91.2875 69.32C91.7275 68.5333 92.3208 67.9267 93.0675 67.5C93.8275 67.06 94.6808 66.84 95.6275 66.84C96.8008 66.84 97.7875 67.1467 98.5875 67.76C99.4008 68.3733 99.9142 69.1933 100.128 70.22H98.4075C98.2742 69.6067 97.9475 69.1333 97.4275 68.8C96.9075 68.4533 96.3008 68.28 95.6075 68.28C95.0475 68.28 94.5208 68.42 94.0275 68.7C93.5342 68.98 93.1342 69.4 92.8275 69.96C92.5208 70.52 92.3675 71.2133 92.3675 72.04C92.3675 72.8667 92.5208 73.56 92.8275 74.12C93.1342 74.68 93.5342 75.1067 94.0275 75.4C94.5208 75.68 95.0475 75.82 95.6075 75.82C96.3008 75.82 96.9075 75.6533 97.4275 75.32C97.9475 74.9733 98.2742 74.4867 98.4075 73.86H100.128C99.9275 74.86 99.4208 75.6733 98.6075 76.3C97.7942 76.9267 96.8008 77.24 95.6275 77.24ZM102.474 77V62.6H104.154V68.78C104.487 68.1667 104.96 67.6933 105.574 67.36C106.187 67.0133 106.854 66.84 107.574 66.84C108.72 66.84 109.64 67.2 110.334 67.92C111.027 68.6267 111.374 69.72 111.374 71.2V77H109.714V71.38C109.714 69.3133 108.88 68.28 107.214 68.28C106.347 68.28 105.62 68.5933 105.034 69.22C104.447 69.8333 104.154 70.7133 104.154 71.86V77H102.474ZM114.499 77.1C114.166 77.1 113.886 76.9933 113.659 76.78C113.446 76.5533 113.339 76.28 113.339 75.96C113.339 75.64 113.446 75.3733 113.659 75.16C113.886 74.9333 114.166 74.82 114.499 74.82C114.819 74.82 115.086 74.9333 115.299 75.16C115.526 75.3733 115.639 75.64 115.639 75.96C115.639 76.28 115.526 76.5533 115.299 76.78C115.086 76.9933 114.819 77.1 114.499 77.1ZM126.698 77V71.68L122.138 63H124.038L127.538 70.08L131.038 63H132.918L128.378 71.68V77H126.698ZM137.482 77.24C136.549 77.24 135.709 77.0267 134.962 76.6C134.215 76.1733 133.622 75.5733 133.182 74.8C132.755 74.0133 132.542 73.0933 132.542 72.04C132.542 70.9867 132.762 70.0733 133.202 69.3C133.642 68.5133 134.235 67.9067 134.982 67.48C135.742 67.0533 136.589 66.84 137.522 66.84C138.455 66.84 139.295 67.0533 140.042 67.48C140.789 67.9067 141.375 68.5133 141.802 69.3C142.242 70.0733 142.462 70.9867 142.462 72.04C142.462 73.0933 142.242 74.0133 141.802 74.8C141.362 75.5733 140.762 76.1733 140.002 76.6C139.255 77.0267 138.415 77.24 137.482 77.24ZM137.482 75.8C138.055 75.8 138.589 75.66 139.082 75.38C139.575 75.1 139.975 74.68 140.282 74.12C140.589 73.56 140.742 72.8667 140.742 72.04C140.742 71.2133 140.589 70.52 140.282 69.96C139.989 69.4 139.595 68.98 139.102 68.7C138.609 68.42 138.082 68.28 137.522 68.28C136.949 68.28 136.415 68.42 135.922 68.7C135.429 68.98 135.029 69.4 134.722 69.96C134.415 70.52 134.262 71.2133 134.262 72.04C134.262 72.8667 134.415 73.56 134.722 74.12C135.029 74.68 135.422 75.1 135.902 75.38C136.395 75.66 136.922 75.8 137.482 75.8ZM148.418 77.24C147.245 77.24 146.311 76.8867 145.618 76.18C144.925 75.46 144.578 74.36 144.578 72.88V67.08H146.258V72.7C146.258 74.7667 147.105 75.8 148.798 75.8C149.665 75.8 150.378 75.4933 150.938 74.88C151.511 74.2533 151.798 73.3667 151.798 72.22V67.08H153.478V77H151.958L151.838 75.22C151.531 75.8467 151.071 76.34 150.458 76.7C149.858 77.06 149.178 77.24 148.418 77.24Z" fill="black"/>
<path d="M24.7108 38.5066C23.8458 38.8888 23.476 39.9793 23.8921 40.921L26.8797 47.6835L26.3608 47.442L26.1739 47.3747C25.7414 47.1869 25.2669 47.1839 24.8541 47.3662C24.4414 47.5486 24.1241 47.9015 23.9717 48.3477C23.8212 48.7947 23.8481 49.298 24.0466 49.7473C24.2451 50.1966 24.599 50.5554 25.0309 50.7451L25.0387 50.7629L31.3915 53.4942L31.4319 53.4975L31.4641 53.5264C32.4967 53.8165 33.5695 53.7478 34.52 53.3305L35.4245 52.9309C35.9908 52.6823 36.498 52.3143 36.917 51.8482C37.336 51.3821 37.6586 50.8269 37.8662 50.2147C38.0738 49.6025 38.1623 48.9451 38.1267 48.2805C38.0911 47.6158 37.9321 46.9569 37.6587 46.3416L35.6829 41.8695C35.2669 40.9278 34.2111 40.4672 33.3467 40.8491C33.1226 40.9481 32.9451 41.1066 32.793 41.286C32.2918 40.618 31.4216 40.3312 30.688 40.6553C30.2852 40.8333 29.9914 41.1683 29.8339 41.567C29.4201 41.4081 28.9748 41.4144 28.5846 41.5846C28.406 41.6664 28.2442 41.7814 28.1063 41.9245L27.0471 39.5271C26.6311 38.5854 25.5759 38.1245 24.7108 38.5066ZM25.2167 39.6515C25.5085 39.5226 25.8551 39.674 25.9954 39.9917L28.7775 46.2888L29.8292 45.8241L28.8175 43.5343C28.6772 43.2166 28.7986 42.8584 29.0905 42.7295C29.3823 42.6006 29.7289 42.7519 29.8692 43.0696L30.8809 45.3595L31.9326 44.8949L30.9209 42.605C30.7806 42.2873 30.902 41.9292 31.1938 41.8002C31.4857 41.6713 31.8322 41.8226 31.9726 42.1404L32.9843 44.4302L34.0854 43.9437L33.5796 42.7988C33.4392 42.4811 33.5606 42.123 33.8525 41.994C34.1438 41.8653 34.4909 42.0165 34.6312 42.3342L36.6073 46.8068C37.4834 48.7898 36.7402 50.9812 34.9181 51.7862L34.0147 52.1854C33.2444 52.5257 32.4464 52.5204 31.6939 52.3123L25.4144 49.6131C25.0678 49.4617 24.9452 49.184 25.0666 48.8259C25.1886 48.4676 25.4431 48.3551 25.7897 48.5065L29.1485 49.9735L24.9438 40.4563C24.8034 40.1386 24.9248 39.7805 25.2167 39.6515Z" fill="#1964AB"/>
</svg>
